%TF.GenerationSoftware,KiCad,Pcbnew,(5.1.6-0)*%
%TF.CreationDate,2020-08-23T17:23:21-05:00*%
%TF.ProjectId,isa_fdc.kicad_DB37-v3.1.2_pcb,6973615f-6664-4632-9e6b-696361645f44,rev?*%
%TF.SameCoordinates,Original*%
%TF.FileFunction,Copper,L2,Bot*%
%TF.FilePolarity,Positive*%
%FSLAX46Y46*%
G04 Gerber Fmt 4.6, Leading zero omitted, Abs format (unit mm)*
G04 Created by KiCad (PCBNEW (5.1.6-0)) date 2020-08-23 17:23:21*
%MOMM*%
%LPD*%
G01*
G04 APERTURE LIST*
%TA.AperFunction,ComponentPad*%
%ADD10C,4.000000*%
%TD*%
%TA.AperFunction,ComponentPad*%
%ADD11C,1.600000*%
%TD*%
%TA.AperFunction,ComponentPad*%
%ADD12R,1.600000X1.600000*%
%TD*%
%TA.AperFunction,ComponentPad*%
%ADD13C,1.524000*%
%TD*%
%TA.AperFunction,ComponentPad*%
%ADD14R,1.524000X1.524000*%
%TD*%
%TA.AperFunction,ComponentPad*%
%ADD15C,1.400000*%
%TD*%
%TA.AperFunction,ComponentPad*%
%ADD16O,1.400000X1.400000*%
%TD*%
%TA.AperFunction,ComponentPad*%
%ADD17O,1.600000X1.600000*%
%TD*%
%TA.AperFunction,ComponentPad*%
%ADD18C,1.397000*%
%TD*%
%TA.AperFunction,ComponentPad*%
%ADD19R,1.397000X1.397000*%
%TD*%
%TA.AperFunction,ConnectorPad*%
%ADD20R,1.778000X7.620000*%
%TD*%
%TA.AperFunction,ViaPad*%
%ADD21C,0.889000*%
%TD*%
%TA.AperFunction,Conductor*%
%ADD22C,0.368300*%
%TD*%
%TA.AperFunction,Conductor*%
%ADD23C,0.368000*%
%TD*%
%TA.AperFunction,Conductor*%
%ADD24C,0.632460*%
%TD*%
%TA.AperFunction,Conductor*%
%ADD25C,1.524000*%
%TD*%
%TA.AperFunction,Conductor*%
%ADD26C,0.762000*%
%TD*%
G04 APERTURE END LIST*
D10*
%TO.P,P2,0*%
%TO.N,GND*%
X197647500Y-59750000D03*
X197647500Y-123250000D03*
D11*
%TO.P,P2,37*%
X199067500Y-115045000D03*
%TO.P,P2,36*%
X199067500Y-112275000D03*
%TO.P,P2,35*%
X199067500Y-109505000D03*
%TO.P,P2,34*%
X199067500Y-106735000D03*
%TO.P,P2,33*%
X199067500Y-103965000D03*
%TO.P,P2,32*%
X199067500Y-101195000D03*
%TO.P,P2,31*%
X199067500Y-98425000D03*
%TO.P,P2,30*%
X199067500Y-95655000D03*
%TO.P,P2,29*%
X199067500Y-92885000D03*
%TO.P,P2,28*%
X199067500Y-90115000D03*
%TO.P,P2,27*%
X199067500Y-87345000D03*
%TO.P,P2,26*%
X199067500Y-84575000D03*
%TO.P,P2,25*%
X199067500Y-81805000D03*
%TO.P,P2,24*%
X199067500Y-79035000D03*
%TO.P,P2,23*%
X199067500Y-76265000D03*
%TO.P,P2,22*%
X199067500Y-73495000D03*
%TO.P,P2,21*%
X199067500Y-70725000D03*
%TO.P,P2,20*%
X199067500Y-67955000D03*
%TO.P,P2,19*%
%TO.N,/DSKCG*%
X196227500Y-116430000D03*
%TO.P,P2,18*%
%TO.N,/HDSEL*%
X196227500Y-113660000D03*
%TO.P,P2,17*%
%TO.N,/RDATA*%
X196227500Y-110890000D03*
%TO.P,P2,16*%
%TO.N,/WP*%
X196227500Y-108120000D03*
%TO.P,P2,15*%
%TO.N,/TRK00*%
X196227500Y-105350000D03*
%TO.P,P2,14*%
%TO.N,/WE*%
X196227500Y-102580000D03*
%TO.P,P2,13*%
%TO.N,/WDATA*%
X196227500Y-99810000D03*
%TO.P,P2,12*%
%TO.N,/STEP*%
X196227500Y-97040000D03*
%TO.P,P2,11*%
%TO.N,/DIR*%
X196227500Y-94270000D03*
%TO.P,P2,10*%
%TO.N,/ME3*%
X196227500Y-91500000D03*
%TO.P,P2,9*%
%TO.N,/DS2*%
X196227500Y-88730000D03*
%TO.P,P2,8*%
%TO.N,/DS3*%
X196227500Y-85960000D03*
%TO.P,P2,7*%
%TO.N,/ME2*%
X196227500Y-83190000D03*
%TO.P,P2,6*%
%TO.N,/INDEX*%
X196227500Y-80420000D03*
%TO.P,P2,5*%
%TO.N,Net-(P2-Pad5)*%
X196227500Y-77650000D03*
%TO.P,P2,4*%
%TO.N,Net-(P2-Pad4)*%
X196227500Y-74880000D03*
%TO.P,P2,3*%
%TO.N,/DENSL*%
X196227500Y-72110000D03*
%TO.P,P2,2*%
%TO.N,Net-(P2-Pad2)*%
X196227500Y-69340000D03*
D12*
%TO.P,P2,1*%
%TO.N,Net-(P2-Pad1)*%
X196227500Y-66570000D03*
%TD*%
D13*
%TO.P,P3,34*%
%TO.N,/DSKCG*%
X189010000Y-95870000D03*
%TO.P,P3,33*%
%TO.N,Net-(P3-Pad33)*%
X186470000Y-95870000D03*
%TO.P,P3,32*%
%TO.N,/HDSEL*%
X189010000Y-93330000D03*
%TO.P,P3,31*%
%TO.N,GND*%
X186470000Y-93330000D03*
%TO.P,P3,29*%
X186470000Y-90790000D03*
%TO.P,P3,30*%
%TO.N,/RDATA*%
X189010000Y-90790000D03*
%TO.P,P3,27*%
%TO.N,Net-(P3-Pad27)*%
X186470000Y-88250000D03*
%TO.P,P3,28*%
%TO.N,/WP*%
X189010000Y-88250000D03*
%TO.P,P3,26*%
%TO.N,/TRK00*%
X189010000Y-85710000D03*
%TO.P,P3,25*%
%TO.N,GND*%
X186470000Y-85710000D03*
%TO.P,P3,24*%
%TO.N,/WE*%
X189010000Y-83170000D03*
%TO.P,P3,23*%
%TO.N,GND*%
X186470000Y-83170000D03*
%TO.P,P3,22*%
%TO.N,/WDATA*%
X189010000Y-80630000D03*
%TO.P,P3,21*%
%TO.N,GND*%
X186470000Y-80630000D03*
%TO.P,P3,20*%
%TO.N,/STEP*%
X189010000Y-78090000D03*
%TO.P,P3,19*%
%TO.N,GND*%
X186470000Y-78090000D03*
%TO.P,P3,18*%
%TO.N,/DIR*%
X189010000Y-75550000D03*
%TO.P,P3,17*%
%TO.N,Net-(P3-Pad17)*%
X186470000Y-75550000D03*
%TO.P,P3,16*%
%TO.N,/ME3*%
X189010000Y-73010000D03*
%TO.P,P3,15*%
%TO.N,GND*%
X186470000Y-73010000D03*
%TO.P,P3,14*%
%TO.N,/DS2*%
X189010000Y-70470000D03*
%TO.P,P3,13*%
%TO.N,GND*%
X186470000Y-70470000D03*
%TO.P,P3,12*%
%TO.N,/DS3*%
X189010000Y-67930000D03*
%TO.P,P3,11*%
%TO.N,GND*%
X186470000Y-67930000D03*
%TO.P,P3,10*%
%TO.N,/ME2*%
X189010000Y-65390000D03*
%TO.P,P3,9*%
%TO.N,Net-(P3-Pad9)*%
X186470000Y-65390000D03*
%TO.P,P3,8*%
%TO.N,/INDEX*%
X189010000Y-62850000D03*
%TO.P,P3,7*%
%TO.N,GND*%
X186470000Y-62850000D03*
%TO.P,P3,6*%
%TO.N,/DRATE0*%
X189010000Y-60310000D03*
%TO.P,P3,5*%
%TO.N,GND*%
X186470000Y-60310000D03*
%TO.P,P3,4*%
%TO.N,Net-(P3-Pad4)*%
X189010000Y-57770000D03*
%TO.P,P3,3*%
%TO.N,GND*%
X186470000Y-57770000D03*
%TO.P,P3,2*%
%TO.N,/DENSL*%
X189010000Y-55230000D03*
D14*
%TO.P,P3,1*%
%TO.N,GND*%
X186470000Y-55230000D03*
%TD*%
D15*
%TO.P,R2,1*%
%TO.N,/GT3*%
X130690000Y-105120000D03*
D16*
%TO.P,R2,2*%
%TO.N,VCC*%
X130690000Y-107020000D03*
%TD*%
%TO.P,R1,2*%
%TO.N,/GT2*%
%TA.AperFunction,ComponentPad*%
G36*
G01*
X130501472Y-99868528D02*
X130501472Y-99868528D01*
G75*
G02*
X130501472Y-100858478I-494975J-494975D01*
G01*
X130501472Y-100858478D01*
G75*
G02*
X129511522Y-100858478I-494975J494975D01*
G01*
X129511522Y-100858478D01*
G75*
G02*
X129511522Y-99868528I494975J494975D01*
G01*
X129511522Y-99868528D01*
G75*
G02*
X130501472Y-99868528I494975J-494975D01*
G01*
G37*
%TD.AperFunction*%
D15*
%TO.P,R1,1*%
%TO.N,VCC*%
X131350000Y-99020000D03*
%TD*%
D12*
%TO.P,U2,1*%
%TO.N,/GT3*%
X136880000Y-106910000D03*
D17*
%TO.P,U2,8*%
%TO.N,/DRQ2*%
X152120000Y-99290000D03*
%TO.P,U2,2*%
%TO.N,/~DACK3*%
X139420000Y-106910000D03*
%TO.P,U2,9*%
%TO.N,/DRQ*%
X149580000Y-99290000D03*
%TO.P,U2,3*%
%TO.N,/~DACK*%
X141960000Y-106910000D03*
%TO.P,U2,10*%
%TO.N,/GT2*%
X147040000Y-99290000D03*
%TO.P,U2,4*%
%TO.N,/GT3*%
X144500000Y-106910000D03*
%TO.P,U2,11*%
%TO.N,/~DACK*%
X144500000Y-99290000D03*
%TO.P,U2,5*%
%TO.N,/DRQ*%
X147040000Y-106910000D03*
%TO.P,U2,12*%
%TO.N,/~DACK2*%
X141960000Y-99290000D03*
%TO.P,U2,6*%
%TO.N,/DRQ3*%
X149580000Y-106910000D03*
%TO.P,U2,13*%
%TO.N,/GT2*%
X139420000Y-99290000D03*
%TO.P,U2,7*%
%TO.N,GND*%
X152120000Y-106910000D03*
%TO.P,U2,14*%
%TO.N,VCC*%
X136880000Y-99290000D03*
%TD*%
D18*
%TO.P,C2,1*%
%TO.N,VCC*%
X132790000Y-100680000D03*
%TO.P,C2,2*%
%TO.N,GND*%
X132790000Y-105760000D03*
%TD*%
D19*
%TO.P,SW1,1*%
%TO.N,/IRQ3*%
X109220000Y-106680000D03*
D18*
%TO.P,SW1,2*%
%TO.N,/IRQ4*%
X111760000Y-106680000D03*
%TO.P,SW1,3*%
%TO.N,/IRQ5*%
X114300000Y-106680000D03*
%TO.P,SW1,4*%
%TO.N,/IRQ6*%
X116840000Y-106680000D03*
%TO.P,SW1,5*%
%TO.N,/0x3F0*%
X119380000Y-106680000D03*
%TO.P,SW1,6*%
%TO.N,/0x370*%
X121920000Y-106680000D03*
%TO.P,SW1,7*%
%TO.N,GND*%
X124460000Y-106680000D03*
%TO.P,SW1,8*%
X127000000Y-106680000D03*
%TO.P,SW1,9*%
%TO.N,/GT3*%
X127000000Y-99060000D03*
%TO.P,SW1,10*%
%TO.N,/GT2*%
X124460000Y-99060000D03*
%TO.P,SW1,11*%
%TO.N,/~FDC_CS*%
X121920000Y-99060000D03*
%TO.P,SW1,12*%
X119380000Y-99060000D03*
%TO.P,SW1,13*%
%TO.N,/FDC_IRQ*%
X116840000Y-99060000D03*
%TO.P,SW1,14*%
X114300000Y-99060000D03*
%TO.P,SW1,15*%
X111760000Y-99060000D03*
%TO.P,SW1,16*%
X109220000Y-99060000D03*
%TD*%
D20*
%TO.P,BUS1,1*%
%TO.N,GND*%
X180340000Y-129644500D03*
%TO.P,BUS1,2*%
%TO.N,/RESETDRV*%
X177800000Y-129644500D03*
%TO.P,BUS1,3*%
%TO.N,VCC*%
X175260000Y-129644500D03*
%TO.P,BUS1,6*%
%TO.N,/DRQ2*%
X167640000Y-129644500D03*
%TO.P,BUS1,7*%
%TO.N,VSS*%
X165100000Y-129644500D03*
%TO.P,BUS1,9*%
%TO.N,VDD*%
X160020000Y-129644500D03*
%TO.P,BUS1,10*%
%TO.N,GND*%
X157480000Y-129644500D03*
%TO.P,BUS1,11*%
%TO.N,/~MEMW*%
X154940000Y-129644500D03*
%TO.P,BUS1,12*%
%TO.N,/~MEMR*%
X152400000Y-129644500D03*
%TO.P,BUS1,13*%
%TO.N,/~IOW*%
X149860000Y-129644500D03*
%TO.P,BUS1,14*%
%TO.N,/~IOR*%
X147320000Y-129644500D03*
%TO.P,BUS1,21*%
%TO.N,/IRQ7*%
X129540000Y-129644500D03*
%TO.P,BUS1,22*%
%TO.N,/IRQ6*%
X127000000Y-129644500D03*
%TO.P,BUS1,23*%
%TO.N,/IRQ5*%
X124460000Y-129644500D03*
%TO.P,BUS1,24*%
%TO.N,/IRQ4*%
X121920000Y-129644500D03*
%TO.P,BUS1,25*%
%TO.N,/IRQ3*%
X119380000Y-129644500D03*
%TO.P,BUS1,26*%
%TO.N,/~DACK2*%
X116840000Y-129644500D03*
%TO.P,BUS1,27*%
%TO.N,/TC*%
X114300000Y-129644500D03*
%TO.P,BUS1,29*%
%TO.N,VCC*%
X109220000Y-129644500D03*
%TO.P,BUS1,31*%
%TO.N,GND*%
X104140000Y-129644500D03*
%TO.P,BUS1,15*%
%TO.N,/~DACK3*%
X144780000Y-129644500D03*
%TO.P,BUS1,16*%
%TO.N,/DRQ3*%
X142240000Y-129644500D03*
%TD*%
D18*
%TO.P,C11,2*%
%TO.N,GND*%
X190890000Y-123800000D03*
D19*
%TO.P,C11,1*%
%TO.N,VCC*%
X190890000Y-118720000D03*
%TD*%
%TO.P,C12,1*%
%TO.N,VCC*%
X119350000Y-62340000D03*
D18*
%TO.P,C12,2*%
%TO.N,GND*%
X124430000Y-62340000D03*
%TD*%
D19*
%TO.P,U5,1*%
%TO.N,GND*%
X160020000Y-119380000D03*
D18*
%TO.P,U5,2*%
%TO.N,/A19*%
X162560000Y-119380000D03*
%TO.P,U5,3*%
%TO.N,VCC*%
X165100000Y-119380000D03*
%TO.P,U5,4*%
%TO.N,/A18*%
X167640000Y-119380000D03*
%TO.P,U5,5*%
%TO.N,VCC*%
X170180000Y-119380000D03*
%TO.P,U5,6*%
%TO.N,/A17*%
X172720000Y-119380000D03*
%TO.P,U5,7*%
%TO.N,Net-(RR1-Pad4)*%
X175260000Y-119380000D03*
%TO.P,U5,8*%
%TO.N,/A16*%
X177800000Y-119380000D03*
%TO.P,U5,9*%
%TO.N,Net-(RR1-Pad5)*%
X180340000Y-119380000D03*
%TO.P,U5,10*%
%TO.N,GND*%
X182880000Y-119380000D03*
%TO.P,U5,11*%
%TO.N,/A15*%
X182880000Y-111760000D03*
%TO.P,U5,12*%
%TO.N,Net-(RR1-Pad6)*%
X180340000Y-111760000D03*
%TO.P,U5,13*%
%TO.N,/A14*%
X177800000Y-111760000D03*
%TO.P,U5,14*%
%TO.N,Net-(RR1-Pad7)*%
X175260000Y-111760000D03*
%TO.P,U5,15*%
%TO.N,/A13*%
X172720000Y-111760000D03*
%TO.P,U5,16*%
%TO.N,Net-(RR1-Pad8)*%
X170180000Y-111760000D03*
%TO.P,U5,17*%
%TO.N,GND*%
X167640000Y-111760000D03*
%TO.P,U5,18*%
X165100000Y-111760000D03*
%TO.P,U5,19*%
%TO.N,/~ROM_CS_IN*%
X162560000Y-111760000D03*
%TO.P,U5,20*%
%TO.N,VCC*%
X160020000Y-111760000D03*
%TD*%
D19*
%TO.P,U7,1*%
%TO.N,/A7*%
X109220000Y-119380000D03*
D18*
%TO.P,U7,2*%
%TO.N,/A5*%
X111760000Y-119380000D03*
%TO.P,U7,3*%
%TO.N,/A4*%
X114300000Y-119380000D03*
%TO.P,U7,4*%
%TO.N,/AEN*%
X116840000Y-119380000D03*
%TO.P,U7,5*%
%TO.N,Net-(U6-Pad7)*%
X119380000Y-119380000D03*
%TO.P,U7,6*%
%TO.N,VCC*%
X121920000Y-119380000D03*
%TO.P,U7,7*%
%TO.N,/0x3F0*%
X124460000Y-119380000D03*
%TO.P,U7,8*%
%TO.N,GND*%
X127000000Y-119380000D03*
%TO.P,U7,9*%
%TO.N,/0x370*%
X127000000Y-111760000D03*
%TO.P,U7,10*%
%TO.N,Net-(U7-Pad10)*%
X124460000Y-111760000D03*
%TO.P,U7,11*%
%TO.N,Net-(U7-Pad11)*%
X121920000Y-111760000D03*
%TO.P,U7,12*%
%TO.N,Net-(U7-Pad12)*%
X119380000Y-111760000D03*
%TO.P,U7,13*%
%TO.N,Net-(U7-Pad13)*%
X116840000Y-111760000D03*
%TO.P,U7,14*%
%TO.N,Net-(U7-Pad14)*%
X114300000Y-111760000D03*
%TO.P,U7,15*%
%TO.N,Net-(U7-Pad15)*%
X111760000Y-111760000D03*
%TO.P,U7,16*%
%TO.N,VCC*%
X109220000Y-111760000D03*
%TD*%
D19*
%TO.P,U6,1*%
%TO.N,/A6*%
X134620000Y-119380000D03*
D18*
%TO.P,U6,2*%
%TO.N,/A8*%
X137160000Y-119380000D03*
%TO.P,U6,3*%
%TO.N,/A9*%
X139700000Y-119380000D03*
%TO.P,U6,4*%
%TO.N,GND*%
X142240000Y-119380000D03*
%TO.P,U6,5*%
X144780000Y-119380000D03*
%TO.P,U6,6*%
%TO.N,VCC*%
X147320000Y-119380000D03*
%TO.P,U6,7*%
%TO.N,Net-(U6-Pad7)*%
X149860000Y-119380000D03*
%TO.P,U6,8*%
%TO.N,GND*%
X152400000Y-119380000D03*
%TO.P,U6,9*%
%TO.N,Net-(U6-Pad9)*%
X152400000Y-111760000D03*
%TO.P,U6,10*%
%TO.N,Net-(U6-Pad10)*%
X149860000Y-111760000D03*
%TO.P,U6,11*%
%TO.N,Net-(U6-Pad11)*%
X147320000Y-111760000D03*
%TO.P,U6,12*%
%TO.N,Net-(U6-Pad12)*%
X144780000Y-111760000D03*
%TO.P,U6,13*%
%TO.N,Net-(U6-Pad13)*%
X142240000Y-111760000D03*
%TO.P,U6,14*%
%TO.N,Net-(U6-Pad14)*%
X139700000Y-111760000D03*
%TO.P,U6,15*%
%TO.N,Net-(U6-Pad15)*%
X137160000Y-111760000D03*
%TO.P,U6,16*%
%TO.N,VCC*%
X134620000Y-111760000D03*
%TD*%
D19*
%TO.P,SW2,1*%
%TO.N,/~ROM_CS*%
X160020000Y-106680000D03*
D18*
%TO.P,SW2,2*%
%TO.N,/~ROMW*%
X162560000Y-106680000D03*
%TO.P,SW2,3*%
%TO.N,Net-(RR1-Pad4)*%
X165100000Y-106680000D03*
%TO.P,SW2,4*%
%TO.N,Net-(RR1-Pad5)*%
X167640000Y-106680000D03*
%TO.P,SW2,5*%
%TO.N,Net-(RR1-Pad6)*%
X170180000Y-106680000D03*
%TO.P,SW2,6*%
%TO.N,Net-(RR1-Pad7)*%
X172720000Y-106680000D03*
%TO.P,SW2,7*%
%TO.N,Net-(RR1-Pad8)*%
X175260000Y-106680000D03*
%TO.P,SW2,8*%
%TO.N,Net-(SW2-Pad8)*%
X177800000Y-106680000D03*
%TO.P,SW2,9*%
%TO.N,Net-(SW2-Pad9)*%
X177800000Y-99060000D03*
%TO.P,SW2,10*%
%TO.N,GND*%
X175260000Y-99060000D03*
%TO.P,SW2,11*%
X172720000Y-99060000D03*
%TO.P,SW2,12*%
X170180000Y-99060000D03*
%TO.P,SW2,13*%
X167640000Y-99060000D03*
%TO.P,SW2,14*%
X165100000Y-99060000D03*
%TO.P,SW2,15*%
%TO.N,/~MEMW*%
X162560000Y-99060000D03*
%TO.P,SW2,16*%
%TO.N,/~ROM_CS_IN*%
X160020000Y-99060000D03*
%TD*%
%TO.P,C1,1*%
%TO.N,VCC*%
X105410000Y-100330000D03*
%TO.P,C1,2*%
%TO.N,GND*%
X105410000Y-105410000D03*
%TD*%
%TO.P,C7,1*%
%TO.N,VCC*%
X105410000Y-113030000D03*
%TO.P,C7,2*%
%TO.N,GND*%
X105410000Y-118110000D03*
%TD*%
%TO.P,C6,1*%
%TO.N,VCC*%
X130810000Y-113030000D03*
%TO.P,C6,2*%
%TO.N,GND*%
X130810000Y-118110000D03*
%TD*%
%TO.P,C5,1*%
%TO.N,VCC*%
X157470000Y-113020000D03*
%TO.P,C5,2*%
%TO.N,GND*%
X157470000Y-118100000D03*
%TD*%
%TO.P,C4,1*%
%TO.N,VCC*%
X137170000Y-83310000D03*
%TO.P,C4,2*%
%TO.N,GND*%
X137170000Y-88390000D03*
%TD*%
%TO.P,C16,1*%
%TO.N,Net-(C16-Pad1)*%
X142240000Y-70485000D03*
%TO.P,C16,2*%
%TO.N,GND*%
X142240000Y-65405000D03*
%TD*%
%TO.P,C15,1*%
%TO.N,Net-(C15-Pad1)*%
X147320000Y-70485000D03*
%TO.P,C15,2*%
%TO.N,GND*%
X147320000Y-65405000D03*
%TD*%
D19*
%TO.P,U4,1*%
%TO.N,/RDY/~BUSY*%
X142240000Y-93980000D03*
D18*
%TO.P,U4,2*%
%TO.N,/A12*%
X144780000Y-93980000D03*
%TO.P,U4,3*%
%TO.N,/A7*%
X147320000Y-93980000D03*
%TO.P,U4,4*%
%TO.N,/A6*%
X149860000Y-93980000D03*
%TO.P,U4,5*%
%TO.N,/A5*%
X152400000Y-93980000D03*
%TO.P,U4,6*%
%TO.N,/A4*%
X154940000Y-93980000D03*
%TO.P,U4,7*%
%TO.N,/A3*%
X157480000Y-93980000D03*
%TO.P,U4,8*%
%TO.N,/A2*%
X160020000Y-93980000D03*
%TO.P,U4,9*%
%TO.N,/A1*%
X162560000Y-93980000D03*
%TO.P,U4,10*%
%TO.N,/A0*%
X165100000Y-93980000D03*
%TO.P,U4,11*%
%TO.N,/D0*%
X167640000Y-93980000D03*
%TO.P,U4,12*%
%TO.N,/D1*%
X170180000Y-93980000D03*
%TO.P,U4,13*%
%TO.N,/D2*%
X172720000Y-93980000D03*
%TO.P,U4,14*%
%TO.N,GND*%
X175260000Y-93980000D03*
%TO.P,U4,15*%
%TO.N,/D3*%
X175260000Y-78740000D03*
%TO.P,U4,16*%
%TO.N,/D4*%
X172720000Y-78740000D03*
%TO.P,U4,17*%
%TO.N,/D5*%
X170180000Y-78740000D03*
%TO.P,U4,18*%
%TO.N,/D6*%
X167640000Y-78740000D03*
%TO.P,U4,19*%
%TO.N,/D7*%
X165100000Y-78740000D03*
%TO.P,U4,20*%
%TO.N,/~ROM_CS*%
X162560000Y-78740000D03*
%TO.P,U4,21*%
%TO.N,/A10*%
X160020000Y-78740000D03*
%TO.P,U4,22*%
%TO.N,/~MEMR*%
X157480000Y-78740000D03*
%TO.P,U4,23*%
%TO.N,/A11*%
X154940000Y-78740000D03*
%TO.P,U4,24*%
%TO.N,/A9*%
X152400000Y-78740000D03*
%TO.P,U4,25*%
%TO.N,/A8*%
X149860000Y-78740000D03*
%TO.P,U4,26*%
%TO.N,Net-(U4-Pad26)*%
X147320000Y-78740000D03*
%TO.P,U4,27*%
%TO.N,/~ROMW*%
X144780000Y-78740000D03*
%TO.P,U4,28*%
%TO.N,VCC*%
X142240000Y-78740000D03*
%TD*%
%TO.P,C17,1*%
%TO.N,Net-(C17-Pad1)*%
X137160000Y-65405000D03*
%TO.P,C17,2*%
%TO.N,Net-(C17-Pad2)*%
X137160000Y-70485000D03*
%TD*%
D19*
%TO.P,U1,1*%
%TO.N,/WP*%
X106680000Y-81280000D03*
D18*
%TO.P,U1,2*%
%TO.N,/TRK00*%
X109220000Y-81280000D03*
%TO.P,U1,3*%
%TO.N,/~DACK*%
X106680000Y-83820000D03*
%TO.P,U1,4*%
%TO.N,/~IOR*%
X109220000Y-83820000D03*
%TO.P,U1,5*%
%TO.N,/~IOW*%
X106680000Y-86360000D03*
%TO.P,U1,6*%
%TO.N,/~FDC_CS*%
X109220000Y-86360000D03*
%TO.P,U1,7*%
%TO.N,/A0*%
X106680000Y-88900000D03*
%TO.P,U1,8*%
%TO.N,/A1*%
X109220000Y-88900000D03*
%TO.P,U1,9*%
%TO.N,GND*%
X106680000Y-91440000D03*
%TO.P,U1,10*%
%TO.N,/A2*%
X109220000Y-93980000D03*
%TO.P,U1,11*%
%TO.N,/D0*%
X109220000Y-91440000D03*
%TO.P,U1,12*%
%TO.N,GND*%
X111760000Y-93980000D03*
%TO.P,U1,13*%
%TO.N,/D1*%
X111760000Y-91440000D03*
%TO.P,U1,14*%
%TO.N,/D2*%
X114300000Y-93980000D03*
%TO.P,U1,15*%
%TO.N,/D3*%
X114300000Y-91440000D03*
%TO.P,U1,16*%
%TO.N,GND*%
X116840000Y-93980000D03*
%TO.P,U1,17*%
%TO.N,/D4*%
X116840000Y-91440000D03*
%TO.P,U1,18*%
%TO.N,VCC*%
X119380000Y-93980000D03*
%TO.P,U1,19*%
%TO.N,/D5*%
X119380000Y-91440000D03*
%TO.P,U1,20*%
%TO.N,/D6*%
X121920000Y-93980000D03*
%TO.P,U1,21*%
%TO.N,GND*%
X121920000Y-91440000D03*
%TO.P,U1,22*%
%TO.N,/D7*%
X124460000Y-93980000D03*
%TO.P,U1,23*%
%TO.N,/FDC_IRQ*%
X124460000Y-91440000D03*
%TO.P,U1,24*%
%TO.N,/DRQ*%
X127000000Y-93980000D03*
%TO.P,U1,25*%
%TO.N,/TC*%
X127000000Y-91440000D03*
%TO.P,U1,26*%
%TO.N,/INDEX*%
X129540000Y-93980000D03*
%TO.P,U1,27*%
%TO.N,VCC*%
X132080000Y-91440000D03*
%TO.P,U1,28*%
%TO.N,/DRATE0*%
X129540000Y-91440000D03*
%TO.P,U1,29*%
%TO.N,Net-(U1-Pad29)*%
X132080000Y-88900000D03*
%TO.P,U1,30*%
%TO.N,GND*%
X129540000Y-88900000D03*
%TO.P,U1,31*%
%TO.N,/DSKCG*%
X132080000Y-86360000D03*
%TO.P,U1,32*%
%TO.N,/RESETDRV*%
X129540000Y-86360000D03*
%TO.P,U1,33*%
%TO.N,Net-(C15-Pad1)*%
X132080000Y-83820000D03*
%TO.P,U1,34*%
%TO.N,Net-(C16-Pad1)*%
X129540000Y-83820000D03*
%TO.P,U1,35*%
%TO.N,GND*%
X132080000Y-81280000D03*
%TO.P,U1,36*%
X129540000Y-81280000D03*
%TO.P,U1,37*%
%TO.N,Net-(C17-Pad2)*%
X132080000Y-78740000D03*
%TO.P,U1,38*%
%TO.N,Net-(C17-Pad1)*%
X129540000Y-78740000D03*
%TO.P,U1,39*%
%TO.N,VCC*%
X132080000Y-76200000D03*
%TO.P,U1,40*%
X129540000Y-76200000D03*
%TO.P,U1,41*%
%TO.N,/RDATA*%
X132080000Y-73660000D03*
%TO.P,U1,42*%
%TO.N,Net-(U1-Pad42)*%
X129540000Y-73660000D03*
%TO.P,U1,43*%
%TO.N,Net-(U1-Pad43)*%
X132080000Y-71120000D03*
%TO.P,U1,44*%
%TO.N,Net-(U1-Pad44)*%
X129540000Y-68580000D03*
%TO.P,U1,45*%
%TO.N,GND*%
X129540000Y-71120000D03*
%TO.P,U1,46*%
%TO.N,VCC*%
X127000000Y-68580000D03*
%TO.P,U1,47*%
%TO.N,Net-(U1-Pad47)*%
X127000000Y-71120000D03*
%TO.P,U1,48*%
%TO.N,Net-(U1-Pad48)*%
X124460000Y-68580000D03*
%TO.P,U1,49*%
%TO.N,/DENSL*%
X124460000Y-71120000D03*
%TO.P,U1,50*%
%TO.N,GND*%
X121920000Y-68580000D03*
%TO.P,U1,51*%
%TO.N,/HDSEL*%
X121920000Y-71120000D03*
%TO.P,U1,52*%
%TO.N,/WE*%
X119380000Y-68580000D03*
%TO.P,U1,53*%
%TO.N,/WDATA*%
X119380000Y-71120000D03*
%TO.P,U1,54*%
%TO.N,GND*%
X116840000Y-68580000D03*
%TO.P,U1,55*%
%TO.N,/STEP*%
X116840000Y-71120000D03*
%TO.P,U1,56*%
%TO.N,/DIR*%
X114300000Y-68580000D03*
%TO.P,U1,57*%
%TO.N,/MEA*%
X114300000Y-71120000D03*
%TO.P,U1,58*%
%TO.N,/DSA*%
X111760000Y-68580000D03*
%TO.P,U1,59*%
%TO.N,GND*%
X111760000Y-71120000D03*
%TO.P,U1,60*%
%TO.N,VCC*%
X109220000Y-68580000D03*
%TO.P,U1,61*%
%TO.N,/MEB*%
X106680000Y-71120000D03*
%TO.P,U1,62*%
%TO.N,/DSB*%
X109220000Y-71120000D03*
%TO.P,U1,63*%
%TO.N,/ME2*%
X106680000Y-73660000D03*
%TO.P,U1,64*%
%TO.N,/DS2*%
X109220000Y-73660000D03*
%TO.P,U1,65*%
%TO.N,GND*%
X106680000Y-76200000D03*
%TO.P,U1,66*%
%TO.N,/ME3*%
X109220000Y-76200000D03*
%TO.P,U1,67*%
%TO.N,/DS3*%
X106680000Y-78740000D03*
%TO.P,U1,68*%
%TO.N,VCC*%
X109220000Y-78740000D03*
%TD*%
D14*
%TO.P,P1,1*%
%TO.N,GND*%
X106670000Y-56840000D03*
D13*
%TO.P,P1,2*%
%TO.N,/DENSL*%
X106670000Y-54300000D03*
%TO.P,P1,3*%
%TO.N,GND*%
X109210000Y-56840000D03*
%TO.P,P1,4*%
%TO.N,Net-(P1-Pad4)*%
X109210000Y-54300000D03*
%TO.P,P1,5*%
%TO.N,GND*%
X111750000Y-56840000D03*
%TO.P,P1,6*%
%TO.N,/DRATE0*%
X111750000Y-54300000D03*
%TO.P,P1,7*%
%TO.N,GND*%
X114290000Y-56840000D03*
%TO.P,P1,8*%
%TO.N,/INDEX*%
X114290000Y-54300000D03*
%TO.P,P1,9*%
%TO.N,Net-(P1-Pad9)*%
X116830000Y-56840000D03*
%TO.P,P1,10*%
%TO.N,/MEA*%
X116830000Y-54300000D03*
%TO.P,P1,11*%
%TO.N,GND*%
X119370000Y-56840000D03*
%TO.P,P1,12*%
%TO.N,/DSB*%
X119370000Y-54300000D03*
%TO.P,P1,13*%
%TO.N,GND*%
X121910000Y-56840000D03*
%TO.P,P1,14*%
%TO.N,/DSA*%
X121910000Y-54300000D03*
%TO.P,P1,15*%
%TO.N,GND*%
X124450000Y-56840000D03*
%TO.P,P1,16*%
%TO.N,/MEB*%
X124450000Y-54300000D03*
%TO.P,P1,17*%
%TO.N,Net-(P1-Pad17)*%
X126990000Y-56840000D03*
%TO.P,P1,18*%
%TO.N,/DIR*%
X126990000Y-54300000D03*
%TO.P,P1,19*%
%TO.N,GND*%
X129530000Y-56840000D03*
%TO.P,P1,20*%
%TO.N,/STEP*%
X129530000Y-54300000D03*
%TO.P,P1,21*%
%TO.N,GND*%
X132070000Y-56840000D03*
%TO.P,P1,22*%
%TO.N,/WDATA*%
X132070000Y-54300000D03*
%TO.P,P1,23*%
%TO.N,GND*%
X134610000Y-56840000D03*
%TO.P,P1,24*%
%TO.N,/WE*%
X134610000Y-54300000D03*
%TO.P,P1,25*%
%TO.N,GND*%
X137150000Y-56840000D03*
%TO.P,P1,26*%
%TO.N,/TRK00*%
X137150000Y-54300000D03*
%TO.P,P1,28*%
%TO.N,/WP*%
X139690000Y-54300000D03*
%TO.P,P1,27*%
%TO.N,Net-(P1-Pad27)*%
X139690000Y-56840000D03*
%TO.P,P1,30*%
%TO.N,/RDATA*%
X142230000Y-54300000D03*
%TO.P,P1,29*%
%TO.N,GND*%
X142230000Y-56840000D03*
%TO.P,P1,31*%
X144770000Y-56840000D03*
%TO.P,P1,32*%
%TO.N,/HDSEL*%
X144770000Y-54300000D03*
%TO.P,P1,33*%
%TO.N,Net-(P1-Pad33)*%
X147310000Y-56840000D03*
%TO.P,P1,34*%
%TO.N,/DSKCG*%
X147310000Y-54300000D03*
%TD*%
D19*
%TO.P,RR1,1*%
%TO.N,VCC*%
X157480000Y-109220000D03*
D18*
%TO.P,RR1,2*%
%TO.N,/~ROM_CS*%
X160020000Y-109220000D03*
%TO.P,RR1,3*%
%TO.N,/~ROMW*%
X162560000Y-109220000D03*
%TO.P,RR1,4*%
%TO.N,Net-(RR1-Pad4)*%
X165100000Y-109220000D03*
%TO.P,RR1,5*%
%TO.N,Net-(RR1-Pad5)*%
X167640000Y-109220000D03*
%TO.P,RR1,6*%
%TO.N,Net-(RR1-Pad6)*%
X170180000Y-109220000D03*
%TO.P,RR1,7*%
%TO.N,Net-(RR1-Pad7)*%
X172720000Y-109220000D03*
%TO.P,RR1,8*%
%TO.N,Net-(RR1-Pad8)*%
X175260000Y-109220000D03*
%TO.P,RR1,9*%
%TO.N,Net-(RR1-Pad9)*%
X177800000Y-109220000D03*
%TO.P,RR1,10*%
%TO.N,/RDY/~BUSY*%
X180340000Y-109220000D03*
%TD*%
%TO.P,RR2,6*%
%TO.N,/DSKCG*%
X144780000Y-62865000D03*
%TO.P,RR2,5*%
%TO.N,/RDATA*%
X142240000Y-62865000D03*
%TO.P,RR2,4*%
%TO.N,/WP*%
X139700000Y-62865000D03*
%TO.P,RR2,3*%
%TO.N,/TRK00*%
X137160000Y-62865000D03*
%TO.P,RR2,2*%
%TO.N,/INDEX*%
X134620000Y-62865000D03*
D19*
%TO.P,RR2,1*%
%TO.N,VCC*%
X132080000Y-62865000D03*
%TD*%
D18*
%TO.P,X1,1*%
%TO.N,Net-(C15-Pad1)*%
X147220940Y-74295000D03*
%TO.P,X1,2*%
%TO.N,Net-(C16-Pad1)*%
X142339060Y-74295000D03*
%TD*%
D21*
%TO.N,/A10*%
X142240000Y-83820000D03*
%TO.N,/A11*%
X143510000Y-82550000D03*
%TO.N,/A13*%
X148590000Y-110490000D03*
%TO.N,/A14*%
X153700000Y-106170000D03*
%TO.N,/A15*%
X154460000Y-115920000D03*
X180340000Y-114300000D03*
%TO.N,/A16*%
X159385000Y-116840000D03*
X175260000Y-116840000D03*
%TO.N,/A17*%
X157535897Y-120541466D03*
%TO.N,/A18*%
X158823920Y-120581218D03*
%TO.N,/A3*%
X114080000Y-115150000D03*
X109300000Y-115120000D03*
X112310000Y-101910000D03*
%TO.N,/A4*%
X123790000Y-100730000D03*
%TO.N,/A5*%
X125070000Y-100470000D03*
X116877000Y-121568000D03*
X115174033Y-120754763D03*
%TO.N,/A6*%
X135970000Y-101600000D03*
%TO.N,/A7*%
X135360000Y-98120000D03*
X109297000Y-121908000D03*
X119771460Y-122788958D03*
X120343930Y-124551553D03*
X117861000Y-124056000D03*
X112895000Y-122895000D03*
X116000009Y-124055000D03*
%TO.N,/A8*%
X152400000Y-114935000D03*
X137322500Y-115887500D03*
X123577340Y-124089000D03*
%TO.N,/A9*%
X141605000Y-82550000D03*
%TO.N,/AEN*%
X161290000Y-115570000D03*
%TO.N,/D4*%
X172720000Y-82550000D03*
%TO.N,/D5*%
X169545000Y-84455000D03*
%TO.N,/D6*%
X166370000Y-86995000D03*
%TO.N,/D7*%
X163830000Y-86995000D03*
%TO.N,/DENSL*%
X102500000Y-56750000D03*
X183630000Y-56560000D03*
X121505000Y-74075000D03*
X124810000Y-77380000D03*
X174874499Y-56115501D03*
X153353622Y-61053622D03*
%TO.N,/DIR*%
X127000000Y-51310000D03*
X143412831Y-52017340D03*
%TO.N,/DRQ2*%
X157520000Y-104470000D03*
X157320000Y-99070000D03*
%TO.N,/DSKCG*%
X185875000Y-102545000D03*
%TO.N,/HDSEL*%
X184810000Y-92080000D03*
X139650000Y-69000000D03*
X140670000Y-65780000D03*
X138575000Y-64135000D03*
%TO.N,/INDEX*%
X178880000Y-73860000D03*
X123270000Y-81230000D03*
X128905000Y-66040000D03*
X132882500Y-64602500D03*
X136880000Y-68520000D03*
X183450151Y-61649849D03*
X179760000Y-71260000D03*
%TO.N,/IRQ3*%
X110490000Y-116840000D03*
%TO.N,/IRQ4*%
X113030000Y-116840000D03*
%TO.N,/IRQ5*%
X118110000Y-116350000D03*
%TO.N,/IRQ6*%
X120270000Y-116350000D03*
%TO.N,/IRQ7*%
X121520000Y-116300000D03*
%TO.N,/RDATA*%
X191180000Y-58880000D03*
X200850000Y-110871000D03*
%TO.N,/RDY/~BUSY*%
X163880000Y-92140000D03*
%TO.N,/RESETDRV*%
X149225000Y-69850000D03*
%TO.N,/STEP*%
X129432361Y-50867314D03*
X145203627Y-52017340D03*
%TO.N,/TC*%
X105410000Y-121920000D03*
%TO.N,/TRK00*%
X191810000Y-61540000D03*
X111590000Y-76200000D03*
X194260000Y-72820000D03*
%TO.N,/WDATA*%
X146260000Y-62770000D03*
X129747500Y-60117500D03*
X184260151Y-81830151D03*
%TO.N,/WP*%
X195360000Y-51500000D03*
%TO.N,/~DACK2*%
X103790000Y-50950000D03*
X154910000Y-57320000D03*
X153270000Y-48400000D03*
X101780000Y-84030000D03*
X105410000Y-120650000D03*
X140850000Y-84180000D03*
X140530000Y-73340000D03*
X140530000Y-70030000D03*
X145040000Y-66800000D03*
X148510000Y-64090000D03*
X100665000Y-49825000D03*
%TO.N,/~FDC_CS*%
X114200000Y-100980000D03*
X119480000Y-100670000D03*
%TO.N,/~IOR*%
X133985000Y-92710000D03*
X131580744Y-119296787D03*
%TO.N,/~IOW*%
X134380000Y-109700000D03*
X132723755Y-119296787D03*
%TO.N,/~MEMR*%
X158740000Y-103730000D03*
X161340000Y-102270000D03*
X151974012Y-123888717D03*
%TO.N,/~MEMW*%
X156011000Y-124339000D03*
%TO.N,/~ROMW*%
X154520000Y-105350000D03*
%TO.N,/~ROM_CS*%
X165220000Y-103700000D03*
X160020000Y-103505000D03*
%TO.N,GND*%
X124250000Y-114620000D03*
X191870000Y-125140000D03*
X190500000Y-125730000D03*
X102870000Y-124460000D03*
X151080000Y-60005000D03*
X102470000Y-49910000D03*
X153670000Y-77470000D03*
X152390000Y-58670000D03*
X153670000Y-85725000D03*
X154940000Y-85725000D03*
X130810000Y-114935000D03*
X121920000Y-86677500D03*
X189550000Y-110690000D03*
X167640000Y-116840000D03*
X103930000Y-48450000D03*
X179070000Y-100330000D03*
X190510000Y-111850000D03*
X114300000Y-86360000D03*
X153670000Y-72390000D03*
X199400000Y-49660000D03*
X152400000Y-85725000D03*
X124460000Y-74930000D03*
X201670000Y-49680000D03*
X149810000Y-58735000D03*
X116840000Y-73660000D03*
X127317500Y-81280000D03*
X102500000Y-81290000D03*
X197280000Y-49630000D03*
X123507500Y-85090000D03*
X104970000Y-82190000D03*
X156620000Y-103590000D03*
X190840000Y-115360000D03*
%TO.N,VCC*%
X141660000Y-80990000D03*
X126340000Y-113920000D03*
X105410000Y-115570000D03*
X147320000Y-113665000D03*
X125760000Y-78640000D03*
X118110000Y-100330000D03*
X118110000Y-105410000D03*
X134935000Y-113345000D03*
X152970000Y-63040000D03*
X190560000Y-121000000D03*
X189140000Y-114340000D03*
%TO.N,/DRATE0*%
X143470000Y-80290000D03*
X156260000Y-71090000D03*
X183385000Y-59175000D03*
%TO.N,/ME2*%
X104296109Y-55865517D03*
%TO.N,/DS3*%
X102360000Y-54910000D03*
%TO.N,/DS2*%
X105690000Y-72370000D03*
X105169407Y-54847075D03*
%TO.N,/ME3*%
X193410000Y-66650000D03*
X193410000Y-68970000D03*
X103155449Y-55792231D03*
%TO.N,/0x370*%
X124530000Y-109900000D03*
%TO.N,/0x3F0*%
X129130000Y-112330000D03*
%TO.N,/FDC_IRQ*%
X118090000Y-95000000D03*
X120640000Y-94940000D03*
%TO.N,Net-(U6-Pad7)*%
X123974420Y-122307340D03*
X136559890Y-120679440D03*
%TO.N,/~DACK3*%
X155990000Y-117810000D03*
X155830000Y-108250000D03*
X137540000Y-110010000D03*
X143524000Y-124706000D03*
X147977970Y-123266243D03*
%TO.N,/DRQ3*%
X142318000Y-124115000D03*
X154800000Y-117790000D03*
X154910000Y-109430000D03*
X149970000Y-109540000D03*
X149205154Y-122194435D03*
%TO.N,/DRQ*%
X149660000Y-104810000D03*
X126710000Y-104640000D03*
%TO.N,/~DACK*%
X115680000Y-104780000D03*
X141230000Y-109520000D03*
X144440000Y-105180000D03*
%TO.N,/GT2*%
X134530000Y-100340000D03*
X129530000Y-98770000D03*
%TO.N,/GT3*%
X131450000Y-110040000D03*
%TD*%
D22*
%TO.N,/A0*%
X165100000Y-94615000D02*
X165100000Y-93980000D01*
X158132349Y-102622349D02*
X157032349Y-102622349D01*
X158237349Y-102517349D02*
X158132349Y-102622349D01*
X157362349Y-102622349D02*
X157032349Y-102622349D01*
X163696651Y-95383349D02*
X163696651Y-101523349D01*
X165100000Y-93980000D02*
X163696651Y-95383349D01*
X158967349Y-101387349D02*
X158237349Y-102117349D01*
X163560651Y-101387349D02*
X158967349Y-101387349D01*
X163696651Y-101523349D02*
X163560651Y-101387349D01*
X158237349Y-102117349D02*
X158237349Y-102517349D01*
X151196582Y-103641550D02*
X148301226Y-103641550D01*
X152215783Y-102622349D02*
X151196582Y-103641550D01*
X157032349Y-102622349D02*
X152215783Y-102622349D01*
X141411550Y-103641550D02*
X140551550Y-103641550D01*
X148301226Y-103641550D02*
X141411550Y-103641550D01*
X107315000Y-93980000D02*
X105410000Y-92075000D01*
X107315000Y-100330000D02*
X107315000Y-93980000D01*
X112345000Y-103505000D02*
X110490000Y-103505000D01*
X112435039Y-103414961D02*
X112345000Y-103505000D01*
X112991442Y-103414961D02*
X112435039Y-103414961D01*
X129381271Y-108281193D02*
X129381271Y-105453594D01*
X120394620Y-103154620D02*
X113251782Y-103154620D01*
X120881550Y-103641550D02*
X120394620Y-103154620D01*
X105410000Y-90170000D02*
X106680000Y-88900000D01*
X127394014Y-104017690D02*
X127017874Y-103641550D01*
X135440382Y-105049539D02*
X134746801Y-105743120D01*
X138540461Y-105049539D02*
X135440382Y-105049539D01*
X130332876Y-108870721D02*
X129970799Y-108870721D01*
X133465829Y-107547690D02*
X132503519Y-108510000D01*
X132151442Y-108415039D02*
X130788558Y-108415039D01*
X105410000Y-92075000D02*
X105410000Y-90170000D01*
X113251782Y-103154620D02*
X112991442Y-103414961D01*
X129381271Y-105453594D02*
X127945367Y-104017690D01*
X132503519Y-108510000D02*
X132246403Y-108510000D01*
X134746801Y-107310718D02*
X134509829Y-107547690D01*
X134509829Y-107547690D02*
X133465829Y-107547690D01*
X134746801Y-105743120D02*
X134746801Y-107310718D01*
X110490000Y-103505000D02*
X107315000Y-100330000D01*
X127945367Y-104017690D02*
X127394014Y-104017690D01*
X139948450Y-103641550D02*
X138540461Y-105049539D01*
X127017874Y-103641550D02*
X120881550Y-103641550D01*
X130788558Y-108415039D02*
X130332876Y-108870721D01*
X132246403Y-108510000D02*
X132151442Y-108415039D01*
X141411550Y-103641550D02*
X139948450Y-103641550D01*
X132503519Y-108510000D02*
X132449921Y-108510000D01*
X129970799Y-108870721D02*
X129381271Y-108281193D01*
%TO.N,/A1*%
X109220000Y-88900000D02*
X109220000Y-89535000D01*
X107950000Y-90805000D02*
X107950000Y-99695000D01*
X107950000Y-99377500D02*
X107950000Y-99695000D01*
X109220000Y-89535000D02*
X107950000Y-90805000D01*
X111047651Y-102792651D02*
X107950000Y-99695000D01*
X120682232Y-102532310D02*
X112994014Y-102532310D01*
X121169161Y-103019239D02*
X120682232Y-102532310D01*
X127275641Y-103019239D02*
X121169161Y-103019239D01*
X127651782Y-103395380D02*
X127275641Y-103019239D01*
X128573056Y-103765301D02*
X128203135Y-103395380D01*
X131505301Y-103765301D02*
X128573056Y-103765301D01*
X132167229Y-104427229D02*
X131505301Y-103765301D01*
X139690682Y-103019240D02*
X138282693Y-104427229D01*
X128203135Y-103395380D02*
X127651782Y-103395380D01*
X151958014Y-102000039D02*
X150938813Y-103019240D01*
X157615039Y-101984961D02*
X157599961Y-102000039D01*
X157599961Y-102000039D02*
X151958014Y-102000039D01*
X157615039Y-101859580D02*
X157615039Y-101984961D01*
X150938813Y-103019240D02*
X139690682Y-103019240D01*
X162560000Y-93980000D02*
X161423349Y-95116651D01*
X112733673Y-102792651D02*
X111047651Y-102792651D01*
X138282693Y-104427229D02*
X132167229Y-104427229D01*
X161423349Y-99726651D02*
X160384961Y-100765039D01*
X112994014Y-102532310D02*
X112733673Y-102792651D01*
X158709580Y-100765039D02*
X157615039Y-101859580D01*
X160384961Y-100765039D02*
X158709580Y-100765039D01*
X161423349Y-95116651D02*
X161423349Y-99726651D01*
%TO.N,/A10*%
X160020000Y-78740000D02*
X156210000Y-82550000D01*
X144145000Y-83820000D02*
X142240000Y-83820000D01*
X145415000Y-82550000D02*
X156210000Y-82550000D01*
X144145000Y-83820000D02*
X145415000Y-82550000D01*
%TO.N,/A11*%
X143510000Y-82544920D02*
X144139920Y-81915000D01*
X154940000Y-78740000D02*
X151765000Y-81915000D01*
X144139920Y-81915000D02*
X151765000Y-81915000D01*
X143510000Y-82550000D02*
X143510000Y-82544920D01*
%TO.N,/A13*%
X171450000Y-110490000D02*
X148590000Y-110490000D01*
X172720000Y-111760000D02*
X171450000Y-110490000D01*
%TO.N,/A14*%
X176530000Y-108585000D02*
X175895000Y-107950000D01*
X176530000Y-110490000D02*
X176530000Y-108585000D01*
X177800000Y-111760000D02*
X176530000Y-110490000D01*
X175895000Y-107950000D02*
X158750000Y-107950000D01*
X158750000Y-107950000D02*
X157370000Y-106570000D01*
X154100000Y-106570000D02*
X153700000Y-106170000D01*
X157370000Y-106570000D02*
X154100000Y-106570000D01*
%TO.N,/A15*%
X154460000Y-114400000D02*
X154460000Y-115920000D01*
X154560000Y-114300000D02*
X154460000Y-114400000D01*
X180340000Y-114300000D02*
X154560000Y-114300000D01*
%TO.N,/A16*%
X161925000Y-116840000D02*
X163195000Y-115570000D01*
X173990000Y-115570000D02*
X175260000Y-116840000D01*
X163195000Y-115570000D02*
X173990000Y-115570000D01*
X159385000Y-116840000D02*
X161925000Y-116840000D01*
%TO.N,/A17*%
X172720000Y-119380000D02*
X169862500Y-122237500D01*
X169862500Y-122237500D02*
X159231931Y-122237500D01*
X159231931Y-122237500D02*
X157535897Y-120541466D01*
%TO.N,/A18*%
X166438782Y-120581218D02*
X158823920Y-120581218D01*
X167640000Y-119380000D02*
X166438782Y-120581218D01*
%TO.N,/A2*%
X130937637Y-97784920D02*
X111754920Y-97784920D01*
X146183349Y-94258895D02*
X143705015Y-96737229D01*
X131567557Y-97155000D02*
X130937637Y-97784920D01*
X146050000Y-96590000D02*
X146183349Y-96456651D01*
X143705015Y-96737229D02*
X138742692Y-96737229D01*
X109220000Y-95250000D02*
X109220000Y-93980000D01*
X138324922Y-97155000D02*
X131567557Y-97155000D01*
X111754920Y-97784920D02*
X109220000Y-95250000D01*
X146183349Y-96456651D02*
X146183349Y-94258895D01*
X146685000Y-92710000D02*
X146050000Y-93345000D01*
X160020000Y-93980000D02*
X158750000Y-92710000D01*
X138742692Y-96737229D02*
X138324922Y-97155000D01*
X158750000Y-92710000D02*
X146685000Y-92710000D01*
X146050000Y-93345000D02*
X146050000Y-96590000D01*
%TO.N,/A3*%
X120940000Y-101910000D02*
X120950000Y-101900000D01*
X112310000Y-101910000D02*
X120940000Y-101910000D01*
X109330000Y-115150000D02*
X109300000Y-115120000D01*
X114080000Y-115150000D02*
X109330000Y-115150000D01*
X121426930Y-102396930D02*
X120940000Y-101910000D01*
X156992729Y-101377271D02*
X156992271Y-101377729D01*
X128830824Y-103142991D02*
X128460904Y-102773070D01*
X129877009Y-103142991D02*
X128830824Y-103142991D01*
X129877009Y-103142991D02*
X129472832Y-103142991D01*
X127909550Y-102773070D02*
X127533410Y-102396930D01*
X128460904Y-102773070D02*
X127909550Y-102773070D01*
X127533410Y-102396930D02*
X126036930Y-102396930D01*
X126036930Y-102396930D02*
X127582992Y-102396929D01*
X121426930Y-102396930D02*
X126036930Y-102396930D01*
X131522991Y-103142991D02*
X129877009Y-103142991D01*
X158457842Y-100136698D02*
X157216811Y-101377729D01*
X132424997Y-103804919D02*
X131763069Y-103142991D01*
X158883349Y-95383349D02*
X158883349Y-100113349D01*
X138024924Y-103804919D02*
X132424997Y-103804919D01*
X139432913Y-102396930D02*
X138024924Y-103804919D01*
X157216811Y-101377729D02*
X151700245Y-101377730D01*
X151700245Y-101377730D02*
X150681045Y-102396930D01*
X131763069Y-103142991D02*
X131522991Y-103142991D01*
X150681045Y-102396930D02*
X139432913Y-102396930D01*
X158883349Y-100113349D02*
X158860000Y-100136698D01*
X158860000Y-100136698D02*
X158457842Y-100136698D01*
X157480000Y-93980000D02*
X158883349Y-95383349D01*
%TO.N,/A4*%
X147527922Y-101774619D02*
X146014619Y-101774619D01*
X156705038Y-100754962D02*
X156704581Y-100755419D01*
X158200073Y-99514388D02*
X156959499Y-100754962D01*
X158261039Y-95641117D02*
X158261039Y-99514388D01*
X157180000Y-95620000D02*
X157200000Y-95600000D01*
X158261039Y-99514388D02*
X158200073Y-99514388D01*
X156580000Y-95620000D02*
X157180000Y-95620000D01*
X157200000Y-95600000D02*
X158219922Y-95600000D01*
X158219922Y-95600000D02*
X158261039Y-95641117D01*
X156959499Y-100754962D02*
X156705038Y-100754962D01*
X154940000Y-93980000D02*
X156580000Y-95620000D01*
X156704581Y-100755419D02*
X151904581Y-100755419D01*
X150423276Y-101774619D02*
X146724619Y-101774619D01*
X151904581Y-100755419D02*
X151442478Y-100755419D01*
X151442478Y-100755419D02*
X150423276Y-101774619D01*
X146724619Y-101774619D02*
X146014619Y-101774619D01*
X147527923Y-101774619D02*
X146724619Y-101774619D01*
X124834620Y-101774620D02*
X123790000Y-100730000D01*
X129088594Y-102520681D02*
X128718673Y-102150760D01*
X128210760Y-102150760D02*
X128205301Y-102145301D01*
X128718673Y-102150760D02*
X128210760Y-102150760D01*
X127840760Y-101774620D02*
X124834620Y-101774620D01*
X128205301Y-102139161D02*
X127840760Y-101774620D01*
X132020837Y-102520681D02*
X129088594Y-102520681D01*
X146014619Y-101774619D02*
X139175144Y-101774620D01*
X132682765Y-103182609D02*
X132020837Y-102520681D01*
X137767156Y-103182609D02*
X132682765Y-103182609D01*
X128205301Y-102145301D02*
X128205301Y-102139161D01*
X139175144Y-101774620D02*
X137767156Y-103182609D01*
%TO.N,/A5*%
X152400000Y-95800000D02*
X152400000Y-93980000D01*
X152400000Y-95800000D02*
X150881849Y-97318151D01*
X150027690Y-101152310D02*
X138917373Y-101152311D01*
X150108151Y-101071849D02*
X150027690Y-101152310D01*
X138917373Y-101152311D02*
X138188294Y-101881393D01*
X149550154Y-101152310D02*
X138917373Y-101152311D01*
X150881849Y-100298151D02*
X150655000Y-100525000D01*
X150881849Y-97318151D02*
X150881849Y-100298151D01*
X150655000Y-100525000D02*
X150818151Y-100361849D01*
X150108151Y-101071849D02*
X150655000Y-100525000D01*
X125552310Y-100952310D02*
X125070000Y-100470000D01*
X128098529Y-101152310D02*
X125552310Y-101152310D01*
X125552310Y-101152310D02*
X125552310Y-100952310D01*
X128474669Y-101528450D02*
X128098529Y-101152310D01*
X129340983Y-101892991D02*
X128976442Y-101528450D01*
X129362991Y-101892991D02*
X129340983Y-101892991D01*
X128976442Y-101528450D02*
X128474669Y-101528450D01*
X129368371Y-101898371D02*
X129362991Y-101892991D01*
X132940533Y-102560299D02*
X132278605Y-101898371D01*
X138170000Y-101899687D02*
X137509388Y-102560299D01*
X132278605Y-101898371D02*
X129368371Y-101898371D01*
X138917373Y-101152311D02*
X138170000Y-101899684D01*
X137509388Y-102560299D02*
X132940533Y-102560299D01*
X138170000Y-101899684D02*
X138170000Y-101899687D01*
X116877000Y-121568000D02*
X115987270Y-121568000D01*
X115987270Y-121568000D02*
X115174033Y-120754763D01*
%TO.N,/A6*%
X145010000Y-100530000D02*
X144988151Y-100508151D01*
X149860000Y-93980000D02*
X149783676Y-93980000D01*
X149860000Y-96230000D02*
X149860000Y-93980000D01*
X145010000Y-100530000D02*
X147580000Y-100530000D01*
X148278151Y-99831849D02*
X147580000Y-100530000D01*
X148278151Y-97811849D02*
X148278151Y-99831849D01*
X149860000Y-96230000D02*
X148278151Y-97811849D01*
X145010000Y-100530000D02*
X140319999Y-100530001D01*
X140319999Y-100530001D02*
X138592792Y-100530001D01*
X138469999Y-100530001D02*
X137400000Y-101600000D01*
X137400000Y-101600000D02*
X135910000Y-101600000D01*
X140319999Y-100530001D02*
X138469999Y-100530001D01*
%TO.N,/A7*%
X136680000Y-97790000D02*
X136525000Y-97790000D01*
X136692690Y-97777310D02*
X136680000Y-97790000D01*
X137672846Y-97777310D02*
X136692690Y-97777310D01*
X135702690Y-97777310D02*
X135360000Y-98120000D01*
X136692690Y-97777310D02*
X135702690Y-97777310D01*
X147320000Y-93980000D02*
X147320000Y-96540000D01*
X147320000Y-96540000D02*
X146500461Y-97359539D01*
X146500461Y-97359539D02*
X139000461Y-97359539D01*
X138582690Y-97777310D02*
X137672846Y-97777310D01*
X139000461Y-97359539D02*
X138582690Y-97777310D01*
X119771460Y-123979083D02*
X119771460Y-122788958D01*
X120343930Y-124551553D02*
X119771460Y-123979083D01*
X112277000Y-122165000D02*
X112895000Y-122783000D01*
X116001009Y-124056000D02*
X116000009Y-124055000D01*
X117861000Y-124056000D02*
X116001009Y-124056000D01*
X112020000Y-121908000D02*
X112277000Y-122165000D01*
X109297000Y-121908000D02*
X112020000Y-121908000D01*
%TO.N,/A8*%
X151447500Y-115887500D02*
X152400000Y-114935000D01*
X137322500Y-115887500D02*
X151447500Y-115887500D01*
X117656651Y-120516651D02*
X116192540Y-120516651D01*
X115570000Y-115570000D02*
X116395500Y-114744500D01*
X123577340Y-124089000D02*
X123257908Y-124089000D01*
X115570000Y-119894111D02*
X115570000Y-115570000D01*
X122985500Y-114744500D02*
X124128500Y-115887500D01*
X118423995Y-121283995D02*
X117656651Y-120516651D01*
X123257908Y-124089000D02*
X120452903Y-121283995D01*
X116395500Y-114744500D02*
X122985500Y-114744500D01*
X124128500Y-115887500D02*
X137322500Y-115887500D01*
X120452903Y-121283995D02*
X118423995Y-121283995D01*
X116192540Y-120516651D02*
X115570000Y-119894111D01*
%TO.N,/A9*%
X149860000Y-81280000D02*
X152400000Y-78740000D01*
X142875000Y-81280000D02*
X149860000Y-81280000D01*
X141605000Y-82550000D02*
X142875000Y-81280000D01*
%TO.N,/AEN*%
X116870000Y-115410000D02*
X116840000Y-115440000D01*
X116840000Y-115440000D02*
X116840000Y-118450000D01*
X118882520Y-115412520D02*
X118880000Y-115410000D01*
X116840000Y-118450000D02*
X116840000Y-119380000D01*
X122715020Y-115412520D02*
X118882520Y-115412520D01*
X124142500Y-116840000D02*
X122715020Y-115412520D01*
X118880000Y-115410000D02*
X116870000Y-115410000D01*
X158078676Y-116840000D02*
X124142500Y-116840000D01*
X159348676Y-115570000D02*
X158078676Y-116840000D01*
X161290000Y-115570000D02*
X159348676Y-115570000D01*
%TO.N,/D0*%
X110490000Y-93345000D02*
X109220000Y-92075000D01*
X109220000Y-92075000D02*
X109220000Y-91440000D01*
X131322479Y-96520000D02*
X130687479Y-97155000D01*
X136519920Y-96520000D02*
X131322479Y-96520000D01*
X136522460Y-96517460D02*
X136519920Y-96520000D01*
X140850000Y-96030000D02*
X138569841Y-96030000D01*
X112395000Y-97155000D02*
X110490000Y-95250000D01*
X130687479Y-97155000D02*
X112395000Y-97155000D01*
X140900000Y-95980000D02*
X140850000Y-96030000D01*
X140900000Y-92780000D02*
X140900000Y-95980000D01*
X138082381Y-96517460D02*
X136522460Y-96517460D01*
X142240000Y-91440000D02*
X140900000Y-92780000D01*
X150812500Y-91122500D02*
X150495000Y-91440000D01*
X138569841Y-96030000D02*
X138082381Y-96517460D01*
X110490000Y-95250000D02*
X110490000Y-93345000D01*
X165417500Y-91122500D02*
X150812500Y-91122500D01*
X167640000Y-93345000D02*
X165417500Y-91122500D01*
X167640000Y-93980000D02*
X167640000Y-93345000D01*
X150495000Y-91440000D02*
X142240000Y-91440000D01*
%TO.N,/D1*%
X114935000Y-96520000D02*
X113030000Y-94615000D01*
X137834762Y-95885000D02*
X131077401Y-95885000D01*
X130442401Y-96520000D02*
X114935000Y-96520000D01*
X141605000Y-90805000D02*
X140550000Y-91860000D01*
X150812500Y-89852500D02*
X149860000Y-90805000D01*
X138312072Y-95407690D02*
X137834762Y-95885000D01*
X140142310Y-95407690D02*
X138312072Y-95407690D01*
X140277690Y-95272310D02*
X140142310Y-95407690D01*
X111760000Y-92075000D02*
X111760000Y-91440000D01*
X113030000Y-93345000D02*
X111760000Y-92075000D01*
X131077401Y-95885000D02*
X130442401Y-96520000D01*
X140550000Y-92249921D02*
X140277690Y-92522231D01*
X140277690Y-92522231D02*
X140277690Y-95272310D01*
X113030000Y-94615000D02*
X113030000Y-93345000D01*
X149860000Y-90805000D02*
X141605000Y-90805000D01*
X140550000Y-91860000D02*
X140550000Y-92249921D01*
X170180000Y-93980000D02*
X166052500Y-89852500D01*
X166052500Y-89852500D02*
X150812500Y-89852500D01*
%TO.N,/D2*%
X167640000Y-88900000D02*
X172720000Y-93980000D01*
X150495000Y-88900000D02*
X167640000Y-88900000D01*
X149225000Y-90170000D02*
X150495000Y-88900000D01*
X139655381Y-91874541D02*
X141359922Y-90170000D01*
X138054303Y-94785380D02*
X139644620Y-94785380D01*
X130210013Y-95872310D02*
X130832322Y-95250000D01*
X137589683Y-95250000D02*
X138054303Y-94785380D01*
X130832322Y-95250000D02*
X137589683Y-95250000D01*
X141359922Y-90170000D02*
X149225000Y-90170000D01*
X139655374Y-94774626D02*
X139655381Y-91874541D01*
X128797690Y-95872310D02*
X130210013Y-95872310D01*
X115570000Y-95885000D02*
X128785000Y-95885000D01*
X128785000Y-95885000D02*
X128797690Y-95872310D01*
X114300000Y-94615000D02*
X115570000Y-95885000D01*
X139644620Y-94785380D02*
X139655374Y-94774626D01*
X114300000Y-93980000D02*
X114300000Y-94615000D01*
%TO.N,/D3*%
X175260000Y-78740000D02*
X172720000Y-81280000D01*
X156845000Y-83185000D02*
X146050000Y-83185000D01*
X118110000Y-87630000D02*
X123190000Y-87630000D01*
X128270000Y-82550000D02*
X132715000Y-82550000D01*
X114300000Y-91440000D02*
X118110000Y-87630000D01*
X158750000Y-81280000D02*
X156845000Y-83185000D01*
X172720000Y-81280000D02*
X158750000Y-81280000D01*
X123190000Y-87630000D02*
X128270000Y-82550000D01*
X133216651Y-83051651D02*
X133216651Y-84246651D01*
X132715000Y-82550000D02*
X133216651Y-83051651D01*
X133216651Y-84246651D02*
X134600990Y-85630990D01*
X143604010Y-85630990D02*
X144317500Y-84917500D01*
X134600990Y-85630990D02*
X143604010Y-85630990D01*
X144317500Y-84917500D02*
X144145000Y-85090000D01*
X146050000Y-83185000D02*
X144317500Y-84917500D01*
%TO.N,/D4*%
X125095000Y-88265000D02*
X120015000Y-88265000D01*
X120015000Y-88265000D02*
X116840000Y-91440000D01*
X128270000Y-85090000D02*
X125095000Y-88265000D01*
X132715000Y-85090000D02*
X128270000Y-85090000D01*
X133878300Y-86253300D02*
X132715000Y-85090000D01*
X144780000Y-85850000D02*
X144376700Y-86253300D01*
X146685000Y-83820000D02*
X144780000Y-85725000D01*
X157480000Y-83820000D02*
X146685000Y-83820000D01*
X172085000Y-83185000D02*
X158115000Y-83185000D01*
X144780000Y-85725000D02*
X144780000Y-85850000D01*
X158115000Y-83185000D02*
X157480000Y-83820000D01*
X144376700Y-86253300D02*
X133878300Y-86253300D01*
X172720000Y-82550000D02*
X172085000Y-83185000D01*
%TO.N,/D5*%
X169545000Y-84455000D02*
X147320000Y-84455000D01*
X128270000Y-87630000D02*
X132715000Y-87630000D01*
X119380000Y-91440000D02*
X121920000Y-88900000D01*
X121920000Y-88900000D02*
X127000000Y-88900000D01*
X145415000Y-86360000D02*
X147320000Y-84455000D01*
X127000000Y-88900000D02*
X128270000Y-87630000D01*
X133469390Y-86875610D02*
X132715000Y-87630000D01*
X145415000Y-86585000D02*
X145124390Y-86875610D01*
X145124390Y-86875610D02*
X133469390Y-86875610D01*
X145415000Y-86360000D02*
X145415000Y-86585000D01*
%TO.N,/D6*%
X123190000Y-95250000D02*
X121920000Y-93980000D01*
X129952244Y-95250000D02*
X123190000Y-95250000D01*
X130587244Y-94615000D02*
X129952244Y-95250000D01*
X141114843Y-89535000D02*
X139033072Y-91616772D01*
X137292389Y-94527611D02*
X137205000Y-94615000D01*
X137431993Y-94527611D02*
X137292389Y-94527611D01*
X139033072Y-91616772D02*
X139033067Y-94163070D01*
X137205000Y-94615000D02*
X130587244Y-94615000D01*
X166370000Y-86995000D02*
X165417500Y-87947500D01*
X137796534Y-94163070D02*
X137431993Y-94527611D01*
X148590000Y-89535000D02*
X141114843Y-89535000D01*
X165417500Y-87947500D02*
X150177500Y-87947500D01*
X139033067Y-94163070D02*
X137796534Y-94163070D01*
X150177500Y-87947500D02*
X148590000Y-89535000D01*
%TO.N,/D7*%
X125730000Y-92710000D02*
X124460000Y-93980000D01*
X136680000Y-93980000D02*
X131445000Y-93980000D01*
X131445000Y-93980000D02*
X130175000Y-92710000D01*
X163830000Y-86995000D02*
X149860000Y-86995000D01*
X140869764Y-88900000D02*
X138410763Y-91359003D01*
X138299240Y-93540760D02*
X137119240Y-93540760D01*
X147955000Y-88900000D02*
X140869764Y-88900000D01*
X149860000Y-86995000D02*
X147955000Y-88900000D01*
X130175000Y-92710000D02*
X125730000Y-92710000D01*
X138410763Y-91359003D02*
X138410763Y-93429237D01*
X138410763Y-93429237D02*
X138299240Y-93540760D01*
X137119240Y-93540760D02*
X136680000Y-93980000D01*
%TO.N,/DENSL*%
X133880000Y-79990000D02*
X125170000Y-79990000D01*
X125170000Y-79990000D02*
X124810000Y-79630000D01*
X136614407Y-84956651D02*
X133880000Y-82222244D01*
X137705593Y-84956651D02*
X136614407Y-84956651D01*
X138580000Y-73440000D02*
X138580000Y-84082244D01*
X142083622Y-72323622D02*
X139696378Y-72323622D01*
X139696378Y-72323622D02*
X138580000Y-73440000D01*
X124810000Y-79630000D02*
X124810000Y-77380000D01*
X133880000Y-82222244D02*
X133880000Y-79990000D01*
X138580000Y-84082244D02*
X137705593Y-84956651D01*
X105162349Y-56762651D02*
X105175000Y-56750000D01*
X103983676Y-56750000D02*
X103996327Y-56762651D01*
X103996327Y-56762651D02*
X105162349Y-56762651D01*
X102500000Y-56750000D02*
X103983676Y-56750000D01*
X187670151Y-56569849D02*
X184600151Y-56569849D01*
X189010000Y-55230000D02*
X187670151Y-56569849D01*
X184600151Y-56569849D02*
X183609849Y-56569849D01*
X183185501Y-56115501D02*
X174874499Y-56115501D01*
X183630000Y-56560000D02*
X183185501Y-56115501D01*
X174874499Y-56115501D02*
X174794499Y-56115501D01*
X153353622Y-61053622D02*
X142083622Y-72323622D01*
X106670000Y-55377630D02*
X106407781Y-55639849D01*
X106670000Y-54300000D02*
X106670000Y-55377630D01*
X105557479Y-55639849D02*
X105162349Y-56034979D01*
X106407781Y-55639849D02*
X105557479Y-55639849D01*
X105162349Y-56034979D02*
X105162349Y-56762651D01*
%TO.N,/DIR*%
X127000000Y-54290000D02*
X126990000Y-54300000D01*
X126990000Y-51320000D02*
X127000000Y-51310000D01*
X126990000Y-54300000D02*
X126990000Y-51320000D01*
X177110151Y-76750151D02*
X154010004Y-53650004D01*
X189010000Y-75550000D02*
X187809849Y-76750151D01*
X187809849Y-76750151D02*
X177110151Y-76750151D01*
X154010004Y-53650004D02*
X149349364Y-53650004D01*
X149349364Y-53650004D02*
X148692442Y-52993082D01*
X148692442Y-52993082D02*
X144388573Y-52993082D01*
X144388573Y-52993082D02*
X143412831Y-52017340D01*
%TO.N,/DRQ2*%
X152340000Y-99070000D02*
X152120000Y-99290000D01*
X157320000Y-99070000D02*
X152340000Y-99070000D01*
X161505000Y-104775000D02*
X161492310Y-104787690D01*
X185290000Y-111360000D02*
X178705000Y-104775000D01*
X161492310Y-104787690D02*
X157670000Y-104787690D01*
X178705000Y-104775000D02*
X161505000Y-104775000D01*
X185290000Y-111360000D02*
X186140000Y-111360000D01*
X187855611Y-113075611D02*
X186140000Y-111360000D01*
X192170000Y-119625672D02*
X192170000Y-114183132D01*
X191830672Y-119965000D02*
X192170000Y-119625672D01*
X192170000Y-114183132D02*
X191062479Y-113075611D01*
X189825000Y-119965000D02*
X191830672Y-119965000D01*
X191062479Y-113075611D02*
X187855611Y-113075611D01*
X189825000Y-119965000D02*
X188778000Y-119965000D01*
X188778000Y-119965000D02*
X187688000Y-121055000D01*
X187688000Y-121055000D02*
X172849000Y-121055000D01*
X172849000Y-121055000D02*
X170697000Y-123207000D01*
X170697000Y-123207000D02*
X167634000Y-123207000D01*
X167634000Y-129194000D02*
X167640000Y-129200000D01*
X167634000Y-123207000D02*
X167634000Y-129194000D01*
%TO.N,/DSKCG*%
X189010000Y-95870000D02*
X189010000Y-99410000D01*
X189010000Y-99410000D02*
X185875000Y-102545000D01*
X185875000Y-102545000D02*
X185690000Y-102730000D01*
%TO.N,/HDSEL*%
X139710000Y-66275078D02*
X140205078Y-65780000D01*
X140205078Y-65780000D02*
X140670000Y-65780000D01*
X139710000Y-68940000D02*
X139710000Y-66275078D01*
X139650000Y-69000000D02*
X139710000Y-68940000D01*
X184859849Y-92129849D02*
X184810000Y-92080000D01*
X187809849Y-92129849D02*
X184859849Y-92129849D01*
X189010000Y-93330000D02*
X187809849Y-92129849D01*
%TO.N,/INDEX*%
X132882500Y-64602500D02*
X136800000Y-68520000D01*
X136800000Y-68520000D02*
X136880000Y-68520000D01*
X136880000Y-68520000D02*
X136880000Y-68520000D01*
X123270000Y-77500000D02*
X123270000Y-81230000D01*
X128270000Y-72500000D02*
X123270000Y-77500000D01*
X128270000Y-66675000D02*
X128270000Y-72500000D01*
X128905000Y-66040000D02*
X128270000Y-66675000D01*
X187809849Y-61649849D02*
X183450151Y-61649849D01*
X189010000Y-62850000D02*
X187809849Y-61649849D01*
X183450151Y-61649849D02*
X183450151Y-61649849D01*
X179760000Y-72980000D02*
X178880000Y-73860000D01*
X179760000Y-71260000D02*
X179760000Y-72980000D01*
X196340000Y-79980000D02*
X196430000Y-79890000D01*
%TO.N,/IRQ3*%
X110490000Y-116840000D02*
X110490000Y-119717840D01*
X118888809Y-128708809D02*
X119380000Y-129200000D01*
X110490000Y-119717840D02*
X111435539Y-120663379D01*
X111435539Y-120663379D02*
X112803381Y-120663379D01*
X112803381Y-120663379D02*
X115300002Y-123160000D01*
X118888809Y-123160000D02*
X118888809Y-128708809D01*
X115300002Y-123160000D02*
X118888809Y-123160000D01*
%TO.N,/IRQ4*%
X120195134Y-121906306D02*
X117881996Y-121906306D01*
X121920000Y-123631172D02*
X120195134Y-121906306D01*
X117337651Y-122450651D02*
X115621651Y-122450651D01*
X115621651Y-122450651D02*
X113030000Y-119859000D01*
X117881996Y-121906306D02*
X117337651Y-122450651D01*
X113030000Y-119859000D02*
X113030000Y-116840000D01*
X121920000Y-130492500D02*
X121920000Y-123631172D01*
%TO.N,/IRQ5*%
X123238986Y-123190000D02*
X120710671Y-120661685D01*
X124460000Y-129200000D02*
X124460000Y-123348000D01*
X124460000Y-123348000D02*
X124302000Y-123190000D01*
X118756685Y-120661685D02*
X118110000Y-120015000D01*
X124302000Y-123190000D02*
X123238986Y-123190000D01*
X120710671Y-120661685D02*
X118756685Y-120661685D01*
X118110000Y-120015000D02*
X118110000Y-116240000D01*
%TO.N,/IRQ6*%
X123190000Y-120015000D02*
X127000000Y-123825000D01*
X127000000Y-123825000D02*
X127000000Y-130492500D01*
X123190000Y-118240000D02*
X123190000Y-120015000D01*
X120260000Y-117910000D02*
X122860000Y-117910000D01*
X122860000Y-117910000D02*
X123190000Y-118240000D01*
X120260000Y-116350000D02*
X120160000Y-116250000D01*
X120260000Y-117910000D02*
X120260000Y-116350000D01*
%TO.N,/IRQ7*%
X121670000Y-116250000D02*
X121660000Y-116240000D01*
X129540000Y-123825000D02*
X125730000Y-120015000D01*
X124855000Y-117870000D02*
X123980000Y-117870000D01*
X123980000Y-117870000D02*
X122360000Y-116250000D01*
X125730000Y-118745000D02*
X124855000Y-117870000D01*
X125730000Y-120015000D02*
X125730000Y-118745000D01*
X129540000Y-130492500D02*
X129540000Y-123825000D01*
X121610000Y-116250000D02*
X121520000Y-116340000D01*
X122360000Y-116250000D02*
X121610000Y-116250000D01*
%TO.N,/RDATA*%
X142240000Y-63500000D02*
X142240000Y-62865000D01*
X142240000Y-62865000D02*
X138570000Y-66535000D01*
X138570000Y-70757244D02*
X138550000Y-70777244D01*
X138570000Y-66535000D02*
X138570000Y-70757244D01*
X138550000Y-70777244D02*
X138550000Y-71840000D01*
X136730000Y-73660000D02*
X132080000Y-73660000D01*
X138550000Y-71840000D02*
X136730000Y-73660000D01*
X200841500Y-110871000D02*
X196151500Y-110871000D01*
X142230000Y-54300000D02*
X142230000Y-51893845D01*
X142230000Y-51893845D02*
X142989157Y-51134688D01*
X191160000Y-54720239D02*
X191160000Y-58930000D01*
X188845141Y-52405380D02*
X191160000Y-54720239D01*
X142989157Y-51134688D02*
X148594208Y-51134688D01*
X148594208Y-51134688D02*
X149864900Y-52405380D01*
X149864900Y-52405380D02*
X188845141Y-52405380D01*
%TO.N,/RDY/~BUSY*%
X163840000Y-92100000D02*
X163880000Y-92140000D01*
X160510000Y-92100000D02*
X163840000Y-92100000D01*
X160485000Y-92075000D02*
X160510000Y-92100000D01*
X144145000Y-92075000D02*
X160485000Y-92075000D01*
X142240000Y-93980000D02*
X144145000Y-92075000D01*
%TO.N,/RESETDRV*%
X191190000Y-122230000D02*
X190290000Y-122230000D01*
X192980000Y-120440000D02*
X191190000Y-122230000D01*
X189880000Y-109470000D02*
X192980000Y-112570000D01*
X180690000Y-98920000D02*
X180690000Y-103010000D01*
X177950000Y-96180000D02*
X180690000Y-98920000D01*
X177950000Y-79747756D02*
X177950000Y-96180000D01*
X187150000Y-109470000D02*
X189880000Y-109470000D01*
X158210000Y-77190000D02*
X175392244Y-77190000D01*
X180690000Y-103010000D02*
X187150000Y-109470000D01*
X149225000Y-69850000D02*
X157210000Y-69850000D01*
X192980000Y-112570000D02*
X192980000Y-120440000D01*
X175392244Y-77190000D02*
X177950000Y-79747756D01*
X157210000Y-69850000D02*
X157210000Y-76190000D01*
X157210000Y-76190000D02*
X158210000Y-77190000D01*
X190290000Y-122230000D02*
X189392000Y-123128000D01*
X189392000Y-123128000D02*
X177822000Y-123128000D01*
X177800000Y-123150000D02*
X177800000Y-129200000D01*
X177822000Y-123128000D02*
X177800000Y-123150000D01*
%TO.N,/STEP*%
X129530000Y-50722512D02*
X129359385Y-50551897D01*
X129530000Y-50964953D02*
X129432361Y-50867314D01*
X129530000Y-54300000D02*
X129530000Y-50964953D01*
X164571771Y-53027693D02*
X149607133Y-53027693D01*
X189586073Y-74349849D02*
X185893927Y-74349849D01*
X190910000Y-75673776D02*
X189586073Y-74349849D01*
X149607133Y-53027693D02*
X148596780Y-52017340D01*
X189010000Y-78090000D02*
X190910000Y-76190000D01*
X185893927Y-74349849D02*
X164571771Y-53027693D01*
X148596780Y-52017340D02*
X145203627Y-52017340D01*
X190910000Y-76190000D02*
X190910000Y-75673776D01*
%TO.N,/TC*%
X105410000Y-121920000D02*
X106679000Y-121920000D01*
X106679000Y-121920000D02*
X109357000Y-124598000D01*
X109357000Y-124598000D02*
X114342000Y-124598000D01*
X114342000Y-129158000D02*
X114300000Y-129200000D01*
X114342000Y-124598000D02*
X114342000Y-129158000D01*
%TO.N,/TRK00*%
X109220000Y-81280000D02*
X109855000Y-81280000D01*
X110207828Y-81280000D02*
X109220000Y-81280000D01*
X111244390Y-80243438D02*
X110207828Y-81280000D01*
X111244390Y-76545610D02*
X111590000Y-76200000D01*
X111244390Y-80243438D02*
X111244390Y-76545610D01*
X189010000Y-85710000D02*
X194260000Y-80460000D01*
X194260000Y-80460000D02*
X194260000Y-72820000D01*
X194260000Y-72820000D02*
X194260000Y-72820000D01*
X148851977Y-50512377D02*
X140937623Y-50512377D01*
X189102910Y-51783069D02*
X150122669Y-51783069D01*
X140937623Y-50512377D02*
X137150000Y-54300000D01*
X192113068Y-61236932D02*
X192113068Y-54793226D01*
X191810000Y-61540000D02*
X192113068Y-61236932D01*
X192113068Y-54793226D02*
X189102910Y-51783069D01*
X150122669Y-51783069D02*
X148851977Y-50512377D01*
%TO.N,/WDATA*%
X144874390Y-60444390D02*
X146240000Y-61810000D01*
X130074390Y-60444390D02*
X144874390Y-60444390D01*
X129747500Y-60117500D02*
X130074390Y-60444390D01*
X146240000Y-62750000D02*
X146260000Y-62770000D01*
X146240000Y-61810000D02*
X146240000Y-62750000D01*
X187809849Y-81830151D02*
X184260151Y-81830151D01*
X189010000Y-80630000D02*
X187809849Y-81830151D01*
X184260151Y-81830151D02*
X184260151Y-81830151D01*
%TO.N,/WE*%
X184160000Y-84480000D02*
X184160000Y-84480000D01*
X151550151Y-55500151D02*
X135810151Y-55500151D01*
X155333673Y-56437349D02*
X152487349Y-56437349D01*
X152487349Y-56437349D02*
X151550151Y-55500151D01*
X158650000Y-59753676D02*
X155333673Y-56437349D01*
X158650000Y-75670000D02*
X158650000Y-59753676D01*
X178810000Y-84480000D02*
X178810000Y-79727678D01*
X174752322Y-75670000D02*
X158650000Y-75670000D01*
X178810000Y-79727678D02*
X174752322Y-75670000D01*
X135810151Y-55500151D02*
X134610000Y-54300000D01*
X187700000Y-84480000D02*
X178810000Y-84480000D01*
X189010000Y-83170000D02*
X187700000Y-84480000D01*
%TO.N,/WP*%
X200270000Y-51650000D02*
X200100000Y-51480000D01*
X195900000Y-50960000D02*
X195360000Y-51500000D01*
X199580000Y-50960000D02*
X195900000Y-50960000D01*
X200270000Y-51650000D02*
X199580000Y-50960000D01*
X200790000Y-52170000D02*
X200270000Y-51650000D01*
X200790000Y-108126500D02*
X200790000Y-52170000D01*
X200781500Y-108135000D02*
X200790000Y-108126500D01*
X196227500Y-108120000D02*
X200766500Y-108120000D01*
X200766500Y-108120000D02*
X200781500Y-108135000D01*
%TO.N,/~DACK2*%
X116840000Y-126190000D02*
X116840000Y-130492500D01*
X116530000Y-125880000D02*
X116840000Y-126190000D01*
X116526324Y-125880000D02*
X116530000Y-125880000D01*
X115106324Y-124460000D02*
X116526324Y-125880000D01*
X140530000Y-82238676D02*
X140530000Y-73340000D01*
X140530000Y-73340000D02*
X140530000Y-73340000D01*
X140530000Y-70030000D02*
X143760000Y-66800000D01*
X143760000Y-66800000D02*
X145040000Y-66800000D01*
X145040000Y-66800000D02*
X145040000Y-66800000D01*
X100555610Y-49934390D02*
X100665000Y-49825000D01*
X100555610Y-82805610D02*
X100555610Y-49934390D01*
X101780000Y-84030000D02*
X100555610Y-82805610D01*
X154910000Y-57690000D02*
X154910000Y-57320000D01*
X148510000Y-64090000D02*
X154910000Y-57690000D01*
X140850000Y-84180000D02*
X140700000Y-84030000D01*
X140700000Y-82408676D02*
X140530000Y-82238676D01*
X140700000Y-84030000D02*
X140700000Y-82408676D01*
X107339173Y-47400827D02*
X103790000Y-50950000D01*
X150140827Y-47400827D02*
X107339173Y-47400827D01*
X151140000Y-48400000D02*
X150140827Y-47400827D01*
X153270000Y-48400000D02*
X151140000Y-48400000D01*
X105410000Y-120650000D02*
X110542080Y-120650000D01*
X111177769Y-121285689D02*
X112545611Y-121285689D01*
X115117349Y-124556349D02*
X116840000Y-126279000D01*
X112545611Y-121285689D02*
X115117349Y-123857427D01*
X110542080Y-120650000D02*
X111177769Y-121285689D01*
X116840000Y-126279000D02*
X116840000Y-129200000D01*
X115117349Y-123857427D02*
X115117349Y-124556349D01*
%TO.N,/~FDC_CS*%
X119480000Y-100670000D02*
X118980000Y-101170000D01*
X118937349Y-101212651D02*
X118980000Y-101170000D01*
X117082651Y-101212651D02*
X118937349Y-101212651D01*
X116850000Y-100980000D02*
X117082651Y-101212651D01*
X114200000Y-100980000D02*
X116850000Y-100980000D01*
X121920000Y-99060000D02*
X119380000Y-99060000D01*
%TO.N,/~IOR*%
X131445000Y-92710000D02*
X133985000Y-92710000D01*
X130810000Y-92075000D02*
X131445000Y-92710000D01*
X123190000Y-92075000D02*
X122555000Y-92710000D01*
X130175000Y-90170000D02*
X123825000Y-90170000D01*
X113665000Y-92710000D02*
X113030000Y-92075000D01*
X123825000Y-90170000D02*
X123190000Y-90805000D01*
X123190000Y-90805000D02*
X123190000Y-92075000D01*
X130810000Y-90805000D02*
X130810000Y-92075000D01*
X113030000Y-92075000D02*
X113030000Y-87630000D01*
X130175000Y-90170000D02*
X130810000Y-90805000D01*
X113030000Y-87630000D02*
X109220000Y-83820000D01*
X122555000Y-92710000D02*
X113665000Y-92710000D01*
X147337000Y-124782000D02*
X147320000Y-124799000D01*
X146606000Y-124782000D02*
X147337000Y-124782000D01*
X146348000Y-123193000D02*
X146348000Y-124524000D01*
X146345000Y-123190000D02*
X146348000Y-123193000D01*
X134845340Y-123190000D02*
X146345000Y-123190000D01*
X147320000Y-124799000D02*
X147320000Y-129200000D01*
X146348000Y-124524000D02*
X146606000Y-124782000D01*
X131580744Y-119925404D02*
X134845340Y-123190000D01*
X131580744Y-119296787D02*
X131580744Y-119925404D01*
%TO.N,/~IOW*%
X104775000Y-97784920D02*
X104780080Y-97790000D01*
X106680000Y-86360000D02*
X104775000Y-88265000D01*
X104775000Y-88265000D02*
X104775000Y-97784920D01*
X128080000Y-106077756D02*
X128136651Y-106134407D01*
X128136651Y-106134407D02*
X128136651Y-108806651D01*
X109855000Y-104140000D02*
X113000000Y-104140000D01*
X104775000Y-97784920D02*
X104775000Y-97790000D01*
X128080000Y-106040000D02*
X128080000Y-106077756D01*
X120623781Y-104263860D02*
X124363860Y-104263860D01*
X120136852Y-103776930D02*
X120623781Y-104263860D01*
X113509552Y-103776930D02*
X120136852Y-103776930D01*
X104775000Y-97790000D02*
X106680000Y-99695000D01*
X113249211Y-104037271D02*
X113509552Y-103776930D01*
X113102729Y-104037271D02*
X113249211Y-104037271D01*
X113000000Y-104140000D02*
X113102729Y-104037271D01*
X106680000Y-99695000D02*
X106680000Y-100965000D01*
X106680000Y-100965000D02*
X109855000Y-104140000D01*
X124363860Y-104263860D02*
X125750000Y-104263860D01*
X125750000Y-104986324D02*
X125740000Y-104996324D01*
X125750000Y-104263860D02*
X125750000Y-104986324D01*
X126266327Y-105522651D02*
X125740000Y-104996324D01*
X127672651Y-105522651D02*
X126266327Y-105522651D01*
X128136651Y-105986651D02*
X127672651Y-105522651D01*
X128136651Y-106134407D02*
X128136651Y-105986651D01*
X134117678Y-109700000D02*
X134380000Y-109700000D01*
X132829988Y-110987690D02*
X134117678Y-109700000D01*
X128815502Y-109485502D02*
X128360000Y-109030000D01*
X128136651Y-108806651D02*
X128360000Y-109030000D01*
X149860000Y-124221000D02*
X149860000Y-125021700D01*
X149928000Y-124153000D02*
X149860000Y-124221000D01*
X147112540Y-124153000D02*
X149928000Y-124153000D01*
X147009310Y-122974230D02*
X147009310Y-124049770D01*
X149860000Y-125021700D02*
X149860000Y-129200000D01*
X147009310Y-124049770D02*
X147112540Y-124153000D01*
X146589770Y-122554690D02*
X147009310Y-122974230D01*
X132723755Y-119925404D02*
X135353041Y-122554690D01*
X135353041Y-122554690D02*
X146589770Y-122554690D01*
X132723755Y-119296787D02*
X132723755Y-119925404D01*
D23*
X130317690Y-110987690D02*
X128815502Y-109485502D01*
X131497690Y-110987690D02*
X130317690Y-110987690D01*
D22*
X131497690Y-110987690D02*
X132829988Y-110987690D01*
%TO.N,/~MEMR*%
X158750000Y-103468676D02*
X159688676Y-102530000D01*
X159688676Y-102530000D02*
X161210000Y-102530000D01*
X161210000Y-102530000D02*
X161310000Y-102430000D01*
X152400000Y-129200000D02*
X152400000Y-124314705D01*
X152400000Y-124314705D02*
X151974012Y-123888717D01*
%TO.N,/~MEMW*%
X156011000Y-124339000D02*
X155405000Y-124339000D01*
X154940000Y-124804000D02*
X154940000Y-129200000D01*
X155405000Y-124339000D02*
X154940000Y-124804000D01*
%TO.N,/~ROMW*%
X161290000Y-105410000D02*
X162560000Y-106680000D01*
X154580000Y-105410000D02*
X154520000Y-105350000D01*
X161290000Y-105410000D02*
X154580000Y-105410000D01*
%TO.N,/~ROM_CS*%
X160215000Y-103700000D02*
X160020000Y-103505000D01*
X165220000Y-103700000D02*
X160215000Y-103700000D01*
D24*
%TO.N,GND*%
X129540000Y-88900000D02*
X130175000Y-88900000D01*
D25*
X157480000Y-130492500D02*
X157480000Y-123825000D01*
X104140000Y-130492500D02*
X104140000Y-125730000D01*
D24*
X153670000Y-85725000D02*
X154940000Y-85725000D01*
X151080000Y-60005000D02*
X149810000Y-58735000D01*
D25*
X104140000Y-125730000D02*
X102870000Y-124460000D01*
D24*
X111760000Y-93980000D02*
X111760000Y-93345000D01*
X105410000Y-118110000D02*
X106680000Y-116840000D01*
X167005000Y-85725000D02*
X175260000Y-93980000D01*
X154940000Y-85725000D02*
X167005000Y-85725000D01*
X110490000Y-92075000D02*
X110490000Y-88265000D01*
X116840000Y-68580000D02*
X115570000Y-69850000D01*
X163830000Y-118110000D02*
X165100000Y-116840000D01*
X127635000Y-59690000D02*
X129540000Y-57785000D01*
X115570000Y-74930000D02*
X111760000Y-71120000D01*
X142240000Y-118110000D02*
X130810000Y-118110000D01*
X113030000Y-69850000D02*
X111760000Y-71120000D01*
X101310000Y-69630000D02*
X101310000Y-59470000D01*
X110490000Y-79375000D02*
X110490000Y-72390000D01*
X153670000Y-77470000D02*
X153670000Y-72390000D01*
X121920000Y-86677500D02*
X121920000Y-81280000D01*
X109855000Y-80010000D02*
X110490000Y-79375000D01*
X101320000Y-74700000D02*
X101320000Y-69620000D01*
X120015000Y-79375000D02*
X121920000Y-81280000D01*
X130175000Y-88900000D02*
X131445000Y-90170000D01*
X120015000Y-79375000D02*
X115570000Y-74930000D01*
X124460000Y-57785000D02*
X126365000Y-59690000D01*
X168910000Y-100330000D02*
X170180000Y-99060000D01*
X165100000Y-111760000D02*
X167640000Y-111760000D01*
X126365000Y-59690000D02*
X127000000Y-59690000D01*
X160020000Y-119380000D02*
X160020000Y-118110000D01*
X110490000Y-69850000D02*
X111760000Y-71120000D01*
X110490000Y-88265000D02*
X109855000Y-87630000D01*
X165100000Y-116840000D02*
X167640000Y-116840000D01*
X171767500Y-118110000D02*
X181610000Y-118110000D01*
X108585000Y-80010000D02*
X109855000Y-80010000D01*
X127000000Y-59690000D02*
X127635000Y-59690000D01*
X127317500Y-81280000D02*
X123507500Y-85090000D01*
X104140000Y-106680000D02*
X102870000Y-106680000D01*
X105410000Y-105410000D02*
X104140000Y-106680000D01*
X102870000Y-69850000D02*
X110490000Y-69850000D01*
X107950000Y-89535000D02*
X107950000Y-87630000D01*
X111760000Y-93345000D02*
X110490000Y-92075000D01*
X171450000Y-100330000D02*
X172720000Y-99060000D01*
X114617500Y-86677500D02*
X121920000Y-86677500D01*
X173990000Y-100330000D02*
X175260000Y-99060000D01*
X151080000Y-60005000D02*
X149810000Y-61275000D01*
X106680000Y-116840000D02*
X106680000Y-114300000D01*
X142240000Y-119380000D02*
X142240000Y-118110000D01*
X109855000Y-87630000D02*
X107950000Y-87630000D01*
X102870000Y-114300000D02*
X106680000Y-114300000D01*
X124460000Y-74930000D02*
X120015000Y-79375000D01*
X182880000Y-119380000D02*
X181610000Y-118110000D01*
X144145000Y-118110000D02*
X142240000Y-118110000D01*
X176530000Y-100330000D02*
X179070000Y-100330000D01*
X110490000Y-72390000D02*
X111760000Y-71120000D01*
X114300000Y-86360000D02*
X114617500Y-86677500D01*
X160020000Y-118110000D02*
X163830000Y-118110000D01*
X172720000Y-99060000D02*
X173990000Y-100330000D01*
X152400000Y-85725000D02*
X153670000Y-85725000D01*
X152400000Y-119380000D02*
X151130000Y-118110000D01*
X118110000Y-67310000D02*
X120650000Y-67310000D01*
X151130000Y-118110000D02*
X144145000Y-118110000D01*
X120650000Y-67310000D02*
X121920000Y-68580000D01*
X170180000Y-99060000D02*
X171450000Y-100330000D01*
X170497500Y-116840000D02*
X171767500Y-118110000D01*
X130810000Y-118110000D02*
X128270000Y-120650000D01*
X107950000Y-87630000D02*
X107950000Y-82550000D01*
X128270000Y-120650000D02*
X127000000Y-119380000D01*
X165100000Y-99060000D02*
X166370000Y-100330000D01*
X106680000Y-91440000D02*
X106680000Y-90805000D01*
X175260000Y-99060000D02*
X176530000Y-100330000D01*
X166370000Y-100330000D02*
X167640000Y-99060000D01*
X144780000Y-118110000D02*
X144145000Y-118110000D01*
X106680000Y-90805000D02*
X107950000Y-89535000D01*
X115570000Y-69850000D02*
X113030000Y-69850000D01*
X116840000Y-73660000D02*
X115570000Y-74930000D01*
X102870000Y-106680000D02*
X102870000Y-81280000D01*
X107950000Y-82550000D02*
X107950000Y-80645000D01*
X144780000Y-119380000D02*
X144780000Y-118110000D01*
X102870000Y-114300000D02*
X102870000Y-106680000D01*
X116840000Y-68580000D02*
X118110000Y-67310000D01*
X102870000Y-124460000D02*
X102870000Y-114300000D01*
X167640000Y-99060000D02*
X168910000Y-100330000D01*
X107950000Y-80645000D02*
X108585000Y-80010000D01*
X167640000Y-116840000D02*
X170497500Y-116840000D01*
X123507500Y-85090000D02*
X121920000Y-86677500D01*
X132080000Y-81280000D02*
X129540000Y-81280000D01*
X129540000Y-81280000D02*
X127317500Y-81280000D01*
X101320000Y-59690000D02*
X101310000Y-59680000D01*
X101310000Y-57860000D02*
X101310000Y-53330000D01*
X101310000Y-59680000D02*
X101310000Y-57860000D01*
X101530000Y-69850000D02*
X101310000Y-69630000D01*
X102870000Y-69850000D02*
X101530000Y-69850000D01*
X101450000Y-76200000D02*
X101310000Y-76340000D01*
X106680000Y-76200000D02*
X101450000Y-76200000D01*
X101310000Y-76340000D02*
X101310000Y-74790000D01*
X101310000Y-78070000D02*
X101310000Y-76340000D01*
X101420000Y-81280000D02*
X101310000Y-81170000D01*
X102860000Y-81280000D02*
X101420000Y-81280000D01*
X106997500Y-113982500D02*
X106680000Y-114300000D01*
X146685000Y-87630000D02*
X137930000Y-87630000D01*
X148590000Y-85725000D02*
X146685000Y-87630000D01*
X137930000Y-87630000D02*
X137170000Y-88390000D01*
X152400000Y-85725000D02*
X148590000Y-85725000D01*
X137170000Y-88390000D02*
X135890000Y-89670000D01*
X134080000Y-90170000D02*
X131445000Y-90170000D01*
X134580000Y-89670000D02*
X134080000Y-90170000D01*
X105330000Y-82550000D02*
X104970000Y-82190000D01*
X107950000Y-82550000D02*
X105330000Y-82550000D01*
X101310000Y-81170000D02*
X101310000Y-78100000D01*
D25*
X180340000Y-127127000D02*
X180340000Y-130492500D01*
X190876510Y-125793490D02*
X181673510Y-125793490D01*
X181673510Y-125793490D02*
X180340000Y-127127000D01*
D24*
X157480000Y-118110000D02*
X157470000Y-118100000D01*
X160020000Y-118110000D02*
X157480000Y-118110000D01*
X135890000Y-89670000D02*
X134580000Y-89670000D01*
X103930000Y-48450000D02*
X102470000Y-49910000D01*
X101310000Y-51070000D02*
X101310000Y-51130000D01*
X102470000Y-49910000D02*
X101310000Y-51070000D01*
X101310000Y-51130000D02*
X101310000Y-53330000D01*
X142240000Y-65405000D02*
X147320000Y-65405000D01*
X124565000Y-114935000D02*
X124250000Y-114620000D01*
X130810000Y-114935000D02*
X124565000Y-114935000D01*
X124250000Y-114620000D02*
X123657500Y-114027500D01*
X123657500Y-114027500D02*
X123657500Y-113982500D01*
X123657500Y-113982500D02*
X106997500Y-113982500D01*
X124460000Y-106680000D02*
X127000000Y-106680000D01*
X156620000Y-103590000D02*
X152485000Y-103590000D01*
X152485000Y-103590000D02*
X152485000Y-105075000D01*
X152120000Y-105440000D02*
X152120000Y-106910000D01*
X152485000Y-105075000D02*
X152120000Y-105440000D01*
X147375000Y-61275000D02*
X147320000Y-61330000D01*
X149810000Y-61275000D02*
X147375000Y-61275000D01*
X147320000Y-65405000D02*
X147320000Y-61330000D01*
X182950000Y-119450000D02*
X182880000Y-119380000D01*
X187890000Y-119450000D02*
X182950000Y-119450000D01*
X179070000Y-100330000D02*
X179070000Y-103420000D01*
X184980000Y-109330000D02*
X185020000Y-109330000D01*
X179070000Y-103420000D02*
X184980000Y-109330000D01*
X186295610Y-110605610D02*
X189345610Y-110605610D01*
X185020000Y-109330000D02*
X186295610Y-110605610D01*
X199370000Y-49630000D02*
X199400000Y-49660000D01*
X197280000Y-49630000D02*
X199370000Y-49630000D01*
X192820000Y-123800000D02*
X192845000Y-123825000D01*
X187890000Y-119450000D02*
X187890000Y-118310000D01*
X187890000Y-118310000D02*
X190840000Y-115360000D01*
X190840000Y-115360000D02*
X190840000Y-115360000D01*
X192820000Y-123800000D02*
X192820000Y-123760000D01*
D25*
X192820000Y-123800000D02*
X192820000Y-123750000D01*
X194400000Y-122170000D02*
X197570000Y-122170000D01*
X192820000Y-123750000D02*
X194400000Y-122170000D01*
D24*
X191690000Y-124600000D02*
X191690000Y-124980000D01*
X190890000Y-123800000D02*
X191690000Y-124600000D01*
D25*
X191690000Y-124980000D02*
X190876510Y-125793490D01*
X192845000Y-123825000D02*
X191690000Y-124980000D01*
D24*
X127000000Y-59770000D02*
X124430000Y-62340000D01*
X127000000Y-59690000D02*
X127000000Y-59770000D01*
X147320000Y-59390000D02*
X144770000Y-56840000D01*
X147320000Y-61330000D02*
X147320000Y-59390000D01*
X144770000Y-56840000D02*
X142230000Y-56840000D01*
X142230000Y-58200000D02*
X142230000Y-56840000D01*
X140740000Y-59690000D02*
X142230000Y-58200000D01*
X137150000Y-58070000D02*
X138770000Y-59690000D01*
X138770000Y-59690000D02*
X140740000Y-59690000D01*
X137150000Y-56840000D02*
X137150000Y-58070000D01*
X137150000Y-56840000D02*
X134610000Y-56840000D01*
X134610000Y-56840000D02*
X132070000Y-56840000D01*
X132070000Y-56840000D02*
X129530000Y-56840000D01*
X129540000Y-56850000D02*
X129530000Y-56840000D01*
X129540000Y-57785000D02*
X129540000Y-56850000D01*
X124460000Y-56850000D02*
X124450000Y-56840000D01*
X124460000Y-57785000D02*
X124460000Y-56850000D01*
X124450000Y-56840000D02*
X121910000Y-56840000D01*
X121910000Y-56840000D02*
X119370000Y-56840000D01*
X119380000Y-56850000D02*
X119370000Y-56840000D01*
X119380000Y-57785000D02*
X119380000Y-56850000D01*
X116205000Y-59690000D02*
X117475000Y-59690000D01*
X117475000Y-59690000D02*
X119380000Y-57785000D01*
X114300000Y-57785000D02*
X116205000Y-59690000D01*
X101310000Y-57860000D02*
X101385000Y-57785000D01*
X114300000Y-56850000D02*
X114290000Y-56840000D01*
X114300000Y-57785000D02*
X114300000Y-56850000D01*
X114290000Y-56840000D02*
X111750000Y-56840000D01*
X111750000Y-56840000D02*
X109210000Y-56840000D01*
X109210000Y-56840000D02*
X106670000Y-56840000D01*
X106670000Y-56880000D02*
X105765000Y-57785000D01*
X106670000Y-56840000D02*
X106670000Y-56880000D01*
X101385000Y-57785000D02*
X105765000Y-57785000D01*
X157480000Y-123825000D02*
X155647724Y-121992724D01*
X155647724Y-121992724D02*
X155647724Y-120977883D01*
X157470000Y-119155607D02*
X157470000Y-118100000D01*
X155647724Y-120977883D02*
X157470000Y-119155607D01*
X199307500Y-60090000D02*
X197887500Y-58670000D01*
X199067500Y-61170000D02*
X197647500Y-59750000D01*
X199067500Y-67955000D02*
X199067500Y-61170000D01*
X199067500Y-67955000D02*
X199067500Y-106735000D01*
D26*
%TO.N,VCC*%
X129540000Y-76200000D02*
X132080000Y-76200000D01*
D24*
X168910000Y-118110000D02*
X166370000Y-118110000D01*
X105410000Y-113030000D02*
X106680000Y-111760000D01*
X105410000Y-102870000D02*
X105410000Y-100330000D01*
D26*
X106680000Y-123190000D02*
X104775000Y-123190000D01*
X127000000Y-68580000D02*
X127000000Y-64770000D01*
D24*
X104140000Y-116840000D02*
X105410000Y-115570000D01*
X119380000Y-64770000D02*
X127000000Y-64770000D01*
D26*
X104775000Y-123190000D02*
X103982520Y-122397520D01*
X109220000Y-125730000D02*
X106680000Y-123190000D01*
X103982520Y-122397520D02*
X103982520Y-116997480D01*
D24*
X109220000Y-64770000D02*
X119380000Y-64770000D01*
D26*
X109220000Y-130492500D02*
X109220000Y-125730000D01*
X103982520Y-116997480D02*
X105410000Y-115570000D01*
D24*
X130810000Y-64770000D02*
X132080000Y-63500000D01*
X130810000Y-76200000D02*
X130810000Y-64770000D01*
X109220000Y-111760000D02*
X109220000Y-113030000D01*
X130810000Y-76200000D02*
X132080000Y-76200000D01*
X127000000Y-64770000D02*
X130810000Y-64770000D01*
D26*
X132080000Y-63500000D02*
X132080000Y-62865000D01*
X109220000Y-68580000D02*
X109220000Y-64770000D01*
D24*
X134620000Y-111760000D02*
X134620000Y-113030000D01*
X103822500Y-98742500D02*
X103822500Y-79692500D01*
X106045000Y-77470000D02*
X107950000Y-77470000D01*
X156210000Y-113030000D02*
X160020000Y-113030000D01*
X107950000Y-77470000D02*
X109220000Y-78740000D01*
X170180000Y-119380000D02*
X168910000Y-118110000D01*
D26*
X106997500Y-104457500D02*
X105410000Y-102870000D01*
X103822500Y-79692500D02*
X106045000Y-77470000D01*
X105410000Y-100330000D02*
X105410000Y-100324920D01*
X103822500Y-98737420D02*
X103822500Y-79692500D01*
X105410000Y-100324920D02*
X103822500Y-98737420D01*
X106680000Y-111760000D02*
X106997500Y-111442500D01*
X106997500Y-111442500D02*
X106997500Y-104457500D01*
D24*
X160020000Y-111760000D02*
X160020000Y-113030000D01*
X105410000Y-100330000D02*
X103822500Y-98742500D01*
X105410000Y-113030000D02*
X109220000Y-113030000D01*
X104140000Y-122555000D02*
X104775000Y-123190000D01*
X129540000Y-76200000D02*
X130810000Y-76200000D01*
X130810000Y-113030000D02*
X134620000Y-113030000D01*
X166370000Y-118110000D02*
X165100000Y-119380000D01*
X127100000Y-78640000D02*
X129540000Y-76200000D01*
X125760000Y-78640000D02*
X127100000Y-78640000D01*
X147320000Y-113665000D02*
X149895000Y-113665000D01*
X135255000Y-113665000D02*
X134935000Y-113345000D01*
X147320000Y-113665000D02*
X135255000Y-113665000D01*
X156210000Y-113030000D02*
X153970000Y-113030000D01*
X153335000Y-113665000D02*
X149895000Y-113665000D01*
X153970000Y-113030000D02*
X153335000Y-113665000D01*
X134935000Y-113345000D02*
X134620000Y-113030000D01*
X130810000Y-113433197D02*
X130810000Y-113030000D01*
X130194667Y-114048530D02*
X130810000Y-113433197D01*
X126208530Y-114048530D02*
X130194667Y-114048530D01*
X123590000Y-113030000D02*
X124260000Y-113030000D01*
X124260000Y-113030000D02*
X125278530Y-114048530D01*
X118110000Y-113030000D02*
X123590000Y-113030000D01*
X125278530Y-114048530D02*
X126480000Y-114048530D01*
X109220000Y-113030000D02*
X115430000Y-113030000D01*
X115430000Y-113030000D02*
X118110000Y-113030000D01*
X115571269Y-112888731D02*
X115430000Y-113030000D01*
X115571269Y-108938731D02*
X115571269Y-112888731D01*
X117621269Y-108938731D02*
X115571269Y-108938731D01*
X118110000Y-108450000D02*
X117621269Y-108938731D01*
X118110000Y-105410000D02*
X118110000Y-108450000D01*
X137160000Y-83300000D02*
X137170000Y-83310000D01*
X137160000Y-77440000D02*
X137160000Y-83300000D01*
X135920000Y-76200000D02*
X137160000Y-77440000D01*
X132080000Y-76200000D02*
X135920000Y-76200000D01*
X142240000Y-78740000D02*
X143607791Y-77372209D01*
X143607791Y-72319486D02*
X143607791Y-73207791D01*
X143607791Y-73207791D02*
X144000000Y-73600000D01*
X144000000Y-76980000D02*
X143607791Y-77372209D01*
X144000000Y-73600000D02*
X144000000Y-76980000D01*
X152947276Y-62980000D02*
X152933638Y-62993638D01*
X143607791Y-72319486D02*
X152933638Y-62993638D01*
X132780000Y-99532172D02*
X132780000Y-100520000D01*
X133186903Y-99125269D02*
X132780000Y-99532172D01*
X135027072Y-99125269D02*
X133186903Y-99125269D01*
X135191803Y-99290000D02*
X135027072Y-99125269D01*
X136880000Y-99290000D02*
X135191803Y-99290000D01*
X190560000Y-121000000D02*
X190038466Y-121000000D01*
X160020000Y-113030000D02*
X186720501Y-113030000D01*
X186720501Y-113030000D02*
X186720501Y-113730501D01*
X187330000Y-114340000D02*
X189140000Y-114340000D01*
X186720501Y-113730501D02*
X187330000Y-114340000D01*
X141660000Y-80990000D02*
X141660000Y-80570000D01*
X141660000Y-80570000D02*
X141670000Y-80560000D01*
X141670000Y-79310000D02*
X142240000Y-78740000D01*
X141670000Y-80560000D02*
X141670000Y-79310000D01*
X119380000Y-62370000D02*
X119350000Y-62340000D01*
X119380000Y-64770000D02*
X119380000Y-62370000D01*
X190560000Y-121000000D02*
X189171000Y-121000000D01*
X189171000Y-121000000D02*
X188040000Y-122131000D01*
X188040000Y-122131000D02*
X175333000Y-122131000D01*
X175333000Y-129127000D02*
X175260000Y-129200000D01*
X175333000Y-122131000D02*
X175333000Y-129127000D01*
D22*
%TO.N,/DRATE0*%
X188820000Y-60390000D02*
X188860000Y-60350000D01*
X148723349Y-79076651D02*
X148723349Y-77216651D01*
X147510000Y-80290000D02*
X148723349Y-79076651D01*
X143470000Y-80290000D02*
X147510000Y-80290000D01*
X148723349Y-77216651D02*
X149880000Y-76060000D01*
X149880000Y-74873676D02*
X152270000Y-72483676D01*
X149880000Y-76060000D02*
X149880000Y-74873676D01*
X152270000Y-72483676D02*
X152270000Y-71090000D01*
X152270000Y-71090000D02*
X156260000Y-71090000D01*
X156260000Y-71090000D02*
X156260000Y-71090000D01*
X187809849Y-59109849D02*
X183450151Y-59109849D01*
X189010000Y-60310000D02*
X187809849Y-59109849D01*
X183450151Y-59109849D02*
X183385000Y-59175000D01*
X183385000Y-59175000D02*
X183320000Y-59240000D01*
%TO.N,Net-(P1-Pad33)*%
X147464849Y-56445151D02*
X147472651Y-56437349D01*
%TO.N,/ME2*%
X188590000Y-65910000D02*
X188590000Y-65910000D01*
X150638207Y-50538447D02*
X149367517Y-49267757D01*
X189240000Y-65620000D02*
X193357690Y-65620000D01*
X109045939Y-49267757D02*
X104286756Y-54026940D01*
X193357690Y-54277688D02*
X189618448Y-50538447D01*
X193357690Y-65620000D02*
X193357690Y-54277688D01*
X189618448Y-50538447D02*
X150638207Y-50538447D01*
X149367517Y-49267757D02*
X109045939Y-49267757D01*
X104286756Y-54026940D02*
X104286756Y-55856164D01*
X189010000Y-65390000D02*
X189240000Y-65620000D01*
X104286756Y-55856164D02*
X104296109Y-55865517D01*
%TO.N,/DS3*%
X194602312Y-67847688D02*
X194602312Y-53762149D01*
X194520000Y-67930000D02*
X194602312Y-67847688D01*
X107972323Y-48023137D02*
X102320000Y-53675460D01*
X189010000Y-67930000D02*
X194520000Y-67930000D01*
X151153745Y-49293825D02*
X149883057Y-48023137D01*
X194602312Y-53762149D02*
X190133986Y-49293825D01*
X149883057Y-48023137D02*
X107972323Y-48023137D01*
X102320000Y-53675460D02*
X102320000Y-54910000D01*
X190133986Y-49293825D02*
X151153745Y-49293825D01*
%TO.N,/DS2*%
X107940000Y-72380000D02*
X109220000Y-73660000D01*
X105700000Y-72380000D02*
X105690000Y-72370000D01*
X107940000Y-72380000D02*
X105700000Y-72380000D01*
X189360679Y-51160758D02*
X150380438Y-51160758D01*
X109329782Y-49890067D02*
X105260000Y-53959849D01*
X149109747Y-49890067D02*
X109329782Y-49890067D01*
X192735379Y-63949699D02*
X192735378Y-54535456D01*
X187809849Y-64813927D02*
X188433927Y-64189849D01*
X188433927Y-64189849D02*
X192495229Y-64189849D01*
X105260000Y-53959849D02*
X105260000Y-54810000D01*
X192735378Y-54535456D02*
X189360679Y-51160758D01*
X189010000Y-70470000D02*
X187809849Y-69269849D01*
X187809849Y-69269849D02*
X187809849Y-64813927D01*
X192495229Y-64189849D02*
X192735379Y-63949699D01*
X150380438Y-51160758D02*
X149109747Y-49890067D01*
%TO.N,/ME3*%
X189370000Y-73010000D02*
X189010000Y-73010000D01*
X193410000Y-68970000D02*
X189370000Y-73010000D01*
X103242651Y-55705029D02*
X103155449Y-55792231D01*
X149625287Y-48645447D02*
X108788169Y-48645447D01*
X193410000Y-66650000D02*
X193980001Y-66079999D01*
X189876217Y-49916136D02*
X150895976Y-49916136D01*
X103242651Y-54190965D02*
X103242651Y-55705029D01*
X193980001Y-66079999D02*
X193980000Y-54019918D01*
X108788169Y-48645447D02*
X103242651Y-54190965D01*
X150895976Y-49916136D02*
X149625287Y-48645447D01*
X193980000Y-54019918D02*
X189876217Y-49916136D01*
%TO.N,Net-(RR1-Pad6)*%
X179070000Y-110490000D02*
X179070000Y-106045000D01*
X179070000Y-106045000D02*
X178435000Y-105410000D01*
X180340000Y-111760000D02*
X179070000Y-110490000D01*
X178435000Y-105410000D02*
X171450000Y-105410000D01*
X171450000Y-105410000D02*
X170180000Y-106680000D01*
%TO.N,Net-(RR1-Pad7)*%
X172720000Y-109220000D02*
X175260000Y-111760000D01*
%TO.N,/0x370*%
X127000000Y-111760000D02*
X125863349Y-110623349D01*
X121860000Y-106740000D02*
X121920000Y-106680000D01*
D23*
X125863349Y-110623349D02*
X125863349Y-110563349D01*
X125200000Y-109900000D02*
X124530000Y-109900000D01*
X125863349Y-110563349D02*
X125200000Y-109900000D01*
D22*
%TO.N,/0x3F0*%
X119330000Y-106730000D02*
X119380000Y-106680000D01*
X129130000Y-112207756D02*
X129130000Y-112330000D01*
D23*
X127311039Y-110001039D02*
X126180000Y-108870000D01*
X126180000Y-108870000D02*
X119680000Y-108870000D01*
X119380000Y-108570000D02*
X119380000Y-106680000D01*
X119680000Y-108870000D02*
X119380000Y-108570000D01*
X127311039Y-110001039D02*
X127511039Y-110001039D01*
X127511039Y-110001039D02*
X128840000Y-111330000D01*
X128840000Y-111330000D02*
X128840000Y-111380000D01*
X129130000Y-111670000D02*
X129130000Y-112330000D01*
X128840000Y-111380000D02*
X129130000Y-111670000D01*
D22*
%TO.N,/FDC_IRQ*%
X114300000Y-99060000D02*
X116840000Y-99060000D01*
X111760000Y-99060000D02*
X114300000Y-99060000D01*
X109220000Y-99060000D02*
X111760000Y-99060000D01*
X118130000Y-95120000D02*
X118110000Y-95100000D01*
X118352690Y-95262690D02*
X120317310Y-95262690D01*
X120317310Y-95262690D02*
X120640000Y-94940000D01*
X118090000Y-95000000D02*
X118352690Y-95262690D01*
%TO.N,Net-(U6-Pad7)*%
X149860000Y-119380000D02*
X148560560Y-120679440D01*
X148560560Y-120679440D02*
X136559890Y-120679440D01*
X119380000Y-119380000D02*
X120309068Y-119380000D01*
X120309068Y-119380000D02*
X123236408Y-122307340D01*
X123236408Y-122307340D02*
X123974420Y-122307340D01*
%TO.N,/~DACK3*%
X137932651Y-110402651D02*
X137540000Y-110010000D01*
X141653673Y-110402651D02*
X137932651Y-110402651D01*
X141846324Y-110210000D02*
X141653673Y-110402651D01*
X146280000Y-108650000D02*
X146010000Y-108650000D01*
X146287349Y-108657349D02*
X146280000Y-108650000D01*
X153200265Y-108657349D02*
X146287349Y-108657349D01*
X146010000Y-108650000D02*
X144450000Y-110210000D01*
X153607614Y-108250000D02*
X153200265Y-108657349D01*
X144450000Y-110210000D02*
X141846324Y-110210000D01*
X155830000Y-108250000D02*
X153607614Y-108250000D01*
X143542640Y-124687360D02*
X143524000Y-124706000D01*
X144711360Y-124687360D02*
X143542640Y-124687360D01*
X144780000Y-124756000D02*
X144711360Y-124687360D01*
X144780000Y-129200000D02*
X144780000Y-124756000D01*
X151290160Y-123266243D02*
X147977970Y-123266243D01*
X151550338Y-123006065D02*
X151290160Y-123266243D01*
X152507673Y-123006065D02*
X151550338Y-123006065D01*
X155990000Y-119523738D02*
X152507673Y-123006065D01*
X155990000Y-117810000D02*
X155990000Y-119523738D01*
%TO.N,/DRQ3*%
X154910000Y-109430000D02*
X154910000Y-109680000D01*
X142240000Y-125990000D02*
X142240000Y-126630000D01*
X154910000Y-109430000D02*
X154910000Y-109700000D01*
X150080000Y-109430000D02*
X149970000Y-109540000D01*
X154910000Y-109430000D02*
X150080000Y-109430000D01*
X142352000Y-124062000D02*
X142240000Y-124174000D01*
X142318000Y-129122000D02*
X142240000Y-129200000D01*
X154800000Y-119833658D02*
X152439223Y-122194435D01*
X154800000Y-117790000D02*
X154800000Y-119833658D01*
X152439223Y-122194435D02*
X149205154Y-122194435D01*
X142318000Y-124115000D02*
X142318000Y-129122000D01*
%TO.N,/DRQ*%
X146843860Y-104263860D02*
X146266140Y-104263860D01*
X148680000Y-104810000D02*
X148133860Y-104263860D01*
X149660000Y-104810000D02*
X148680000Y-104810000D01*
X147040000Y-104300000D02*
X147003860Y-104263860D01*
X147040000Y-106910000D02*
X147040000Y-104300000D01*
X147003860Y-104263860D02*
X146266140Y-104263860D01*
X148133860Y-104263860D02*
X147003860Y-104263860D01*
X140233676Y-104263860D02*
X146266140Y-104263860D01*
X135698151Y-105671849D02*
X138825687Y-105671849D01*
X128910000Y-108699922D02*
X129437812Y-109227733D01*
X134767598Y-108170000D02*
X135176709Y-107760889D01*
X132761288Y-109132310D02*
X133723598Y-108170000D01*
X132707690Y-109132310D02*
X132761288Y-109132310D01*
X131026327Y-109157349D02*
X131873673Y-109157349D01*
X133723598Y-108170000D02*
X134767598Y-108170000D01*
X135369111Y-107760889D02*
X135369111Y-106000889D01*
X132422310Y-109417690D02*
X132707690Y-109132310D01*
X132134014Y-109417690D02*
X132422310Y-109417690D01*
X131873673Y-109157349D02*
X132134014Y-109417690D01*
X130540760Y-109642916D02*
X131026327Y-109157349D01*
X135369111Y-106000889D02*
X135698151Y-105671849D01*
X126710000Y-104640000D02*
X127687598Y-104640000D01*
X138825687Y-105671849D02*
X140233676Y-104263860D01*
X128910000Y-108690000D02*
X128910000Y-108699922D01*
X128768883Y-108548883D02*
X128910000Y-108690000D01*
X128758961Y-105711363D02*
X128758961Y-108548883D01*
X127687598Y-104640000D02*
X128758961Y-105711363D01*
X135176709Y-107760889D02*
X135369111Y-107760889D01*
X128758961Y-108548883D02*
X128768883Y-108548883D01*
D23*
X129852995Y-109642916D02*
X129437812Y-109227733D01*
X130540760Y-109642916D02*
X129852995Y-109642916D01*
D22*
%TO.N,/~DACK*%
X141090000Y-109410000D02*
X141240000Y-109260000D01*
X141180000Y-109320000D02*
X141240000Y-109260000D01*
X144370000Y-105140000D02*
X142950000Y-105140000D01*
X142950000Y-105920000D02*
X141960000Y-106910000D01*
X142950000Y-105140000D02*
X142950000Y-105920000D01*
X116250000Y-104780000D02*
X115680000Y-104780000D01*
X119879082Y-104399240D02*
X116630760Y-104399240D01*
X123120000Y-105020000D02*
X122986170Y-104886170D01*
X128193192Y-109743270D02*
X127799961Y-109350039D01*
X134074407Y-110623349D02*
X133087756Y-111610000D01*
X120366012Y-104886170D02*
X119879082Y-104399240D01*
X135622255Y-110117745D02*
X135116651Y-110623349D01*
X116630760Y-104399240D02*
X116250000Y-104780000D01*
X122986170Y-104886170D02*
X120366012Y-104886170D01*
X135116651Y-110623349D02*
X134074407Y-110623349D01*
X135622255Y-109075501D02*
X135622255Y-110117745D01*
X140785501Y-109075501D02*
X135622255Y-109075501D01*
X141230000Y-109520000D02*
X140785501Y-109075501D01*
D23*
X127799961Y-109350039D02*
X127780039Y-109350039D01*
X127780039Y-109350039D02*
X127370000Y-108940000D01*
X127370000Y-108940000D02*
X127370000Y-108880000D01*
X126710000Y-108220000D02*
X123120000Y-108220000D01*
X127370000Y-108880000D02*
X126710000Y-108220000D01*
D22*
X123120000Y-108220000D02*
X123120000Y-105020000D01*
D23*
X130059922Y-111610000D02*
X128193192Y-109743270D01*
X130240000Y-111610000D02*
X130059922Y-111610000D01*
D22*
X133087756Y-111610000D02*
X130240000Y-111610000D01*
%TO.N,/GT2*%
X126010079Y-100530000D02*
X125952651Y-100472572D01*
X124966324Y-99060000D02*
X124460000Y-99060000D01*
X125952651Y-100472572D02*
X125952651Y-100046327D01*
X125952651Y-100046327D02*
X124966324Y-99060000D01*
X128047428Y-100472572D02*
X125952651Y-100472572D01*
X129460000Y-99060000D02*
X129460000Y-99060000D01*
X145731849Y-97981849D02*
X139948151Y-97981849D01*
X147040000Y-99290000D02*
X145731849Y-97981849D01*
X137402573Y-100717349D02*
X134907349Y-100717349D01*
X134907349Y-100717349D02*
X134530000Y-100340000D01*
X139948151Y-98761849D02*
X139420000Y-99290000D01*
X139948151Y-97981849D02*
X139948151Y-98761849D01*
X138829922Y-99290000D02*
X137402573Y-100717349D01*
X139420000Y-99290000D02*
X138829922Y-99290000D01*
X128047428Y-100472572D02*
X128047428Y-100242572D01*
X129520000Y-98770000D02*
X129530000Y-98770000D01*
X128047428Y-100242572D02*
X129520000Y-98770000D01*
%TO.N,/GT3*%
X138118151Y-108148151D02*
X136880000Y-106910000D01*
X143261849Y-108148151D02*
X138118151Y-108148151D01*
X144500000Y-106910000D02*
X143261849Y-108148151D01*
X132888800Y-110048800D02*
X132880000Y-110040000D01*
X133480000Y-109457600D02*
X132888800Y-110048800D01*
X133480000Y-109293676D02*
X133480000Y-109457600D01*
X132880000Y-110040000D02*
X131450000Y-110040000D01*
X133956327Y-108817349D02*
X133480000Y-109293676D01*
X136880000Y-106910000D02*
X136880000Y-107298300D01*
X135725109Y-108453191D02*
X135364486Y-108453191D01*
X135000328Y-108817349D02*
X133956327Y-108817349D01*
X136880000Y-107298300D02*
X135725109Y-108453191D01*
X135364486Y-108453191D02*
X135000328Y-108817349D01*
%TD*%
M02*
