%TF.GenerationSoftware,KiCad,Pcbnew,(5.1.6-0)*%
%TF.CreationDate,2020-08-23T17:16:23-05:00*%
%TF.ProjectId,isa_fdc.kicad_DB37-v3.2.1.1_pcb,6973615f-6664-4632-9e6b-696361645f44,rev?*%
%TF.SameCoordinates,Original*%
%TF.FileFunction,Legend,Top*%
%TF.FilePolarity,Positive*%
%FSLAX46Y46*%
G04 Gerber Fmt 4.6, Leading zero omitted, Abs format (unit mm)*
G04 Created by KiCad (PCBNEW (5.1.6-0)) date 2020-08-23 17:16:23*
%MOMM*%
%LPD*%
G01*
G04 APERTURE LIST*
%ADD10C,0.250000*%
%ADD11C,0.254000*%
%ADD12C,0.304800*%
%ADD13C,0.120000*%
%ADD14C,0.150000*%
%ADD15C,0.203200*%
%ADD16C,0.152400*%
G04 APERTURE END LIST*
D10*
X153289142Y-61062380D02*
X153289142Y-60062380D01*
X153942285Y-61014761D02*
X154160000Y-61062380D01*
X154522857Y-61062380D01*
X154668000Y-61014761D01*
X154740571Y-60967142D01*
X154813142Y-60871904D01*
X154813142Y-60776666D01*
X154740571Y-60681428D01*
X154668000Y-60633809D01*
X154522857Y-60586190D01*
X154232571Y-60538571D01*
X154087428Y-60490952D01*
X154014857Y-60443333D01*
X153942285Y-60348095D01*
X153942285Y-60252857D01*
X154014857Y-60157619D01*
X154087428Y-60110000D01*
X154232571Y-60062380D01*
X154595428Y-60062380D01*
X154813142Y-60110000D01*
X155393714Y-60776666D02*
X156119428Y-60776666D01*
X155248571Y-61062380D02*
X155756571Y-60062380D01*
X156264571Y-61062380D01*
X158441714Y-60538571D02*
X157933714Y-60538571D01*
X157933714Y-61062380D02*
X157933714Y-60062380D01*
X158659428Y-60062380D01*
X159457714Y-61062380D02*
X159312571Y-61014761D01*
X159240000Y-60919523D01*
X159240000Y-60062380D01*
X160256000Y-61062380D02*
X160110857Y-61014761D01*
X160038285Y-60967142D01*
X159965714Y-60871904D01*
X159965714Y-60586190D01*
X160038285Y-60490952D01*
X160110857Y-60443333D01*
X160256000Y-60395714D01*
X160473714Y-60395714D01*
X160618857Y-60443333D01*
X160691428Y-60490952D01*
X160764000Y-60586190D01*
X160764000Y-60871904D01*
X160691428Y-60967142D01*
X160618857Y-61014761D01*
X160473714Y-61062380D01*
X160256000Y-61062380D01*
X161417142Y-60395714D02*
X161417142Y-61395714D01*
X161417142Y-60443333D02*
X161562285Y-60395714D01*
X161852571Y-60395714D01*
X161997714Y-60443333D01*
X162070285Y-60490952D01*
X162142857Y-60586190D01*
X162142857Y-60871904D01*
X162070285Y-60967142D01*
X161997714Y-61014761D01*
X161852571Y-61062380D01*
X161562285Y-61062380D01*
X161417142Y-61014761D01*
X162796000Y-60395714D02*
X162796000Y-61395714D01*
X162796000Y-60443333D02*
X162941142Y-60395714D01*
X163231428Y-60395714D01*
X163376571Y-60443333D01*
X163449142Y-60490952D01*
X163521714Y-60586190D01*
X163521714Y-60871904D01*
X163449142Y-60967142D01*
X163376571Y-61014761D01*
X163231428Y-61062380D01*
X162941142Y-61062380D01*
X162796000Y-61014761D01*
X164029714Y-60395714D02*
X164392571Y-61062380D01*
X164755428Y-60395714D02*
X164392571Y-61062380D01*
X164247428Y-61300476D01*
X164174857Y-61348095D01*
X164029714Y-61395714D01*
X166497142Y-61062380D02*
X166497142Y-60062380D01*
X166860000Y-60062380D01*
X167077714Y-60110000D01*
X167222857Y-60205238D01*
X167295428Y-60300476D01*
X167368000Y-60490952D01*
X167368000Y-60633809D01*
X167295428Y-60824285D01*
X167222857Y-60919523D01*
X167077714Y-61014761D01*
X166860000Y-61062380D01*
X166497142Y-61062380D01*
X168021142Y-61062380D02*
X168021142Y-60395714D01*
X168021142Y-60062380D02*
X167948571Y-60110000D01*
X168021142Y-60157619D01*
X168093714Y-60110000D01*
X168021142Y-60062380D01*
X168021142Y-60157619D01*
X168674285Y-61014761D02*
X168819428Y-61062380D01*
X169109714Y-61062380D01*
X169254857Y-61014761D01*
X169327428Y-60919523D01*
X169327428Y-60871904D01*
X169254857Y-60776666D01*
X169109714Y-60729047D01*
X168892000Y-60729047D01*
X168746857Y-60681428D01*
X168674285Y-60586190D01*
X168674285Y-60538571D01*
X168746857Y-60443333D01*
X168892000Y-60395714D01*
X169109714Y-60395714D01*
X169254857Y-60443333D01*
X169980571Y-61062380D02*
X169980571Y-60062380D01*
X170125714Y-60681428D02*
X170561142Y-61062380D01*
X170561142Y-60395714D02*
X169980571Y-60776666D01*
X173246285Y-60967142D02*
X173173714Y-61014761D01*
X172956000Y-61062380D01*
X172810857Y-61062380D01*
X172593142Y-61014761D01*
X172448000Y-60919523D01*
X172375428Y-60824285D01*
X172302857Y-60633809D01*
X172302857Y-60490952D01*
X172375428Y-60300476D01*
X172448000Y-60205238D01*
X172593142Y-60110000D01*
X172810857Y-60062380D01*
X172956000Y-60062380D01*
X173173714Y-60110000D01*
X173246285Y-60157619D01*
X174117142Y-61062380D02*
X173972000Y-61014761D01*
X173899428Y-60967142D01*
X173826857Y-60871904D01*
X173826857Y-60586190D01*
X173899428Y-60490952D01*
X173972000Y-60443333D01*
X174117142Y-60395714D01*
X174334857Y-60395714D01*
X174480000Y-60443333D01*
X174552571Y-60490952D01*
X174625142Y-60586190D01*
X174625142Y-60871904D01*
X174552571Y-60967142D01*
X174480000Y-61014761D01*
X174334857Y-61062380D01*
X174117142Y-61062380D01*
X175278285Y-60395714D02*
X175278285Y-61062380D01*
X175278285Y-60490952D02*
X175350857Y-60443333D01*
X175496000Y-60395714D01*
X175713714Y-60395714D01*
X175858857Y-60443333D01*
X175931428Y-60538571D01*
X175931428Y-61062380D01*
X176439428Y-60395714D02*
X177020000Y-60395714D01*
X176657142Y-60062380D02*
X176657142Y-60919523D01*
X176729714Y-61014761D01*
X176874857Y-61062380D01*
X177020000Y-61062380D01*
X177528000Y-61062380D02*
X177528000Y-60395714D01*
X177528000Y-60586190D02*
X177600571Y-60490952D01*
X177673142Y-60443333D01*
X177818285Y-60395714D01*
X177963428Y-60395714D01*
X178689142Y-61062380D02*
X178544000Y-61014761D01*
X178471428Y-60967142D01*
X178398857Y-60871904D01*
X178398857Y-60586190D01*
X178471428Y-60490952D01*
X178544000Y-60443333D01*
X178689142Y-60395714D01*
X178906857Y-60395714D01*
X179052000Y-60443333D01*
X179124571Y-60490952D01*
X179197142Y-60586190D01*
X179197142Y-60871904D01*
X179124571Y-60967142D01*
X179052000Y-61014761D01*
X178906857Y-61062380D01*
X178689142Y-61062380D01*
X180068000Y-61062380D02*
X179922857Y-61014761D01*
X179850285Y-60919523D01*
X179850285Y-60062380D01*
X180866285Y-61062380D02*
X180721142Y-61014761D01*
X180648571Y-60919523D01*
X180648571Y-60062380D01*
X182027428Y-61014761D02*
X181882285Y-61062380D01*
X181591999Y-61062380D01*
X181446857Y-61014761D01*
X181374285Y-60919523D01*
X181374285Y-60538571D01*
X181446857Y-60443333D01*
X181591999Y-60395714D01*
X181882285Y-60395714D01*
X182027428Y-60443333D01*
X182099999Y-60538571D01*
X182099999Y-60633809D01*
X181374285Y-60729047D01*
X182753142Y-61062380D02*
X182753142Y-60395714D01*
X182753142Y-60586190D02*
X182825714Y-60490952D01*
X182898285Y-60443333D01*
X183043428Y-60395714D01*
X183188571Y-60395714D01*
X154922000Y-62145714D02*
X155212285Y-62812380D01*
X155502571Y-62336190D01*
X155792857Y-62812380D01*
X156083142Y-62145714D01*
X157752285Y-61764761D02*
X156446000Y-63050476D01*
X160437428Y-62907619D02*
X160292285Y-62860000D01*
X160147142Y-62764761D01*
X159929428Y-62621904D01*
X159784285Y-62574285D01*
X159639142Y-62574285D01*
X159711714Y-62812380D02*
X159566571Y-62764761D01*
X159421428Y-62669523D01*
X159348857Y-62479047D01*
X159348857Y-62145714D01*
X159421428Y-61955238D01*
X159566571Y-61860000D01*
X159711714Y-61812380D01*
X160002000Y-61812380D01*
X160147142Y-61860000D01*
X160292285Y-61955238D01*
X160364857Y-62145714D01*
X160364857Y-62479047D01*
X160292285Y-62669523D01*
X160147142Y-62764761D01*
X160002000Y-62812380D01*
X159711714Y-62812380D01*
X161671142Y-62145714D02*
X161671142Y-62812380D01*
X161018000Y-62145714D02*
X161018000Y-62669523D01*
X161090571Y-62764761D01*
X161235714Y-62812380D01*
X161453428Y-62812380D01*
X161598571Y-62764761D01*
X161671142Y-62717142D01*
X163050000Y-62812380D02*
X163050000Y-62288571D01*
X162977428Y-62193333D01*
X162832285Y-62145714D01*
X162542000Y-62145714D01*
X162396857Y-62193333D01*
X163050000Y-62764761D02*
X162904857Y-62812380D01*
X162542000Y-62812380D01*
X162396857Y-62764761D01*
X162324285Y-62669523D01*
X162324285Y-62574285D01*
X162396857Y-62479047D01*
X162542000Y-62431428D01*
X162904857Y-62431428D01*
X163050000Y-62383809D01*
X164428857Y-62812380D02*
X164428857Y-61812380D01*
X164428857Y-62764761D02*
X164283714Y-62812380D01*
X163993428Y-62812380D01*
X163848285Y-62764761D01*
X163775714Y-62717142D01*
X163703142Y-62621904D01*
X163703142Y-62336190D01*
X163775714Y-62240952D01*
X163848285Y-62193333D01*
X163993428Y-62145714D01*
X164283714Y-62145714D01*
X164428857Y-62193333D01*
X166315714Y-62812380D02*
X166315714Y-61812380D01*
X166678571Y-61812380D01*
X166896285Y-61860000D01*
X167041428Y-61955238D01*
X167114000Y-62050476D01*
X167186571Y-62240952D01*
X167186571Y-62383809D01*
X167114000Y-62574285D01*
X167041428Y-62669523D01*
X166896285Y-62764761D01*
X166678571Y-62812380D01*
X166315714Y-62812380D01*
X167839714Y-62812380D02*
X167839714Y-62145714D01*
X167839714Y-62336190D02*
X167912285Y-62240952D01*
X167984857Y-62193333D01*
X168130000Y-62145714D01*
X168275142Y-62145714D01*
X168783142Y-62812380D02*
X168783142Y-62145714D01*
X168783142Y-61812380D02*
X168710571Y-61860000D01*
X168783142Y-61907619D01*
X168855714Y-61860000D01*
X168783142Y-61812380D01*
X168783142Y-61907619D01*
X169363714Y-62145714D02*
X169726571Y-62812380D01*
X170089428Y-62145714D01*
X171250571Y-62764761D02*
X171105428Y-62812380D01*
X170815142Y-62812380D01*
X170670000Y-62764761D01*
X170597428Y-62669523D01*
X170597428Y-62288571D01*
X170670000Y-62193333D01*
X170815142Y-62145714D01*
X171105428Y-62145714D01*
X171250571Y-62193333D01*
X171323142Y-62288571D01*
X171323142Y-62383809D01*
X170597428Y-62479047D01*
X173064857Y-62764761D02*
X173282571Y-62812380D01*
X173645428Y-62812380D01*
X173790571Y-62764761D01*
X173863142Y-62717142D01*
X173935714Y-62621904D01*
X173935714Y-62526666D01*
X173863142Y-62431428D01*
X173790571Y-62383809D01*
X173645428Y-62336190D01*
X173355142Y-62288571D01*
X173210000Y-62240952D01*
X173137428Y-62193333D01*
X173064857Y-62098095D01*
X173064857Y-62002857D01*
X173137428Y-61907619D01*
X173210000Y-61860000D01*
X173355142Y-61812380D01*
X173718000Y-61812380D01*
X173935714Y-61860000D01*
X175242000Y-62145714D02*
X175242000Y-62812380D01*
X174588857Y-62145714D02*
X174588857Y-62669523D01*
X174661428Y-62764761D01*
X174806571Y-62812380D01*
X175024285Y-62812380D01*
X175169428Y-62764761D01*
X175242000Y-62717142D01*
X175967714Y-62145714D02*
X175967714Y-63145714D01*
X175967714Y-62193333D02*
X176112857Y-62145714D01*
X176403142Y-62145714D01*
X176548285Y-62193333D01*
X176620857Y-62240952D01*
X176693428Y-62336190D01*
X176693428Y-62621904D01*
X176620857Y-62717142D01*
X176548285Y-62764761D01*
X176403142Y-62812380D01*
X176112857Y-62812380D01*
X175967714Y-62764761D01*
X177346571Y-62145714D02*
X177346571Y-63145714D01*
X177346571Y-62193333D02*
X177491714Y-62145714D01*
X177781999Y-62145714D01*
X177927142Y-62193333D01*
X177999714Y-62240952D01*
X178072285Y-62336190D01*
X178072285Y-62621904D01*
X177999714Y-62717142D01*
X177927142Y-62764761D01*
X177781999Y-62812380D01*
X177491714Y-62812380D01*
X177346571Y-62764761D01*
X178943142Y-62812380D02*
X178797999Y-62764761D01*
X178725428Y-62717142D01*
X178652857Y-62621904D01*
X178652857Y-62336190D01*
X178725428Y-62240952D01*
X178797999Y-62193333D01*
X178943142Y-62145714D01*
X179160857Y-62145714D01*
X179305999Y-62193333D01*
X179378571Y-62240952D01*
X179451142Y-62336190D01*
X179451142Y-62621904D01*
X179378571Y-62717142D01*
X179305999Y-62764761D01*
X179160857Y-62812380D01*
X178943142Y-62812380D01*
X180104285Y-62812380D02*
X180104285Y-62145714D01*
X180104285Y-62336190D02*
X180176857Y-62240952D01*
X180249428Y-62193333D01*
X180394571Y-62145714D01*
X180539714Y-62145714D01*
X180829999Y-62145714D02*
X181410571Y-62145714D01*
X181047714Y-61812380D02*
X181047714Y-62669523D01*
X181120285Y-62764761D01*
X181265428Y-62812380D01*
X181410571Y-62812380D01*
X159566571Y-63562380D02*
X160074571Y-64562380D01*
X160582571Y-63562380D01*
X161671142Y-64514761D02*
X161526000Y-64562380D01*
X161235714Y-64562380D01*
X161090571Y-64514761D01*
X161018000Y-64419523D01*
X161018000Y-64038571D01*
X161090571Y-63943333D01*
X161235714Y-63895714D01*
X161526000Y-63895714D01*
X161671142Y-63943333D01*
X161743714Y-64038571D01*
X161743714Y-64133809D01*
X161018000Y-64229047D01*
X162396857Y-64562380D02*
X162396857Y-63895714D01*
X162396857Y-64086190D02*
X162469428Y-63990952D01*
X162542000Y-63943333D01*
X162687142Y-63895714D01*
X162832285Y-63895714D01*
X163267714Y-64514761D02*
X163412857Y-64562380D01*
X163703142Y-64562380D01*
X163848285Y-64514761D01*
X163920857Y-64419523D01*
X163920857Y-64371904D01*
X163848285Y-64276666D01*
X163703142Y-64229047D01*
X163485428Y-64229047D01*
X163340285Y-64181428D01*
X163267714Y-64086190D01*
X163267714Y-64038571D01*
X163340285Y-63943333D01*
X163485428Y-63895714D01*
X163703142Y-63895714D01*
X163848285Y-63943333D01*
X164574000Y-64562380D02*
X164574000Y-63895714D01*
X164574000Y-63562380D02*
X164501428Y-63610000D01*
X164574000Y-63657619D01*
X164646571Y-63610000D01*
X164574000Y-63562380D01*
X164574000Y-63657619D01*
X165517428Y-64562380D02*
X165372285Y-64514761D01*
X165299714Y-64467142D01*
X165227142Y-64371904D01*
X165227142Y-64086190D01*
X165299714Y-63990952D01*
X165372285Y-63943333D01*
X165517428Y-63895714D01*
X165735142Y-63895714D01*
X165880285Y-63943333D01*
X165952857Y-63990952D01*
X166025428Y-64086190D01*
X166025428Y-64371904D01*
X165952857Y-64467142D01*
X165880285Y-64514761D01*
X165735142Y-64562380D01*
X165517428Y-64562380D01*
X166678571Y-63895714D02*
X166678571Y-64562380D01*
X166678571Y-63990952D02*
X166751142Y-63943333D01*
X166896285Y-63895714D01*
X167114000Y-63895714D01*
X167259142Y-63943333D01*
X167331714Y-64038571D01*
X167331714Y-64562380D01*
X169073428Y-63562380D02*
X170016857Y-63562380D01*
X169508857Y-63943333D01*
X169726571Y-63943333D01*
X169871714Y-63990952D01*
X169944285Y-64038571D01*
X170016857Y-64133809D01*
X170016857Y-64371904D01*
X169944285Y-64467142D01*
X169871714Y-64514761D01*
X169726571Y-64562380D01*
X169291142Y-64562380D01*
X169146000Y-64514761D01*
X169073428Y-64467142D01*
X170670000Y-64467142D02*
X170742571Y-64514761D01*
X170670000Y-64562380D01*
X170597428Y-64514761D01*
X170670000Y-64467142D01*
X170670000Y-64562380D01*
X171323142Y-63657619D02*
X171395714Y-63610000D01*
X171540857Y-63562380D01*
X171903714Y-63562380D01*
X172048857Y-63610000D01*
X172121428Y-63657619D01*
X172194000Y-63752857D01*
X172194000Y-63848095D01*
X172121428Y-63990952D01*
X171250571Y-64562380D01*
X172194000Y-64562380D01*
X172847142Y-64467142D02*
X172919714Y-64514761D01*
X172847142Y-64562380D01*
X172774571Y-64514761D01*
X172847142Y-64467142D01*
X172847142Y-64562380D01*
X174371142Y-64562380D02*
X173500285Y-64562380D01*
X173935714Y-64562380D02*
X173935714Y-63562380D01*
X173790571Y-63705238D01*
X173645428Y-63800476D01*
X173500285Y-63848095D01*
X175024285Y-64467142D02*
X175096857Y-64514761D01*
X175024285Y-64562380D01*
X174951714Y-64514761D01*
X175024285Y-64467142D01*
X175024285Y-64562380D01*
X176548285Y-64562380D02*
X175677428Y-64562380D01*
X176112857Y-64562380D02*
X176112857Y-63562380D01*
X175967714Y-63705238D01*
X175822571Y-63800476D01*
X175677428Y-63848095D01*
X155647714Y-65312380D02*
X155938000Y-65312380D01*
X156083142Y-65360000D01*
X156228285Y-65455238D01*
X156300857Y-65645714D01*
X156300857Y-65979047D01*
X156228285Y-66169523D01*
X156083142Y-66264761D01*
X155938000Y-66312380D01*
X155647714Y-66312380D01*
X155502571Y-66264761D01*
X155357428Y-66169523D01*
X155284857Y-65979047D01*
X155284857Y-65645714D01*
X155357428Y-65455238D01*
X155502571Y-65360000D01*
X155647714Y-65312380D01*
X156954000Y-66312380D02*
X156954000Y-65645714D01*
X156954000Y-65836190D02*
X157026571Y-65740952D01*
X157099142Y-65693333D01*
X157244285Y-65645714D01*
X157389428Y-65645714D01*
X157897428Y-66312380D02*
X157897428Y-65645714D01*
X157897428Y-65312380D02*
X157824857Y-65360000D01*
X157897428Y-65407619D01*
X157970000Y-65360000D01*
X157897428Y-65312380D01*
X157897428Y-65407619D01*
X159276285Y-65645714D02*
X159276285Y-66455238D01*
X159203714Y-66550476D01*
X159131142Y-66598095D01*
X158986000Y-66645714D01*
X158768285Y-66645714D01*
X158623142Y-66598095D01*
X159276285Y-66264761D02*
X159131142Y-66312380D01*
X158840857Y-66312380D01*
X158695714Y-66264761D01*
X158623142Y-66217142D01*
X158550571Y-66121904D01*
X158550571Y-65836190D01*
X158623142Y-65740952D01*
X158695714Y-65693333D01*
X158840857Y-65645714D01*
X159131142Y-65645714D01*
X159276285Y-65693333D01*
X161163142Y-66312380D02*
X161163142Y-65312380D01*
X161163142Y-65693333D02*
X161308285Y-65645714D01*
X161598571Y-65645714D01*
X161743714Y-65693333D01*
X161816285Y-65740952D01*
X161888857Y-65836190D01*
X161888857Y-66121904D01*
X161816285Y-66217142D01*
X161743714Y-66264761D01*
X161598571Y-66312380D01*
X161308285Y-66312380D01*
X161163142Y-66264761D01*
X162396857Y-65645714D02*
X162759714Y-66312380D01*
X163122571Y-65645714D02*
X162759714Y-66312380D01*
X162614571Y-66550476D01*
X162542000Y-66598095D01*
X162396857Y-66645714D01*
X164791714Y-66264761D02*
X165009428Y-66312380D01*
X165372285Y-66312380D01*
X165517428Y-66264761D01*
X165590000Y-66217142D01*
X165662571Y-66121904D01*
X165662571Y-66026666D01*
X165590000Y-65931428D01*
X165517428Y-65883809D01*
X165372285Y-65836190D01*
X165082000Y-65788571D01*
X164936857Y-65740952D01*
X164864285Y-65693333D01*
X164791714Y-65598095D01*
X164791714Y-65502857D01*
X164864285Y-65407619D01*
X164936857Y-65360000D01*
X165082000Y-65312380D01*
X165444857Y-65312380D01*
X165662571Y-65360000D01*
X166896285Y-66264761D02*
X166751142Y-66312380D01*
X166460857Y-66312380D01*
X166315714Y-66264761D01*
X166243142Y-66169523D01*
X166243142Y-65788571D01*
X166315714Y-65693333D01*
X166460857Y-65645714D01*
X166751142Y-65645714D01*
X166896285Y-65693333D01*
X166968857Y-65788571D01*
X166968857Y-65883809D01*
X166243142Y-65979047D01*
X167622000Y-66312380D02*
X167622000Y-65645714D01*
X167622000Y-65836190D02*
X167694571Y-65740952D01*
X167767142Y-65693333D01*
X167912285Y-65645714D01*
X168057428Y-65645714D01*
X169218571Y-65645714D02*
X169218571Y-66455238D01*
X169146000Y-66550476D01*
X169073428Y-66598095D01*
X168928285Y-66645714D01*
X168710571Y-66645714D01*
X168565428Y-66598095D01*
X169218571Y-66264761D02*
X169073428Y-66312380D01*
X168783142Y-66312380D01*
X168638000Y-66264761D01*
X168565428Y-66217142D01*
X168492857Y-66121904D01*
X168492857Y-65836190D01*
X168565428Y-65740952D01*
X168638000Y-65693333D01*
X168783142Y-65645714D01*
X169073428Y-65645714D01*
X169218571Y-65693333D01*
X170524857Y-66264761D02*
X170379714Y-66312380D01*
X170089428Y-66312380D01*
X169944285Y-66264761D01*
X169871714Y-66169523D01*
X169871714Y-65788571D01*
X169944285Y-65693333D01*
X170089428Y-65645714D01*
X170379714Y-65645714D01*
X170524857Y-65693333D01*
X170597428Y-65788571D01*
X170597428Y-65883809D01*
X169871714Y-65979047D01*
X171105428Y-65645714D02*
X171468285Y-66312380D01*
X171831142Y-65645714D02*
X171468285Y-66312380D01*
X171323142Y-66550476D01*
X171250571Y-66598095D01*
X171105428Y-66645714D01*
X173572857Y-66312380D02*
X173572857Y-65312380D01*
X174443714Y-66312380D02*
X173790571Y-65740952D01*
X174443714Y-65312380D02*
X173572857Y-65883809D01*
X175096857Y-66312380D02*
X175096857Y-65645714D01*
X175096857Y-65312380D02*
X175024285Y-65360000D01*
X175096857Y-65407619D01*
X175169428Y-65360000D01*
X175096857Y-65312380D01*
X175096857Y-65407619D01*
X175750000Y-66264761D02*
X175895142Y-66312380D01*
X176185428Y-66312380D01*
X176330571Y-66264761D01*
X176403142Y-66169523D01*
X176403142Y-66121904D01*
X176330571Y-66026666D01*
X176185428Y-65979047D01*
X175967714Y-65979047D01*
X175822571Y-65931428D01*
X175750000Y-65836190D01*
X175750000Y-65788571D01*
X175822571Y-65693333D01*
X175967714Y-65645714D01*
X176185428Y-65645714D01*
X176330571Y-65693333D01*
X177636857Y-66264761D02*
X177491714Y-66312380D01*
X177201428Y-66312380D01*
X177056285Y-66264761D01*
X176983714Y-66169523D01*
X176983714Y-65788571D01*
X177056285Y-65693333D01*
X177201428Y-65645714D01*
X177491714Y-65645714D01*
X177636857Y-65693333D01*
X177709428Y-65788571D01*
X177709428Y-65883809D01*
X176983714Y-65979047D01*
X178580285Y-66312380D02*
X178435142Y-66264761D01*
X178362571Y-66169523D01*
X178362571Y-65312380D01*
X179741428Y-66264761D02*
X179596285Y-66312380D01*
X179306000Y-66312380D01*
X179160857Y-66264761D01*
X179088285Y-66169523D01*
X179088285Y-65788571D01*
X179160857Y-65693333D01*
X179306000Y-65645714D01*
X179596285Y-65645714D01*
X179741428Y-65693333D01*
X179814000Y-65788571D01*
X179814000Y-65883809D01*
X179088285Y-65979047D01*
X180322000Y-65645714D02*
X180684857Y-66312380D01*
X181047714Y-65645714D01*
X153869714Y-68157619D02*
X153724571Y-68110000D01*
X153579428Y-68014761D01*
X153361714Y-67871904D01*
X153216571Y-67824285D01*
X153071428Y-67824285D01*
X153144000Y-68062380D02*
X152998857Y-68014761D01*
X152853714Y-67919523D01*
X152781142Y-67729047D01*
X152781142Y-67395714D01*
X152853714Y-67205238D01*
X152998857Y-67110000D01*
X153144000Y-67062380D01*
X153434285Y-67062380D01*
X153579428Y-67110000D01*
X153724571Y-67205238D01*
X153797142Y-67395714D01*
X153797142Y-67729047D01*
X153724571Y-67919523D01*
X153579428Y-68014761D01*
X153434285Y-68062380D01*
X153144000Y-68062380D01*
X155103428Y-67395714D02*
X155103428Y-68062380D01*
X154450285Y-67395714D02*
X154450285Y-67919523D01*
X154522857Y-68014761D01*
X154668000Y-68062380D01*
X154885714Y-68062380D01*
X155030857Y-68014761D01*
X155103428Y-67967142D01*
X156482285Y-68062380D02*
X156482285Y-67538571D01*
X156409714Y-67443333D01*
X156264571Y-67395714D01*
X155974285Y-67395714D01*
X155829142Y-67443333D01*
X156482285Y-68014761D02*
X156337142Y-68062380D01*
X155974285Y-68062380D01*
X155829142Y-68014761D01*
X155756571Y-67919523D01*
X155756571Y-67824285D01*
X155829142Y-67729047D01*
X155974285Y-67681428D01*
X156337142Y-67681428D01*
X156482285Y-67633809D01*
X157861142Y-68062380D02*
X157861142Y-67062380D01*
X157861142Y-68014761D02*
X157716000Y-68062380D01*
X157425714Y-68062380D01*
X157280571Y-68014761D01*
X157208000Y-67967142D01*
X157135428Y-67871904D01*
X157135428Y-67586190D01*
X157208000Y-67490952D01*
X157280571Y-67443333D01*
X157425714Y-67395714D01*
X157716000Y-67395714D01*
X157861142Y-67443333D01*
X159675428Y-68014761D02*
X159893142Y-68062380D01*
X160256000Y-68062380D01*
X160401142Y-68014761D01*
X160473714Y-67967142D01*
X160546285Y-67871904D01*
X160546285Y-67776666D01*
X160473714Y-67681428D01*
X160401142Y-67633809D01*
X160256000Y-67586190D01*
X159965714Y-67538571D01*
X159820571Y-67490952D01*
X159748000Y-67443333D01*
X159675428Y-67348095D01*
X159675428Y-67252857D01*
X159748000Y-67157619D01*
X159820571Y-67110000D01*
X159965714Y-67062380D01*
X160328571Y-67062380D01*
X160546285Y-67110000D01*
X161852571Y-67395714D02*
X161852571Y-68062380D01*
X161199428Y-67395714D02*
X161199428Y-67919523D01*
X161272000Y-68014761D01*
X161417142Y-68062380D01*
X161634857Y-68062380D01*
X161780000Y-68014761D01*
X161852571Y-67967142D01*
X162578285Y-67395714D02*
X162578285Y-68395714D01*
X162578285Y-67443333D02*
X162723428Y-67395714D01*
X163013714Y-67395714D01*
X163158857Y-67443333D01*
X163231428Y-67490952D01*
X163304000Y-67586190D01*
X163304000Y-67871904D01*
X163231428Y-67967142D01*
X163158857Y-68014761D01*
X163013714Y-68062380D01*
X162723428Y-68062380D01*
X162578285Y-68014761D01*
X163957142Y-67395714D02*
X163957142Y-68395714D01*
X163957142Y-67443333D02*
X164102285Y-67395714D01*
X164392571Y-67395714D01*
X164537714Y-67443333D01*
X164610285Y-67490952D01*
X164682857Y-67586190D01*
X164682857Y-67871904D01*
X164610285Y-67967142D01*
X164537714Y-68014761D01*
X164392571Y-68062380D01*
X164102285Y-68062380D01*
X163957142Y-68014761D01*
X165553714Y-68062380D02*
X165408571Y-68014761D01*
X165336000Y-67967142D01*
X165263428Y-67871904D01*
X165263428Y-67586190D01*
X165336000Y-67490952D01*
X165408571Y-67443333D01*
X165553714Y-67395714D01*
X165771428Y-67395714D01*
X165916571Y-67443333D01*
X165989142Y-67490952D01*
X166061714Y-67586190D01*
X166061714Y-67871904D01*
X165989142Y-67967142D01*
X165916571Y-68014761D01*
X165771428Y-68062380D01*
X165553714Y-68062380D01*
X166714857Y-68062380D02*
X166714857Y-67395714D01*
X166714857Y-67586190D02*
X166787428Y-67490952D01*
X166860000Y-67443333D01*
X167005142Y-67395714D01*
X167150285Y-67395714D01*
X167440571Y-67395714D02*
X168021142Y-67395714D01*
X167658285Y-67062380D02*
X167658285Y-67919523D01*
X167730857Y-68014761D01*
X167876000Y-68062380D01*
X168021142Y-68062380D01*
X170343428Y-68062380D02*
X170343428Y-67538571D01*
X170270857Y-67443333D01*
X170125714Y-67395714D01*
X169835428Y-67395714D01*
X169690285Y-67443333D01*
X170343428Y-68014761D02*
X170198285Y-68062380D01*
X169835428Y-68062380D01*
X169690285Y-68014761D01*
X169617714Y-67919523D01*
X169617714Y-67824285D01*
X169690285Y-67729047D01*
X169835428Y-67681428D01*
X170198285Y-67681428D01*
X170343428Y-67633809D01*
X171069142Y-67395714D02*
X171069142Y-68062380D01*
X171069142Y-67490952D02*
X171141714Y-67443333D01*
X171286857Y-67395714D01*
X171504571Y-67395714D01*
X171649714Y-67443333D01*
X171722285Y-67538571D01*
X171722285Y-68062380D01*
X173101142Y-68062380D02*
X173101142Y-67062380D01*
X173101142Y-68014761D02*
X172956000Y-68062380D01*
X172665714Y-68062380D01*
X172520571Y-68014761D01*
X172448000Y-67967142D01*
X172375428Y-67871904D01*
X172375428Y-67586190D01*
X172448000Y-67490952D01*
X172520571Y-67443333D01*
X172665714Y-67395714D01*
X172956000Y-67395714D01*
X173101142Y-67443333D01*
X174988000Y-67062380D02*
X174988000Y-67871904D01*
X175060571Y-67967142D01*
X175133142Y-68014761D01*
X175278285Y-68062380D01*
X175568571Y-68062380D01*
X175713714Y-68014761D01*
X175786285Y-67967142D01*
X175858857Y-67871904D01*
X175858857Y-67062380D01*
X176584571Y-67395714D02*
X176584571Y-68395714D01*
X176584571Y-67443333D02*
X176729714Y-67395714D01*
X177020000Y-67395714D01*
X177165142Y-67443333D01*
X177237714Y-67490952D01*
X177310285Y-67586190D01*
X177310285Y-67871904D01*
X177237714Y-67967142D01*
X177165142Y-68014761D01*
X177020000Y-68062380D01*
X176729714Y-68062380D01*
X176584571Y-68014761D01*
X178616571Y-68062380D02*
X178616571Y-67062380D01*
X178616571Y-68014761D02*
X178471428Y-68062380D01*
X178181142Y-68062380D01*
X178036000Y-68014761D01*
X177963428Y-67967142D01*
X177890857Y-67871904D01*
X177890857Y-67586190D01*
X177963428Y-67490952D01*
X178036000Y-67443333D01*
X178181142Y-67395714D01*
X178471428Y-67395714D01*
X178616571Y-67443333D01*
X179995428Y-68062380D02*
X179995428Y-67538571D01*
X179922857Y-67443333D01*
X179777714Y-67395714D01*
X179487428Y-67395714D01*
X179342285Y-67443333D01*
X179995428Y-68014761D02*
X179850285Y-68062380D01*
X179487428Y-68062380D01*
X179342285Y-68014761D01*
X179269714Y-67919523D01*
X179269714Y-67824285D01*
X179342285Y-67729047D01*
X179487428Y-67681428D01*
X179850285Y-67681428D01*
X179995428Y-67633809D01*
X180503428Y-67395714D02*
X181084000Y-67395714D01*
X180721142Y-67062380D02*
X180721142Y-67919523D01*
X180793714Y-68014761D01*
X180938857Y-68062380D01*
X181084000Y-68062380D01*
X182172571Y-68014761D02*
X182027428Y-68062380D01*
X181737142Y-68062380D01*
X181591999Y-68014761D01*
X181519428Y-67919523D01*
X181519428Y-67538571D01*
X181591999Y-67443333D01*
X181737142Y-67395714D01*
X182027428Y-67395714D01*
X182172571Y-67443333D01*
X182245142Y-67538571D01*
X182245142Y-67633809D01*
X181519428Y-67729047D01*
X182825714Y-68014761D02*
X182970857Y-68062380D01*
X183261142Y-68062380D01*
X183406285Y-68014761D01*
X183478857Y-67919523D01*
X183478857Y-67871904D01*
X183406285Y-67776666D01*
X183261142Y-67729047D01*
X183043428Y-67729047D01*
X182898285Y-67681428D01*
X182825714Y-67586190D01*
X182825714Y-67538571D01*
X182898285Y-67443333D01*
X183043428Y-67395714D01*
X183261142Y-67395714D01*
X183406285Y-67443333D01*
X162433142Y-69812380D02*
X162433142Y-68812380D01*
X162433142Y-69193333D02*
X162578285Y-69145714D01*
X162868571Y-69145714D01*
X163013714Y-69193333D01*
X163086285Y-69240952D01*
X163158857Y-69336190D01*
X163158857Y-69621904D01*
X163086285Y-69717142D01*
X163013714Y-69764761D01*
X162868571Y-69812380D01*
X162578285Y-69812380D01*
X162433142Y-69764761D01*
X163666857Y-69145714D02*
X164029714Y-69812380D01*
X164392571Y-69145714D02*
X164029714Y-69812380D01*
X163884571Y-70050476D01*
X163812000Y-70098095D01*
X163666857Y-70145714D01*
X166061714Y-69764761D02*
X166206857Y-69812380D01*
X166497142Y-69812380D01*
X166642285Y-69764761D01*
X166714857Y-69669523D01*
X166714857Y-69621904D01*
X166642285Y-69526666D01*
X166497142Y-69479047D01*
X166279428Y-69479047D01*
X166134285Y-69431428D01*
X166061714Y-69336190D01*
X166061714Y-69288571D01*
X166134285Y-69193333D01*
X166279428Y-69145714D01*
X166497142Y-69145714D01*
X166642285Y-69193333D01*
X167585714Y-69812380D02*
X167440571Y-69764761D01*
X167368000Y-69717142D01*
X167295428Y-69621904D01*
X167295428Y-69336190D01*
X167368000Y-69240952D01*
X167440571Y-69193333D01*
X167585714Y-69145714D01*
X167803428Y-69145714D01*
X167948571Y-69193333D01*
X168021142Y-69240952D01*
X168093714Y-69336190D01*
X168093714Y-69621904D01*
X168021142Y-69717142D01*
X167948571Y-69764761D01*
X167803428Y-69812380D01*
X167585714Y-69812380D01*
X168746857Y-69812380D02*
X168746857Y-69145714D01*
X168746857Y-69336190D02*
X168819428Y-69240952D01*
X168892000Y-69193333D01*
X169037142Y-69145714D01*
X169182285Y-69145714D01*
X169690285Y-69145714D02*
X169690285Y-70145714D01*
X169690285Y-69193333D02*
X169835428Y-69145714D01*
X170125714Y-69145714D01*
X170270857Y-69193333D01*
X170343428Y-69240952D01*
X170416000Y-69336190D01*
X170416000Y-69621904D01*
X170343428Y-69717142D01*
X170270857Y-69764761D01*
X170125714Y-69812380D01*
X169835428Y-69812380D01*
X169690285Y-69764761D01*
X171069142Y-69812380D02*
X171069142Y-68812380D01*
X171722285Y-69812380D02*
X171722285Y-69288571D01*
X171649714Y-69193333D01*
X171504571Y-69145714D01*
X171286857Y-69145714D01*
X171141714Y-69193333D01*
X171069142Y-69240952D01*
X172448000Y-69812380D02*
X172448000Y-69145714D01*
X172448000Y-68812380D02*
X172375428Y-68860000D01*
X172448000Y-68907619D01*
X172520571Y-68860000D01*
X172448000Y-68812380D01*
X172448000Y-68907619D01*
X173173714Y-69145714D02*
X173173714Y-69812380D01*
X173173714Y-69240952D02*
X173246285Y-69193333D01*
X173391428Y-69145714D01*
X173609142Y-69145714D01*
X173754285Y-69193333D01*
X173826857Y-69288571D01*
X173826857Y-69812380D01*
X157208000Y-71467142D02*
X157135428Y-71514761D01*
X156917714Y-71562380D01*
X156772571Y-71562380D01*
X156554857Y-71514761D01*
X156409714Y-71419523D01*
X156337142Y-71324285D01*
X156264571Y-71133809D01*
X156264571Y-70990952D01*
X156337142Y-70800476D01*
X156409714Y-70705238D01*
X156554857Y-70610000D01*
X156772571Y-70562380D01*
X156917714Y-70562380D01*
X157135428Y-70610000D01*
X157208000Y-70657619D01*
X158078857Y-71562380D02*
X157933714Y-71514761D01*
X157861142Y-71467142D01*
X157788571Y-71371904D01*
X157788571Y-71086190D01*
X157861142Y-70990952D01*
X157933714Y-70943333D01*
X158078857Y-70895714D01*
X158296571Y-70895714D01*
X158441714Y-70943333D01*
X158514285Y-70990952D01*
X158586857Y-71086190D01*
X158586857Y-71371904D01*
X158514285Y-71467142D01*
X158441714Y-71514761D01*
X158296571Y-71562380D01*
X158078857Y-71562380D01*
X159240000Y-70895714D02*
X159240000Y-71895714D01*
X159240000Y-70943333D02*
X159385142Y-70895714D01*
X159675428Y-70895714D01*
X159820571Y-70943333D01*
X159893142Y-70990952D01*
X159965714Y-71086190D01*
X159965714Y-71371904D01*
X159893142Y-71467142D01*
X159820571Y-71514761D01*
X159675428Y-71562380D01*
X159385142Y-71562380D01*
X159240000Y-71514761D01*
X160473714Y-70895714D02*
X160836571Y-71562380D01*
X161199428Y-70895714D02*
X160836571Y-71562380D01*
X160691428Y-71800476D01*
X160618857Y-71848095D01*
X160473714Y-71895714D01*
X161780000Y-71562380D02*
X161780000Y-70895714D01*
X161780000Y-71086190D02*
X161852571Y-70990952D01*
X161925142Y-70943333D01*
X162070285Y-70895714D01*
X162215428Y-70895714D01*
X162723428Y-71562380D02*
X162723428Y-70895714D01*
X162723428Y-70562380D02*
X162650857Y-70610000D01*
X162723428Y-70657619D01*
X162796000Y-70610000D01*
X162723428Y-70562380D01*
X162723428Y-70657619D01*
X164102285Y-70895714D02*
X164102285Y-71705238D01*
X164029714Y-71800476D01*
X163957142Y-71848095D01*
X163812000Y-71895714D01*
X163594285Y-71895714D01*
X163449142Y-71848095D01*
X164102285Y-71514761D02*
X163957142Y-71562380D01*
X163666857Y-71562380D01*
X163521714Y-71514761D01*
X163449142Y-71467142D01*
X163376571Y-71371904D01*
X163376571Y-71086190D01*
X163449142Y-70990952D01*
X163521714Y-70943333D01*
X163666857Y-70895714D01*
X163957142Y-70895714D01*
X164102285Y-70943333D01*
X164828000Y-71562380D02*
X164828000Y-70562380D01*
X165481142Y-71562380D02*
X165481142Y-71038571D01*
X165408571Y-70943333D01*
X165263428Y-70895714D01*
X165045714Y-70895714D01*
X164900571Y-70943333D01*
X164828000Y-70990952D01*
X165989142Y-70895714D02*
X166569714Y-70895714D01*
X166206857Y-70562380D02*
X166206857Y-71419523D01*
X166279428Y-71514761D01*
X166424571Y-71562380D01*
X166569714Y-71562380D01*
X168674285Y-71943333D02*
X168601714Y-71895714D01*
X168456571Y-71752857D01*
X168384000Y-71657619D01*
X168311428Y-71514761D01*
X168238857Y-71276666D01*
X168238857Y-71086190D01*
X168311428Y-70848095D01*
X168384000Y-70705238D01*
X168456571Y-70610000D01*
X168601714Y-70467142D01*
X168674285Y-70419523D01*
X170125714Y-71467142D02*
X170053142Y-71514761D01*
X169835428Y-71562380D01*
X169690285Y-71562380D01*
X169472571Y-71514761D01*
X169327428Y-71419523D01*
X169254857Y-71324285D01*
X169182285Y-71133809D01*
X169182285Y-70990952D01*
X169254857Y-70800476D01*
X169327428Y-70705238D01*
X169472571Y-70610000D01*
X169690285Y-70562380D01*
X169835428Y-70562380D01*
X170053142Y-70610000D01*
X170125714Y-70657619D01*
X170633714Y-71943333D02*
X170706285Y-71895714D01*
X170851428Y-71752857D01*
X170924000Y-71657619D01*
X170996571Y-71514761D01*
X171069142Y-71276666D01*
X171069142Y-71086190D01*
X170996571Y-70848095D01*
X170924000Y-70705238D01*
X170851428Y-70610000D01*
X170706285Y-70467142D01*
X170633714Y-70419523D01*
X172883428Y-70657619D02*
X172956000Y-70610000D01*
X173101142Y-70562380D01*
X173464000Y-70562380D01*
X173609142Y-70610000D01*
X173681714Y-70657619D01*
X173754285Y-70752857D01*
X173754285Y-70848095D01*
X173681714Y-70990952D01*
X172810857Y-71562380D01*
X173754285Y-71562380D01*
X174697714Y-70562380D02*
X174842857Y-70562380D01*
X174988000Y-70610000D01*
X175060571Y-70657619D01*
X175133142Y-70752857D01*
X175205714Y-70943333D01*
X175205714Y-71181428D01*
X175133142Y-71371904D01*
X175060571Y-71467142D01*
X174988000Y-71514761D01*
X174842857Y-71562380D01*
X174697714Y-71562380D01*
X174552571Y-71514761D01*
X174480000Y-71467142D01*
X174407428Y-71371904D01*
X174334857Y-71181428D01*
X174334857Y-70943333D01*
X174407428Y-70752857D01*
X174480000Y-70657619D01*
X174552571Y-70610000D01*
X174697714Y-70562380D01*
X175786285Y-70657619D02*
X175858857Y-70610000D01*
X176004000Y-70562380D01*
X176366857Y-70562380D01*
X176512000Y-70610000D01*
X176584571Y-70657619D01*
X176657142Y-70752857D01*
X176657142Y-70848095D01*
X176584571Y-70990952D01*
X175713714Y-71562380D01*
X176657142Y-71562380D01*
X177600571Y-70562380D02*
X177745714Y-70562380D01*
X177890857Y-70610000D01*
X177963428Y-70657619D01*
X178036000Y-70752857D01*
X178108571Y-70943333D01*
X178108571Y-71181428D01*
X178036000Y-71371904D01*
X177963428Y-71467142D01*
X177890857Y-71514761D01*
X177745714Y-71562380D01*
X177600571Y-71562380D01*
X177455428Y-71514761D01*
X177382857Y-71467142D01*
X177310285Y-71371904D01*
X177237714Y-71181428D01*
X177237714Y-70943333D01*
X177310285Y-70752857D01*
X177382857Y-70657619D01*
X177455428Y-70610000D01*
X177600571Y-70562380D01*
X178761714Y-71181428D02*
X179922857Y-71181428D01*
X179342285Y-71562380D02*
X179342285Y-70800476D01*
D11*
%TO.C,BUS1*%
X182880000Y-124564500D02*
X182880000Y-133454500D01*
D12*
X182880000Y-133454500D02*
X101600000Y-133454500D01*
D11*
X182880000Y-124564500D02*
X101600000Y-124564500D01*
X101600000Y-133454500D02*
X101600000Y-124564500D01*
D13*
%TO.C,R3*%
X121310000Y-120660000D02*
X121310000Y-122500000D01*
X121310000Y-122500000D02*
X125150000Y-122500000D01*
X125150000Y-122500000D02*
X125150000Y-120660000D01*
X125150000Y-120660000D02*
X121310000Y-120660000D01*
X120360000Y-121580000D02*
X121310000Y-121580000D01*
X126100000Y-121580000D02*
X125150000Y-121580000D01*
D11*
%TO.C,SW1*%
X107442000Y-105410000D02*
X107442000Y-100330000D01*
X128778000Y-105410000D02*
X107442000Y-105410000D01*
X128778000Y-100330000D02*
X128778000Y-105410000D01*
X107442000Y-100330000D02*
X128778000Y-100330000D01*
X107442000Y-103886000D02*
G75*
G03*
X108458000Y-102870000I0J1016000D01*
G01*
X108458000Y-102870000D02*
G75*
G03*
X107442000Y-101854000I-1016000J0D01*
G01*
%TO.C,U6*%
X107188000Y-118060000D02*
X107188000Y-112980000D01*
X134112000Y-118060000D02*
X107188000Y-118060000D01*
X134112000Y-112980000D02*
X134112000Y-118060000D01*
X107188000Y-112980000D02*
X134112000Y-112980000D01*
X108204000Y-115520000D02*
G75*
G03*
X107188000Y-114504000I-1016000J0D01*
G01*
X107188000Y-116536000D02*
G75*
G03*
X108204000Y-115520000I0J1016000D01*
G01*
D13*
%TO.C,P2*%
X193906175Y-66570000D02*
X193473162Y-66820000D01*
X193473162Y-66320000D02*
X193906175Y-66570000D01*
X193473162Y-66820000D02*
X193473162Y-66320000D01*
X194367500Y-56740000D02*
X208907500Y-56740000D01*
X194367500Y-126260000D02*
X194367500Y-56740000D01*
X208907500Y-126260000D02*
X194367500Y-126260000D01*
D11*
%TO.C,P3*%
X190280000Y-97140000D02*
X185200000Y-97140000D01*
X185200000Y-53960000D02*
X190280000Y-53960000D01*
X190280000Y-97140000D02*
X190280000Y-53960000D01*
X185200000Y-53960000D02*
X185200000Y-97140000D01*
X183930000Y-50150000D02*
X191550000Y-50150000D01*
X183930000Y-100950000D02*
X183930000Y-50150000D01*
X191550000Y-100950000D02*
X183930000Y-100950000D01*
X191550000Y-50150000D02*
X191550000Y-100950000D01*
X183295000Y-55865000D02*
X183295000Y-54595000D01*
X183930000Y-55230000D02*
X183295000Y-55865000D01*
X183295000Y-54595000D02*
X183930000Y-55230000D01*
D13*
%TO.C,R2*%
X129940641Y-105440095D02*
G75*
G02*
X131390000Y-105537133I749359J320095D01*
G01*
%TO.C,R1*%
X130593782Y-98716464D02*
G75*
G02*
X131550017Y-99809932I756218J-303536D01*
G01*
%TO.C,U2*%
X135550000Y-100450000D02*
X135550000Y-102100000D01*
X153450000Y-100450000D02*
X135550000Y-100450000D01*
X153450000Y-105750000D02*
X153450000Y-100450000D01*
X135550000Y-105750000D02*
X153450000Y-105750000D01*
X135550000Y-104100000D02*
X135550000Y-105750000D01*
X135550000Y-102100000D02*
G75*
G02*
X135550000Y-104100000I0J-1000000D01*
G01*
D11*
%TO.C,C2*%
X132282000Y-99664000D02*
X133298000Y-99664000D01*
X133806000Y-100172000D02*
X133806000Y-106268000D01*
X131774000Y-100172000D02*
X131774000Y-106268000D01*
X132282000Y-106776000D02*
X133298000Y-106776000D01*
X131774000Y-106268000D02*
G75*
G03*
X132282000Y-106776000I508000J0D01*
G01*
X133298000Y-106776000D02*
G75*
G03*
X133806000Y-106268000I0J508000D01*
G01*
X132282000Y-99664000D02*
G75*
G03*
X131774000Y-100172000I0J-508000D01*
G01*
X133806000Y-100172000D02*
G75*
G03*
X133298000Y-99664000I-508000J0D01*
G01*
%TO.C,C11*%
X193640820Y-121260000D02*
G75*
G03*
X193640820Y-121260000I-2750820J0D01*
G01*
%TO.C,C12*%
X124640820Y-62340000D02*
G75*
G03*
X124640820Y-62340000I-2750820J0D01*
G01*
%TO.C,U5*%
X157988000Y-118110000D02*
X157988000Y-113030000D01*
X184912000Y-118110000D02*
X157988000Y-118110000D01*
X184912000Y-113030000D02*
X184912000Y-118110000D01*
X157988000Y-113030000D02*
X184912000Y-113030000D01*
X157988000Y-116586000D02*
G75*
G03*
X159004000Y-115570000I0J1016000D01*
G01*
X159004000Y-115570000D02*
G75*
G03*
X157988000Y-114554000I-1016000J0D01*
G01*
%TO.C,SW2*%
X158242000Y-105410000D02*
X158242000Y-100330000D01*
X179578000Y-105410000D02*
X158242000Y-105410000D01*
X179578000Y-100330000D02*
X179578000Y-105410000D01*
X158242000Y-100330000D02*
X179578000Y-100330000D01*
X158242000Y-103886000D02*
G75*
G03*
X159258000Y-102870000I0J1016000D01*
G01*
X159258000Y-102870000D02*
G75*
G03*
X158242000Y-101854000I-1016000J0D01*
G01*
%TO.C,C1*%
X104902000Y-99314000D02*
X105918000Y-99314000D01*
X106426000Y-99822000D02*
X106426000Y-105918000D01*
X104394000Y-99822000D02*
X104394000Y-105918000D01*
X104902000Y-106426000D02*
X105918000Y-106426000D01*
X104394000Y-105918000D02*
G75*
G03*
X104902000Y-106426000I508000J0D01*
G01*
X105918000Y-106426000D02*
G75*
G03*
X106426000Y-105918000I0J508000D01*
G01*
X104902000Y-99314000D02*
G75*
G03*
X104394000Y-99822000I0J-508000D01*
G01*
X106426000Y-99822000D02*
G75*
G03*
X105918000Y-99314000I-508000J0D01*
G01*
%TO.C,C7*%
X104902000Y-112014000D02*
X105918000Y-112014000D01*
X106426000Y-112522000D02*
X106426000Y-118618000D01*
X104394000Y-112522000D02*
X104394000Y-118618000D01*
X104902000Y-119126000D02*
X105918000Y-119126000D01*
X104394000Y-118618000D02*
G75*
G03*
X104902000Y-119126000I508000J0D01*
G01*
X105918000Y-119126000D02*
G75*
G03*
X106426000Y-118618000I0J508000D01*
G01*
X104902000Y-112014000D02*
G75*
G03*
X104394000Y-112522000I0J-508000D01*
G01*
X106426000Y-112522000D02*
G75*
G03*
X105918000Y-112014000I-508000J0D01*
G01*
%TO.C,C5*%
X156962000Y-112004000D02*
X157978000Y-112004000D01*
X158486000Y-112512000D02*
X158486000Y-118608000D01*
X156454000Y-112512000D02*
X156454000Y-118608000D01*
X156962000Y-119116000D02*
X157978000Y-119116000D01*
X156454000Y-118608000D02*
G75*
G03*
X156962000Y-119116000I508000J0D01*
G01*
X157978000Y-119116000D02*
G75*
G03*
X158486000Y-118608000I0J508000D01*
G01*
X156962000Y-112004000D02*
G75*
G03*
X156454000Y-112512000I0J-508000D01*
G01*
X158486000Y-112512000D02*
G75*
G03*
X157978000Y-112004000I-508000J0D01*
G01*
%TO.C,C4*%
X136662000Y-82294000D02*
X137678000Y-82294000D01*
X138186000Y-82802000D02*
X138186000Y-88898000D01*
X136154000Y-82802000D02*
X136154000Y-88898000D01*
X136662000Y-89406000D02*
X137678000Y-89406000D01*
X136154000Y-88898000D02*
G75*
G03*
X136662000Y-89406000I508000J0D01*
G01*
X137678000Y-89406000D02*
G75*
G03*
X138186000Y-88898000I0J508000D01*
G01*
X136662000Y-82294000D02*
G75*
G03*
X136154000Y-82802000I0J-508000D01*
G01*
X138186000Y-82802000D02*
G75*
G03*
X137678000Y-82294000I-508000J0D01*
G01*
%TO.C,C16*%
X142748000Y-71501000D02*
X141732000Y-71501000D01*
X141224000Y-70993000D02*
X141224000Y-64897000D01*
X143256000Y-70993000D02*
X143256000Y-64897000D01*
X142748000Y-64389000D02*
X141732000Y-64389000D01*
X143256000Y-64897000D02*
G75*
G03*
X142748000Y-64389000I-508000J0D01*
G01*
X141732000Y-64389000D02*
G75*
G03*
X141224000Y-64897000I0J-508000D01*
G01*
X142748000Y-71501000D02*
G75*
G03*
X143256000Y-70993000I0J508000D01*
G01*
X141224000Y-70993000D02*
G75*
G03*
X141732000Y-71501000I508000J0D01*
G01*
%TO.C,C15*%
X147828000Y-71501000D02*
X146812000Y-71501000D01*
X146304000Y-70993000D02*
X146304000Y-64897000D01*
X148336000Y-70993000D02*
X148336000Y-64897000D01*
X147828000Y-64389000D02*
X146812000Y-64389000D01*
X148336000Y-64897000D02*
G75*
G03*
X147828000Y-64389000I-508000J0D01*
G01*
X146812000Y-64389000D02*
G75*
G03*
X146304000Y-64897000I0J-508000D01*
G01*
X147828000Y-71501000D02*
G75*
G03*
X148336000Y-70993000I0J508000D01*
G01*
X146304000Y-70993000D02*
G75*
G03*
X146812000Y-71501000I508000J0D01*
G01*
%TO.C,U4*%
X138938000Y-92710000D02*
X138938000Y-80010000D01*
X178562000Y-92710000D02*
X138938000Y-92710000D01*
X178562000Y-80010000D02*
X178562000Y-92710000D01*
X138938000Y-80010000D02*
X178562000Y-80010000D01*
X138938000Y-87376000D02*
G75*
G03*
X139954000Y-86360000I0J1016000D01*
G01*
X139954000Y-86360000D02*
G75*
G03*
X138938000Y-85344000I-1016000J0D01*
G01*
%TO.C,C17*%
X136652000Y-64389000D02*
X137668000Y-64389000D01*
X138176000Y-64897000D02*
X138176000Y-70993000D01*
X136144000Y-64897000D02*
X136144000Y-70993000D01*
X136652000Y-71501000D02*
X137668000Y-71501000D01*
X136144000Y-70993000D02*
G75*
G03*
X136652000Y-71501000I508000J0D01*
G01*
X137668000Y-71501000D02*
G75*
G03*
X138176000Y-70993000I0J508000D01*
G01*
X136652000Y-64389000D02*
G75*
G03*
X136144000Y-64897000I0J-508000D01*
G01*
X138176000Y-64897000D02*
G75*
G03*
X137668000Y-64389000I-508000J0D01*
G01*
%TO.C,U1*%
X135255000Y-65405000D02*
X135255000Y-97155000D01*
X103505000Y-65405000D02*
X135255000Y-65405000D01*
X106045000Y-97155000D02*
X103505000Y-94615000D01*
X103505000Y-94615000D02*
X103505000Y-65405000D01*
X106045000Y-97155000D02*
X135255000Y-97155000D01*
%TO.C,P1*%
X148580000Y-53030000D02*
X148580000Y-58110000D01*
X105400000Y-58110000D02*
X105400000Y-53030000D01*
X148580000Y-53030000D02*
X105400000Y-53030000D01*
X105400000Y-58110000D02*
X148580000Y-58110000D01*
X101590000Y-59380000D02*
X101590000Y-51760000D01*
X152390000Y-59380000D02*
X101590000Y-59380000D01*
X152390000Y-51760000D02*
X152390000Y-59380000D01*
X101590000Y-51760000D02*
X152390000Y-51760000D01*
X107305000Y-60015000D02*
X106035000Y-60015000D01*
X106670000Y-59380000D02*
X107305000Y-60015000D01*
X106035000Y-60015000D02*
X106670000Y-59380000D01*
%TO.C,RR1*%
X158750000Y-110490000D02*
X158750000Y-107950000D01*
X181610000Y-110490000D02*
X156210000Y-110490000D01*
X181610000Y-107950000D02*
X181610000Y-110490000D01*
X156210000Y-107950000D02*
X181610000Y-107950000D01*
X156210000Y-110490000D02*
X156210000Y-107950000D01*
%TO.C,RR2*%
X130810000Y-64135000D02*
X130810000Y-61595000D01*
X130810000Y-61595000D02*
X146050000Y-61595000D01*
X146050000Y-61595000D02*
X146050000Y-64135000D01*
X146050000Y-64135000D02*
X130810000Y-64135000D01*
X133350000Y-64135000D02*
X133350000Y-61595000D01*
%TO.C,X1*%
X141351000Y-76708000D02*
X148209000Y-76708000D01*
X148209000Y-71882000D02*
X141351000Y-71882000D01*
X141351000Y-71882000D02*
G75*
G03*
X138938000Y-74295000I0J-2413000D01*
G01*
X138938000Y-74295000D02*
G75*
G03*
X141351000Y-76708000I2413000J0D01*
G01*
X148209000Y-76708000D02*
G75*
G03*
X150622000Y-74295000I0J2413000D01*
G01*
X150622000Y-74295000D02*
G75*
G03*
X148209000Y-71882000I-2413000J0D01*
G01*
D13*
%TO.C,RR3*%
X145810000Y-112720000D02*
X145810000Y-109920000D01*
X138020000Y-112720000D02*
X148520000Y-112720000D01*
X138020000Y-109920000D02*
X138020000Y-112720000D01*
X148520000Y-109920000D02*
X138020000Y-109920000D01*
X148520000Y-112720000D02*
X148520000Y-109920000D01*
%TO.C,R3*%
D14*
X117203333Y-123402380D02*
X116870000Y-122926190D01*
X116631904Y-123402380D02*
X116631904Y-122402380D01*
X117012857Y-122402380D01*
X117108095Y-122450000D01*
X117155714Y-122497619D01*
X117203333Y-122592857D01*
X117203333Y-122735714D01*
X117155714Y-122830952D01*
X117108095Y-122878571D01*
X117012857Y-122926190D01*
X116631904Y-122926190D01*
X117536666Y-122402380D02*
X118155714Y-122402380D01*
X117822380Y-122783333D01*
X117965238Y-122783333D01*
X118060476Y-122830952D01*
X118108095Y-122878571D01*
X118155714Y-122973809D01*
X118155714Y-123211904D01*
X118108095Y-123307142D01*
X118060476Y-123354761D01*
X117965238Y-123402380D01*
X117679523Y-123402380D01*
X117584285Y-123354761D01*
X117536666Y-123307142D01*
X122379538Y-123732380D02*
X121808110Y-123732380D01*
X122093824Y-123732380D02*
X122218824Y-122732380D01*
X122105729Y-122875238D01*
X121998586Y-122970476D01*
X121897395Y-123018095D01*
X123123586Y-122732380D02*
X123218824Y-122732380D01*
X123308110Y-122780000D01*
X123349776Y-122827619D01*
X123385491Y-122922857D01*
X123409300Y-123113333D01*
X123379538Y-123351428D01*
X123308110Y-123541904D01*
X123248586Y-123637142D01*
X123195014Y-123684761D01*
X123093824Y-123732380D01*
X122998586Y-123732380D01*
X122909300Y-123684761D01*
X122867633Y-123637142D01*
X122831919Y-123541904D01*
X122808110Y-123351428D01*
X122837872Y-123113333D01*
X122909300Y-122922857D01*
X122968824Y-122827619D01*
X123022395Y-122780000D01*
X123123586Y-122732380D01*
X123760491Y-123732380D02*
X123885491Y-122732380D01*
X124331919Y-123732380D02*
X123974776Y-123160952D01*
X124456919Y-122732380D02*
X123814062Y-123303809D01*
%TO.C,SW1*%
D11*
X108796666Y-109416547D02*
X108978095Y-109477023D01*
X109280476Y-109477023D01*
X109401428Y-109416547D01*
X109461904Y-109356071D01*
X109522380Y-109235119D01*
X109522380Y-109114166D01*
X109461904Y-108993214D01*
X109401428Y-108932738D01*
X109280476Y-108872261D01*
X109038571Y-108811785D01*
X108917619Y-108751309D01*
X108857142Y-108690833D01*
X108796666Y-108569880D01*
X108796666Y-108448928D01*
X108857142Y-108327976D01*
X108917619Y-108267500D01*
X109038571Y-108207023D01*
X109340952Y-108207023D01*
X109522380Y-108267500D01*
X109945714Y-108207023D02*
X110248095Y-109477023D01*
X110490000Y-108569880D01*
X110731904Y-109477023D01*
X111034285Y-108207023D01*
X112183333Y-109477023D02*
X111457619Y-109477023D01*
X111820476Y-109477023D02*
X111820476Y-108207023D01*
X111699523Y-108388452D01*
X111578571Y-108509404D01*
X111457619Y-108569880D01*
D15*
X117859522Y-108811785D02*
X117520856Y-108811785D01*
X117437701Y-109477023D02*
X117596451Y-108207023D01*
X118080260Y-108207023D01*
X118308558Y-109477023D02*
X118467308Y-108207023D01*
X118709213Y-108207023D01*
X118846796Y-108267500D01*
X118928439Y-108388452D01*
X118961701Y-108509404D01*
X118979844Y-108751309D01*
X118957165Y-108932738D01*
X118878546Y-109174642D01*
X118815046Y-109295595D01*
X118703165Y-109416547D01*
X118550463Y-109477023D01*
X118308558Y-109477023D01*
X119920248Y-109356071D02*
X119864308Y-109416547D01*
X119711606Y-109477023D01*
X119614844Y-109477023D01*
X119477260Y-109416547D01*
X119395617Y-109295595D01*
X119362356Y-109174642D01*
X119344213Y-108932738D01*
X119366891Y-108751309D01*
X119445510Y-108509404D01*
X119509010Y-108388452D01*
X119620891Y-108267500D01*
X119773594Y-108207023D01*
X119870356Y-108207023D01*
X120007939Y-108267500D01*
X120048760Y-108327976D01*
X120083534Y-109597976D02*
X120857629Y-109597976D01*
X121710344Y-109356071D02*
X121654403Y-109416547D01*
X121501701Y-109477023D01*
X121404939Y-109477023D01*
X121267356Y-109416547D01*
X121185713Y-109295595D01*
X121152451Y-109174642D01*
X121134308Y-108932738D01*
X121156987Y-108751309D01*
X121235606Y-108509404D01*
X121299106Y-108388452D01*
X121410987Y-108267500D01*
X121563689Y-108207023D01*
X121660451Y-108207023D01*
X121798034Y-108267500D01*
X121838856Y-108327976D01*
X122482927Y-108207023D02*
X122676451Y-108207023D01*
X122765653Y-108267500D01*
X122847296Y-108388452D01*
X122865439Y-108630357D01*
X122812522Y-109053690D01*
X122733903Y-109295595D01*
X122622022Y-109416547D01*
X122517701Y-109477023D01*
X122324177Y-109477023D01*
X122234975Y-109416547D01*
X122153332Y-109295595D01*
X122135189Y-109053690D01*
X122188106Y-108630357D01*
X122266725Y-108388452D01*
X122378606Y-108267500D01*
X122482927Y-108207023D01*
X123195034Y-109477023D02*
X123353784Y-108207023D01*
X123775606Y-109477023D01*
X123934356Y-108207023D01*
X124681237Y-108811785D02*
X124342570Y-108811785D01*
X124259415Y-109477023D02*
X124418165Y-108207023D01*
X124901975Y-108207023D01*
X125130272Y-109477023D02*
X125289022Y-108207023D01*
X126297463Y-108267500D02*
X126208260Y-108207023D01*
X126063117Y-108207023D01*
X125910415Y-108267500D01*
X125798534Y-108388452D01*
X125735034Y-108509404D01*
X125656415Y-108751309D01*
X125633737Y-108932738D01*
X125651879Y-109174642D01*
X125685141Y-109295595D01*
X125766784Y-109416547D01*
X125904367Y-109477023D01*
X126001129Y-109477023D01*
X126153832Y-109416547D01*
X126209772Y-109356071D01*
X126262689Y-108932738D01*
X126069165Y-108932738D01*
%TO.C,U6*%
D11*
X135092380Y-114254523D02*
X135092380Y-115282619D01*
X135152857Y-115403571D01*
X135213333Y-115464047D01*
X135334285Y-115524523D01*
X135576190Y-115524523D01*
X135697142Y-115464047D01*
X135757619Y-115403571D01*
X135818095Y-115282619D01*
X135818095Y-114254523D01*
X136967142Y-114254523D02*
X136725238Y-114254523D01*
X136604285Y-114315000D01*
X136543809Y-114375476D01*
X136422857Y-114556904D01*
X136362380Y-114798809D01*
X136362380Y-115282619D01*
X136422857Y-115403571D01*
X136483333Y-115464047D01*
X136604285Y-115524523D01*
X136846190Y-115524523D01*
X136967142Y-115464047D01*
X137027619Y-115403571D01*
X137088095Y-115282619D01*
X137088095Y-114980238D01*
X137027619Y-114859285D01*
X136967142Y-114798809D01*
X136846190Y-114738333D01*
X136604285Y-114738333D01*
X136483333Y-114798809D01*
X136422857Y-114859285D01*
X136362380Y-114980238D01*
D15*
X135041784Y-116614523D02*
X135719117Y-116614523D01*
X135124939Y-117884523D01*
X136488677Y-117037857D02*
X136382844Y-117884523D01*
X136307248Y-116554047D02*
X135951951Y-117461190D01*
X136580903Y-117461190D01*
X137398844Y-117884523D02*
X136915034Y-117884523D01*
X137073784Y-116614523D01*
X137696689Y-117824047D02*
X137834272Y-117884523D01*
X138076177Y-117884523D01*
X138180498Y-117824047D01*
X138236439Y-117763571D01*
X138299939Y-117642619D01*
X138315058Y-117521666D01*
X138281796Y-117400714D01*
X138240975Y-117340238D01*
X138151772Y-117279761D01*
X137965808Y-117219285D01*
X137876606Y-117158809D01*
X137835784Y-117098333D01*
X137802522Y-116977380D01*
X137817641Y-116856428D01*
X137881141Y-116735476D01*
X137937082Y-116675000D01*
X138041403Y-116614523D01*
X138283308Y-116614523D01*
X138420891Y-116675000D01*
X139299308Y-116614523D02*
X139105784Y-116614523D01*
X139001463Y-116675000D01*
X138945522Y-116735476D01*
X138826082Y-116916904D01*
X138747463Y-117158809D01*
X138686987Y-117642619D01*
X138720248Y-117763571D01*
X138761070Y-117824047D01*
X138850272Y-117884523D01*
X139043796Y-117884523D01*
X139148117Y-117824047D01*
X139204058Y-117763571D01*
X139267558Y-117642619D01*
X139305356Y-117340238D01*
X139272094Y-117219285D01*
X139231272Y-117158809D01*
X139142070Y-117098333D01*
X138948546Y-117098333D01*
X138844225Y-117158809D01*
X138788284Y-117219285D01*
X138724784Y-117340238D01*
X139908606Y-117158809D02*
X139819403Y-117098333D01*
X139778582Y-117037857D01*
X139745320Y-116916904D01*
X139752879Y-116856428D01*
X139816379Y-116735476D01*
X139872320Y-116675000D01*
X139976641Y-116614523D01*
X140170165Y-116614523D01*
X140259367Y-116675000D01*
X140300189Y-116735476D01*
X140333451Y-116856428D01*
X140325891Y-116916904D01*
X140262391Y-117037857D01*
X140206451Y-117098333D01*
X140102129Y-117158809D01*
X139908606Y-117158809D01*
X139804284Y-117219285D01*
X139748344Y-117279761D01*
X139684844Y-117400714D01*
X139654606Y-117642619D01*
X139687867Y-117763571D01*
X139728689Y-117824047D01*
X139817891Y-117884523D01*
X140011415Y-117884523D01*
X140115737Y-117824047D01*
X140171677Y-117763571D01*
X140235177Y-117642619D01*
X140265415Y-117400714D01*
X140232153Y-117279761D01*
X140191332Y-117219285D01*
X140102129Y-117158809D01*
X140876225Y-117158809D02*
X140787022Y-117098333D01*
X140746201Y-117037857D01*
X140712939Y-116916904D01*
X140720498Y-116856428D01*
X140783998Y-116735476D01*
X140839939Y-116675000D01*
X140944260Y-116614523D01*
X141137784Y-116614523D01*
X141226987Y-116675000D01*
X141267808Y-116735476D01*
X141301070Y-116856428D01*
X141293510Y-116916904D01*
X141230010Y-117037857D01*
X141174070Y-117098333D01*
X141069748Y-117158809D01*
X140876225Y-117158809D01*
X140771903Y-117219285D01*
X140715963Y-117279761D01*
X140652463Y-117400714D01*
X140622225Y-117642619D01*
X140655487Y-117763571D01*
X140696308Y-117824047D01*
X140785510Y-117884523D01*
X140979034Y-117884523D01*
X141083356Y-117824047D01*
X141139296Y-117763571D01*
X141202796Y-117642619D01*
X141233034Y-117400714D01*
X141199772Y-117279761D01*
X141158951Y-117219285D01*
X141069748Y-117158809D01*
%TO.C,P2*%
D14*
X193879880Y-92238095D02*
X192879880Y-92238095D01*
X192879880Y-91857142D01*
X192927500Y-91761904D01*
X192975119Y-91714285D01*
X193070357Y-91666666D01*
X193213214Y-91666666D01*
X193308452Y-91714285D01*
X193356071Y-91761904D01*
X193403690Y-91857142D01*
X193403690Y-92238095D01*
X192975119Y-91285714D02*
X192927500Y-91238095D01*
X192879880Y-91142857D01*
X192879880Y-90904761D01*
X192927500Y-90809523D01*
X192975119Y-90761904D01*
X193070357Y-90714285D01*
X193165595Y-90714285D01*
X193308452Y-90761904D01*
X193879880Y-91333333D01*
X193879880Y-90714285D01*
%TO.C,P3*%
D15*
X178870095Y-74529619D02*
X178870095Y-73513619D01*
X179257142Y-73513619D01*
X179353904Y-73562000D01*
X179402285Y-73610380D01*
X179450666Y-73707142D01*
X179450666Y-73852285D01*
X179402285Y-73949047D01*
X179353904Y-73997428D01*
X179257142Y-74045809D01*
X178870095Y-74045809D01*
X179789333Y-73513619D02*
X180418285Y-73513619D01*
X180079619Y-73900666D01*
X180224761Y-73900666D01*
X180321523Y-73949047D01*
X180369904Y-73997428D01*
X180418285Y-74094190D01*
X180418285Y-74336095D01*
X180369904Y-74432857D01*
X180321523Y-74481238D01*
X180224761Y-74529619D01*
X179934476Y-74529619D01*
X179837714Y-74481238D01*
X179789333Y-74432857D01*
D16*
X177947653Y-76447428D02*
X177693653Y-76447428D01*
X177627129Y-76979619D02*
X177754129Y-75963619D01*
X178116986Y-75963619D01*
X178643129Y-76979619D02*
X178280272Y-76979619D01*
X178407272Y-75963619D01*
X179169272Y-75963619D02*
X179314415Y-75963619D01*
X179380938Y-76012000D01*
X179441415Y-76108761D01*
X179453510Y-76302285D01*
X179411177Y-76640952D01*
X179350700Y-76834476D01*
X179266034Y-76931238D01*
X179187415Y-76979619D01*
X179042272Y-76979619D01*
X178975748Y-76931238D01*
X178915272Y-76834476D01*
X178903177Y-76640952D01*
X178945510Y-76302285D01*
X179005986Y-76108761D01*
X179090653Y-76012000D01*
X179169272Y-75963619D01*
X179695415Y-76979619D02*
X179822415Y-75963619D01*
X180112700Y-75963619D01*
X180179224Y-76012000D01*
X180209462Y-76060380D01*
X180233653Y-76157142D01*
X180215510Y-76302285D01*
X180167129Y-76399047D01*
X180124796Y-76447428D01*
X180046177Y-76495809D01*
X179755891Y-76495809D01*
X180457415Y-76979619D02*
X180584415Y-75963619D01*
X180874700Y-75963619D01*
X180941224Y-76012000D01*
X180971462Y-76060380D01*
X180995653Y-76157142D01*
X180977510Y-76302285D01*
X180929129Y-76399047D01*
X180886796Y-76447428D01*
X180808177Y-76495809D01*
X180517891Y-76495809D01*
X181425034Y-76495809D02*
X181364557Y-76979619D01*
X181237557Y-75963619D02*
X181425034Y-76495809D01*
X181745557Y-75963619D01*
%TO.C,R2*%
D14*
X130553333Y-109392380D02*
X130220000Y-108916190D01*
X129981904Y-109392380D02*
X129981904Y-108392380D01*
X130362857Y-108392380D01*
X130458095Y-108440000D01*
X130505714Y-108487619D01*
X130553333Y-108582857D01*
X130553333Y-108725714D01*
X130505714Y-108820952D01*
X130458095Y-108868571D01*
X130362857Y-108916190D01*
X129981904Y-108916190D01*
X130934285Y-108487619D02*
X130981904Y-108440000D01*
X131077142Y-108392380D01*
X131315238Y-108392380D01*
X131410476Y-108440000D01*
X131458095Y-108487619D01*
X131505714Y-108582857D01*
X131505714Y-108678095D01*
X131458095Y-108820952D01*
X130886666Y-109392380D01*
X131505714Y-109392380D01*
X129989538Y-110822380D02*
X129418110Y-110822380D01*
X129703824Y-110822380D02*
X129828824Y-109822380D01*
X129715729Y-109965238D01*
X129608586Y-110060476D01*
X129507395Y-110108095D01*
X130733586Y-109822380D02*
X130828824Y-109822380D01*
X130918110Y-109870000D01*
X130959776Y-109917619D01*
X130995491Y-110012857D01*
X131019300Y-110203333D01*
X130989538Y-110441428D01*
X130918110Y-110631904D01*
X130858586Y-110727142D01*
X130805014Y-110774761D01*
X130703824Y-110822380D01*
X130608586Y-110822380D01*
X130519300Y-110774761D01*
X130477633Y-110727142D01*
X130441919Y-110631904D01*
X130418110Y-110441428D01*
X130447872Y-110203333D01*
X130519300Y-110012857D01*
X130578824Y-109917619D01*
X130632395Y-109870000D01*
X130733586Y-109822380D01*
X131370491Y-110822380D02*
X131495491Y-109822380D01*
X131941919Y-110822380D02*
X131584776Y-110250952D01*
X132066919Y-109822380D02*
X131424062Y-110393809D01*
%TO.C,R1*%
X130273333Y-102602380D02*
X129940000Y-102126190D01*
X129701904Y-102602380D02*
X129701904Y-101602380D01*
X130082857Y-101602380D01*
X130178095Y-101650000D01*
X130225714Y-101697619D01*
X130273333Y-101792857D01*
X130273333Y-101935714D01*
X130225714Y-102030952D01*
X130178095Y-102078571D01*
X130082857Y-102126190D01*
X129701904Y-102126190D01*
X131225714Y-102602380D02*
X130654285Y-102602380D01*
X130940000Y-102602380D02*
X130940000Y-101602380D01*
X130844761Y-101745238D01*
X130749523Y-101840476D01*
X130654285Y-101888095D01*
X129669538Y-103962379D02*
X129098110Y-103962379D01*
X129383824Y-103962379D02*
X129508824Y-102962379D01*
X129395729Y-103105237D01*
X129288586Y-103200475D01*
X129187395Y-103248094D01*
X130413586Y-102962379D02*
X130508824Y-102962379D01*
X130598110Y-103009999D01*
X130639776Y-103057618D01*
X130675491Y-103152856D01*
X130699300Y-103343332D01*
X130669538Y-103581427D01*
X130598110Y-103771903D01*
X130538586Y-103867141D01*
X130485014Y-103914760D01*
X130383824Y-103962379D01*
X130288586Y-103962379D01*
X130199300Y-103914760D01*
X130157633Y-103867141D01*
X130121919Y-103771903D01*
X130098110Y-103581427D01*
X130127872Y-103343332D01*
X130199300Y-103152856D01*
X130258824Y-103057618D01*
X130312395Y-103009999D01*
X130413586Y-102962379D01*
X131050491Y-103962379D02*
X131175491Y-102962379D01*
X131621919Y-103962379D02*
X131264776Y-103390951D01*
X131746919Y-102962379D02*
X131104062Y-103533808D01*
%TO.C,U2*%
D11*
X137522380Y-108744523D02*
X137522380Y-109772619D01*
X137582857Y-109893571D01*
X137643333Y-109954047D01*
X137764285Y-110014523D01*
X138006190Y-110014523D01*
X138127142Y-109954047D01*
X138187619Y-109893571D01*
X138248095Y-109772619D01*
X138248095Y-108744523D01*
X138792380Y-108865476D02*
X138852857Y-108805000D01*
X138973809Y-108744523D01*
X139276190Y-108744523D01*
X139397142Y-108805000D01*
X139457619Y-108865476D01*
X139518095Y-108986428D01*
X139518095Y-109107380D01*
X139457619Y-109288809D01*
X138731904Y-110014523D01*
X139518095Y-110014523D01*
D15*
X145441784Y-108574523D02*
X146119117Y-108574523D01*
X145524939Y-109844523D01*
X146888677Y-108997857D02*
X146782844Y-109844523D01*
X146707248Y-108514047D02*
X146351951Y-109421190D01*
X146980903Y-109421190D01*
X147798844Y-109844523D02*
X147315034Y-109844523D01*
X147473784Y-108574523D01*
X148096689Y-109784047D02*
X148234272Y-109844523D01*
X148476177Y-109844523D01*
X148580498Y-109784047D01*
X148636439Y-109723571D01*
X148699939Y-109602619D01*
X148715058Y-109481666D01*
X148681796Y-109360714D01*
X148640975Y-109300238D01*
X148551772Y-109239761D01*
X148365808Y-109179285D01*
X148276606Y-109118809D01*
X148235784Y-109058333D01*
X148202522Y-108937380D01*
X148217641Y-108816428D01*
X148281141Y-108695476D01*
X148337082Y-108635000D01*
X148441403Y-108574523D01*
X148683308Y-108574523D01*
X148820891Y-108635000D01*
X149637320Y-109844523D02*
X149056748Y-109844523D01*
X149347034Y-109844523D02*
X149505784Y-108574523D01*
X149386344Y-108755952D01*
X149274463Y-108876904D01*
X149170141Y-108937380D01*
X150167998Y-108695476D02*
X150223939Y-108635000D01*
X150328260Y-108574523D01*
X150570165Y-108574523D01*
X150659367Y-108635000D01*
X150700189Y-108695476D01*
X150733451Y-108816428D01*
X150718332Y-108937380D01*
X150647272Y-109118809D01*
X149975987Y-109844523D01*
X150604939Y-109844523D01*
X151682927Y-108574523D02*
X151199117Y-108574523D01*
X151075141Y-109179285D01*
X151131082Y-109118809D01*
X151235403Y-109058333D01*
X151477308Y-109058333D01*
X151566510Y-109118809D01*
X151607332Y-109179285D01*
X151640594Y-109300238D01*
X151602796Y-109602619D01*
X151539296Y-109723571D01*
X151483356Y-109784047D01*
X151379034Y-109844523D01*
X151137129Y-109844523D01*
X151047927Y-109784047D01*
X151007106Y-109723571D01*
%TO.C,C2*%
X133152857Y-108469333D02*
X133201238Y-108517714D01*
X133249619Y-108662857D01*
X133249619Y-108759619D01*
X133201238Y-108904761D01*
X133104476Y-109001523D01*
X133007714Y-109049904D01*
X132814190Y-109098285D01*
X132669047Y-109098285D01*
X132475523Y-109049904D01*
X132378761Y-109001523D01*
X132282000Y-108904761D01*
X132233619Y-108759619D01*
X132233619Y-108662857D01*
X132282000Y-108517714D01*
X132330380Y-108469333D01*
X132330380Y-108082285D02*
X132282000Y-108033904D01*
X132233619Y-107937142D01*
X132233619Y-107695238D01*
X132282000Y-107598476D01*
X132330380Y-107550095D01*
X132427142Y-107501714D01*
X132523904Y-107501714D01*
X132669047Y-107550095D01*
X133249619Y-108130666D01*
X133249619Y-107501714D01*
D16*
X132233619Y-104446442D02*
X132233619Y-104373870D01*
X132282000Y-104307346D01*
X132330380Y-104277108D01*
X132427142Y-104252918D01*
X132620666Y-104240822D01*
X132862571Y-104271061D01*
X133056095Y-104331537D01*
X133152857Y-104379918D01*
X133201238Y-104422251D01*
X133249619Y-104500870D01*
X133249619Y-104573442D01*
X133201238Y-104639965D01*
X133152857Y-104670203D01*
X133056095Y-104694394D01*
X132862571Y-104706489D01*
X132620666Y-104676251D01*
X132427142Y-104615775D01*
X132330380Y-104567394D01*
X132282000Y-104525061D01*
X132233619Y-104446442D01*
X133152857Y-103980775D02*
X133201238Y-103950537D01*
X133249619Y-103992870D01*
X133201238Y-104023108D01*
X133152857Y-103980775D01*
X133249619Y-103992870D01*
X133249619Y-103230870D02*
X133249619Y-103666299D01*
X133249619Y-103448584D02*
X132233619Y-103321584D01*
X132378761Y-103412299D01*
X132475523Y-103496965D01*
X132523904Y-103575584D01*
X132572285Y-102493061D02*
X133249619Y-102577727D01*
X132572285Y-102819632D02*
X133104476Y-102886156D01*
X133201238Y-102861965D01*
X133249619Y-102795442D01*
X133249619Y-102686584D01*
X133201238Y-102607965D01*
X133152857Y-102565632D01*
X132717428Y-101894346D02*
X132717428Y-102148346D01*
X133249619Y-102214870D02*
X132233619Y-102087870D01*
X132233619Y-101725013D01*
%TO.C,C11*%
D15*
X190236857Y-117032857D02*
X190188476Y-117081238D01*
X190043333Y-117129619D01*
X189946571Y-117129619D01*
X189801428Y-117081238D01*
X189704666Y-116984476D01*
X189656285Y-116887714D01*
X189607904Y-116694190D01*
X189607904Y-116549047D01*
X189656285Y-116355523D01*
X189704666Y-116258761D01*
X189801428Y-116162000D01*
X189946571Y-116113619D01*
X190043333Y-116113619D01*
X190188476Y-116162000D01*
X190236857Y-116210380D01*
X191204476Y-117129619D02*
X190623904Y-117129619D01*
X190914190Y-117129619D02*
X190914190Y-116113619D01*
X190817428Y-116258761D01*
X190720666Y-116355523D01*
X190623904Y-116403904D01*
X192172095Y-117129619D02*
X191591523Y-117129619D01*
X191881809Y-117129619D02*
X191881809Y-116113619D01*
X191785047Y-116258761D01*
X191688285Y-116355523D01*
X191591523Y-116403904D01*
D16*
X189971986Y-121719619D02*
X189536557Y-121719619D01*
X189754272Y-121719619D02*
X189881272Y-120703619D01*
X189790557Y-120848761D01*
X189705891Y-120945523D01*
X189627272Y-120993904D01*
X190570700Y-120703619D02*
X190643272Y-120703619D01*
X190709796Y-120752000D01*
X190740034Y-120800380D01*
X190764224Y-120897142D01*
X190776319Y-121090666D01*
X190746081Y-121332571D01*
X190685605Y-121526095D01*
X190637224Y-121622857D01*
X190594891Y-121671238D01*
X190516272Y-121719619D01*
X190443700Y-121719619D01*
X190377177Y-121671238D01*
X190346938Y-121622857D01*
X190322748Y-121526095D01*
X190310653Y-121332571D01*
X190340891Y-121090666D01*
X190401367Y-120897142D01*
X190449748Y-120800380D01*
X190492081Y-120752000D01*
X190570700Y-120703619D01*
X191435510Y-121042285D02*
X191350843Y-121719619D01*
X191108938Y-121042285D02*
X191042415Y-121574476D01*
X191066605Y-121671238D01*
X191133129Y-121719619D01*
X191241986Y-121719619D01*
X191320605Y-121671238D01*
X191362938Y-121622857D01*
X192034224Y-121187428D02*
X191780224Y-121187428D01*
X191713700Y-121719619D02*
X191840700Y-120703619D01*
X192203557Y-120703619D01*
D15*
X188102571Y-118657047D02*
X188102571Y-117882952D01*
X188489619Y-118270000D02*
X187715523Y-118270000D01*
%TO.C,C12*%
X115839357Y-62702857D02*
X115790976Y-62751238D01*
X115645833Y-62799619D01*
X115549071Y-62799619D01*
X115403928Y-62751238D01*
X115307166Y-62654476D01*
X115258785Y-62557714D01*
X115210404Y-62364190D01*
X115210404Y-62219047D01*
X115258785Y-62025523D01*
X115307166Y-61928761D01*
X115403928Y-61832000D01*
X115549071Y-61783619D01*
X115645833Y-61783619D01*
X115790976Y-61832000D01*
X115839357Y-61880380D01*
X116806976Y-62799619D02*
X116226404Y-62799619D01*
X116516690Y-62799619D02*
X116516690Y-61783619D01*
X116419928Y-61928761D01*
X116323166Y-62025523D01*
X116226404Y-62073904D01*
X117194023Y-61880380D02*
X117242404Y-61832000D01*
X117339166Y-61783619D01*
X117581071Y-61783619D01*
X117677833Y-61832000D01*
X117726214Y-61880380D01*
X117774595Y-61977142D01*
X117774595Y-62073904D01*
X117726214Y-62219047D01*
X117145642Y-62799619D01*
X117774595Y-62799619D01*
D16*
X120971986Y-62799619D02*
X120536557Y-62799619D01*
X120754272Y-62799619D02*
X120881272Y-61783619D01*
X120790557Y-61928761D01*
X120705891Y-62025523D01*
X120627272Y-62073904D01*
X121570700Y-61783619D02*
X121643272Y-61783619D01*
X121709796Y-61832000D01*
X121740034Y-61880380D01*
X121764224Y-61977142D01*
X121776319Y-62170666D01*
X121746081Y-62412571D01*
X121685605Y-62606095D01*
X121637224Y-62702857D01*
X121594891Y-62751238D01*
X121516272Y-62799619D01*
X121443700Y-62799619D01*
X121377177Y-62751238D01*
X121346938Y-62702857D01*
X121322748Y-62606095D01*
X121310653Y-62412571D01*
X121340891Y-62170666D01*
X121401367Y-61977142D01*
X121449748Y-61880380D01*
X121492081Y-61832000D01*
X121570700Y-61783619D01*
X122435510Y-62122285D02*
X122350843Y-62799619D01*
X122108938Y-62122285D02*
X122042415Y-62654476D01*
X122066605Y-62751238D01*
X122133129Y-62799619D01*
X122241986Y-62799619D01*
X122320605Y-62751238D01*
X122362938Y-62702857D01*
X123034224Y-62267428D02*
X122780224Y-62267428D01*
X122713700Y-62799619D02*
X122840700Y-61783619D01*
X123203557Y-61783619D01*
D15*
X117375452Y-60825071D02*
X118149547Y-60825071D01*
X117762500Y-61212119D02*
X117762500Y-60438023D01*
%TO.C,U5*%
D11*
X160322380Y-120907023D02*
X160322380Y-121935119D01*
X160382857Y-122056071D01*
X160443333Y-122116547D01*
X160564285Y-122177023D01*
X160806190Y-122177023D01*
X160927142Y-122116547D01*
X160987619Y-122056071D01*
X161048095Y-121935119D01*
X161048095Y-120907023D01*
X162257619Y-120907023D02*
X161652857Y-120907023D01*
X161592380Y-121511785D01*
X161652857Y-121451309D01*
X161773809Y-121390833D01*
X162076190Y-121390833D01*
X162197142Y-121451309D01*
X162257619Y-121511785D01*
X162318095Y-121632738D01*
X162318095Y-121935119D01*
X162257619Y-122056071D01*
X162197142Y-122116547D01*
X162076190Y-122177023D01*
X161773809Y-122177023D01*
X161652857Y-122116547D01*
X161592380Y-122056071D01*
D15*
X176249284Y-120907023D02*
X176926617Y-120907023D01*
X176332439Y-122177023D01*
X177696177Y-121330357D02*
X177590344Y-122177023D01*
X177514748Y-120846547D02*
X177159451Y-121753690D01*
X177788403Y-121753690D01*
X178606344Y-122177023D02*
X178122534Y-122177023D01*
X178281284Y-120907023D01*
X178904189Y-122116547D02*
X179041772Y-122177023D01*
X179283677Y-122177023D01*
X179387998Y-122116547D01*
X179443939Y-122056071D01*
X179507439Y-121935119D01*
X179522558Y-121814166D01*
X179489296Y-121693214D01*
X179448475Y-121632738D01*
X179359272Y-121572261D01*
X179173308Y-121511785D01*
X179084106Y-121451309D01*
X179043284Y-121390833D01*
X179010022Y-121269880D01*
X179025141Y-121148928D01*
X179088641Y-121027976D01*
X179144582Y-120967500D01*
X179248903Y-120907023D01*
X179490808Y-120907023D01*
X179628391Y-120967500D01*
X180506808Y-120907023D02*
X180313284Y-120907023D01*
X180208963Y-120967500D01*
X180153022Y-121027976D01*
X180033582Y-121209404D01*
X179954963Y-121451309D01*
X179894487Y-121935119D01*
X179927748Y-122056071D01*
X179968570Y-122116547D01*
X180057772Y-122177023D01*
X180251296Y-122177023D01*
X180355617Y-122116547D01*
X180411558Y-122056071D01*
X180475058Y-121935119D01*
X180512856Y-121632738D01*
X180479594Y-121511785D01*
X180438772Y-121451309D01*
X180349570Y-121390833D01*
X180156046Y-121390833D01*
X180051725Y-121451309D01*
X179995784Y-121511785D01*
X179932284Y-121632738D01*
X181116106Y-121451309D02*
X181026903Y-121390833D01*
X180986082Y-121330357D01*
X180952820Y-121209404D01*
X180960379Y-121148928D01*
X181023879Y-121027976D01*
X181079820Y-120967500D01*
X181184141Y-120907023D01*
X181377665Y-120907023D01*
X181466867Y-120967500D01*
X181507689Y-121027976D01*
X181540951Y-121148928D01*
X181533391Y-121209404D01*
X181469891Y-121330357D01*
X181413951Y-121390833D01*
X181309629Y-121451309D01*
X181116106Y-121451309D01*
X181011784Y-121511785D01*
X180955844Y-121572261D01*
X180892344Y-121693214D01*
X180862106Y-121935119D01*
X180895367Y-122056071D01*
X180936189Y-122116547D01*
X181025391Y-122177023D01*
X181218915Y-122177023D01*
X181323237Y-122116547D01*
X181379177Y-122056071D01*
X181442677Y-121935119D01*
X181472915Y-121693214D01*
X181439653Y-121572261D01*
X181398832Y-121511785D01*
X181309629Y-121451309D01*
X182083725Y-121451309D02*
X181994522Y-121390833D01*
X181953701Y-121330357D01*
X181920439Y-121209404D01*
X181927998Y-121148928D01*
X181991498Y-121027976D01*
X182047439Y-120967500D01*
X182151760Y-120907023D01*
X182345284Y-120907023D01*
X182434487Y-120967500D01*
X182475308Y-121027976D01*
X182508570Y-121148928D01*
X182501010Y-121209404D01*
X182437510Y-121330357D01*
X182381570Y-121390833D01*
X182277248Y-121451309D01*
X182083725Y-121451309D01*
X181979403Y-121511785D01*
X181923463Y-121572261D01*
X181859963Y-121693214D01*
X181829725Y-121935119D01*
X181862987Y-122056071D01*
X181903808Y-122116547D01*
X181993010Y-122177023D01*
X182186534Y-122177023D01*
X182290856Y-122116547D01*
X182346796Y-122056071D01*
X182410296Y-121935119D01*
X182440534Y-121693214D01*
X182407272Y-121572261D01*
X182366451Y-121511785D01*
X182277248Y-121451309D01*
%TO.C,SW2*%
D11*
X180551666Y-103384047D02*
X180733095Y-103444523D01*
X181035476Y-103444523D01*
X181156428Y-103384047D01*
X181216904Y-103323571D01*
X181277380Y-103202619D01*
X181277380Y-103081666D01*
X181216904Y-102960714D01*
X181156428Y-102900238D01*
X181035476Y-102839761D01*
X180793571Y-102779285D01*
X180672619Y-102718809D01*
X180612142Y-102658333D01*
X180551666Y-102537380D01*
X180551666Y-102416428D01*
X180612142Y-102295476D01*
X180672619Y-102235000D01*
X180793571Y-102174523D01*
X181095952Y-102174523D01*
X181277380Y-102235000D01*
X181700714Y-102174523D02*
X182003095Y-103444523D01*
X182245000Y-102537380D01*
X182486904Y-103444523D01*
X182789285Y-102174523D01*
X183212619Y-102295476D02*
X183273095Y-102235000D01*
X183394047Y-102174523D01*
X183696428Y-102174523D01*
X183817380Y-102235000D01*
X183877857Y-102295476D01*
X183938333Y-102416428D01*
X183938333Y-102537380D01*
X183877857Y-102718809D01*
X183152142Y-103444523D01*
X183938333Y-103444523D01*
D15*
X180713939Y-105984523D02*
X180450867Y-105379761D01*
X180133367Y-105984523D02*
X180292117Y-104714523D01*
X180679165Y-104714523D01*
X180768367Y-104775000D01*
X180809189Y-104835476D01*
X180842451Y-104956428D01*
X180819772Y-105137857D01*
X180756272Y-105258809D01*
X180700332Y-105319285D01*
X180596010Y-105379761D01*
X180208963Y-105379761D01*
X181501641Y-104714523D02*
X181695165Y-104714523D01*
X181784367Y-104775000D01*
X181866010Y-104895952D01*
X181884153Y-105137857D01*
X181831237Y-105561190D01*
X181752617Y-105803095D01*
X181640737Y-105924047D01*
X181536415Y-105984523D01*
X181342891Y-105984523D01*
X181253689Y-105924047D01*
X181172046Y-105803095D01*
X181153903Y-105561190D01*
X181206820Y-105137857D01*
X181285439Y-104895952D01*
X181397320Y-104775000D01*
X181501641Y-104714523D01*
X182213748Y-105984523D02*
X182372498Y-104714523D01*
X182597772Y-105621666D01*
X183049832Y-104714523D01*
X182891082Y-105984523D01*
X183117867Y-106105476D02*
X183891963Y-106105476D01*
X184744677Y-105863571D02*
X184688737Y-105924047D01*
X184536034Y-105984523D01*
X184439272Y-105984523D01*
X184301689Y-105924047D01*
X184220046Y-105803095D01*
X184186784Y-105682142D01*
X184168641Y-105440238D01*
X184191320Y-105258809D01*
X184269939Y-105016904D01*
X184333439Y-104895952D01*
X184445320Y-104775000D01*
X184598022Y-104714523D01*
X184694784Y-104714523D01*
X184832367Y-104775000D01*
X184873189Y-104835476D01*
X185517260Y-104714523D02*
X185710784Y-104714523D01*
X185799987Y-104775000D01*
X185881629Y-104895952D01*
X185899772Y-105137857D01*
X185846856Y-105561190D01*
X185768237Y-105803095D01*
X185656356Y-105924047D01*
X185552034Y-105984523D01*
X185358510Y-105984523D01*
X185269308Y-105924047D01*
X185187665Y-105803095D01*
X185169522Y-105561190D01*
X185222439Y-105137857D01*
X185301058Y-104895952D01*
X185412939Y-104775000D01*
X185517260Y-104714523D01*
X186229367Y-105984523D02*
X186388117Y-104714523D01*
X186809939Y-105984523D01*
X186968689Y-104714523D01*
X187715570Y-105319285D02*
X187376903Y-105319285D01*
X187293748Y-105984523D02*
X187452498Y-104714523D01*
X187936308Y-104714523D01*
X188164606Y-105984523D02*
X188323356Y-104714523D01*
X189331796Y-104775000D02*
X189242594Y-104714523D01*
X189097451Y-104714523D01*
X188944748Y-104775000D01*
X188832867Y-104895952D01*
X188769367Y-105016904D01*
X188690748Y-105258809D01*
X188668070Y-105440238D01*
X188686213Y-105682142D01*
X188719475Y-105803095D01*
X188801117Y-105924047D01*
X188938701Y-105984523D01*
X189035463Y-105984523D01*
X189188165Y-105924047D01*
X189244106Y-105863571D01*
X189297022Y-105440238D01*
X189103498Y-105440238D01*
%TO.C,C1*%
X105772857Y-108119333D02*
X105821238Y-108167714D01*
X105869619Y-108312857D01*
X105869619Y-108409619D01*
X105821238Y-108554761D01*
X105724476Y-108651523D01*
X105627714Y-108699904D01*
X105434190Y-108748285D01*
X105289047Y-108748285D01*
X105095523Y-108699904D01*
X104998761Y-108651523D01*
X104902000Y-108554761D01*
X104853619Y-108409619D01*
X104853619Y-108312857D01*
X104902000Y-108167714D01*
X104950380Y-108119333D01*
X105869619Y-107151714D02*
X105869619Y-107732285D01*
X105869619Y-107442000D02*
X104853619Y-107442000D01*
X104998761Y-107538761D01*
X105095523Y-107635523D01*
X105143904Y-107732285D01*
D16*
X104853619Y-104096442D02*
X104853619Y-104023870D01*
X104902000Y-103957346D01*
X104950380Y-103927108D01*
X105047142Y-103902918D01*
X105240666Y-103890822D01*
X105482571Y-103921061D01*
X105676095Y-103981537D01*
X105772857Y-104029918D01*
X105821238Y-104072251D01*
X105869619Y-104150870D01*
X105869619Y-104223442D01*
X105821238Y-104289965D01*
X105772857Y-104320203D01*
X105676095Y-104344394D01*
X105482571Y-104356489D01*
X105240666Y-104326251D01*
X105047142Y-104265775D01*
X104950380Y-104217394D01*
X104902000Y-104175061D01*
X104853619Y-104096442D01*
X105772857Y-103630775D02*
X105821238Y-103600537D01*
X105869619Y-103642870D01*
X105821238Y-103673108D01*
X105772857Y-103630775D01*
X105869619Y-103642870D01*
X105869619Y-102880870D02*
X105869619Y-103316299D01*
X105869619Y-103098584D02*
X104853619Y-102971584D01*
X104998761Y-103062299D01*
X105095523Y-103146965D01*
X105143904Y-103225584D01*
X105192285Y-102143061D02*
X105869619Y-102227727D01*
X105192285Y-102469632D02*
X105724476Y-102536156D01*
X105821238Y-102511965D01*
X105869619Y-102445442D01*
X105869619Y-102336584D01*
X105821238Y-102257965D01*
X105772857Y-102215632D01*
X105337428Y-101544346D02*
X105337428Y-101798346D01*
X105869619Y-101864870D02*
X104853619Y-101737870D01*
X104853619Y-101375013D01*
%TO.C,C7*%
D15*
X105772857Y-120819333D02*
X105821238Y-120867714D01*
X105869619Y-121012857D01*
X105869619Y-121109619D01*
X105821238Y-121254761D01*
X105724476Y-121351523D01*
X105627714Y-121399904D01*
X105434190Y-121448285D01*
X105289047Y-121448285D01*
X105095523Y-121399904D01*
X104998761Y-121351523D01*
X104902000Y-121254761D01*
X104853619Y-121109619D01*
X104853619Y-121012857D01*
X104902000Y-120867714D01*
X104950380Y-120819333D01*
X104853619Y-120480666D02*
X104853619Y-119803333D01*
X105869619Y-120238761D01*
D16*
X104853619Y-116796442D02*
X104853619Y-116723870D01*
X104902000Y-116657346D01*
X104950380Y-116627108D01*
X105047142Y-116602918D01*
X105240666Y-116590822D01*
X105482571Y-116621061D01*
X105676095Y-116681537D01*
X105772857Y-116729918D01*
X105821238Y-116772251D01*
X105869619Y-116850870D01*
X105869619Y-116923442D01*
X105821238Y-116989965D01*
X105772857Y-117020203D01*
X105676095Y-117044394D01*
X105482571Y-117056489D01*
X105240666Y-117026251D01*
X105047142Y-116965775D01*
X104950380Y-116917394D01*
X104902000Y-116875061D01*
X104853619Y-116796442D01*
X105772857Y-116330775D02*
X105821238Y-116300537D01*
X105869619Y-116342870D01*
X105821238Y-116373108D01*
X105772857Y-116330775D01*
X105869619Y-116342870D01*
X105869619Y-115580870D02*
X105869619Y-116016299D01*
X105869619Y-115798584D02*
X104853619Y-115671584D01*
X104998761Y-115762299D01*
X105095523Y-115846965D01*
X105143904Y-115925584D01*
X105192285Y-114843061D02*
X105869619Y-114927727D01*
X105192285Y-115169632D02*
X105724476Y-115236156D01*
X105821238Y-115211965D01*
X105869619Y-115145442D01*
X105869619Y-115036584D01*
X105821238Y-114957965D01*
X105772857Y-114915632D01*
X105337428Y-114244346D02*
X105337428Y-114498346D01*
X105869619Y-114564870D02*
X104853619Y-114437870D01*
X104853619Y-114075013D01*
%TO.C,C5*%
D15*
X157832857Y-120809333D02*
X157881238Y-120857714D01*
X157929619Y-121002857D01*
X157929619Y-121099619D01*
X157881238Y-121244761D01*
X157784476Y-121341523D01*
X157687714Y-121389904D01*
X157494190Y-121438285D01*
X157349047Y-121438285D01*
X157155523Y-121389904D01*
X157058761Y-121341523D01*
X156962000Y-121244761D01*
X156913619Y-121099619D01*
X156913619Y-121002857D01*
X156962000Y-120857714D01*
X157010380Y-120809333D01*
X156913619Y-119890095D02*
X156913619Y-120373904D01*
X157397428Y-120422285D01*
X157349047Y-120373904D01*
X157300666Y-120277142D01*
X157300666Y-120035238D01*
X157349047Y-119938476D01*
X157397428Y-119890095D01*
X157494190Y-119841714D01*
X157736095Y-119841714D01*
X157832857Y-119890095D01*
X157881238Y-119938476D01*
X157929619Y-120035238D01*
X157929619Y-120277142D01*
X157881238Y-120373904D01*
X157832857Y-120422285D01*
D16*
X156913619Y-116786442D02*
X156913619Y-116713870D01*
X156962000Y-116647346D01*
X157010380Y-116617108D01*
X157107142Y-116592918D01*
X157300666Y-116580822D01*
X157542571Y-116611061D01*
X157736095Y-116671537D01*
X157832857Y-116719918D01*
X157881238Y-116762251D01*
X157929619Y-116840870D01*
X157929619Y-116913442D01*
X157881238Y-116979965D01*
X157832857Y-117010203D01*
X157736095Y-117034394D01*
X157542571Y-117046489D01*
X157300666Y-117016251D01*
X157107142Y-116955775D01*
X157010380Y-116907394D01*
X156962000Y-116865061D01*
X156913619Y-116786442D01*
X157832857Y-116320775D02*
X157881238Y-116290537D01*
X157929619Y-116332870D01*
X157881238Y-116363108D01*
X157832857Y-116320775D01*
X157929619Y-116332870D01*
X157929619Y-115570870D02*
X157929619Y-116006299D01*
X157929619Y-115788584D02*
X156913619Y-115661584D01*
X157058761Y-115752299D01*
X157155523Y-115836965D01*
X157203904Y-115915584D01*
X157252285Y-114833061D02*
X157929619Y-114917727D01*
X157252285Y-115159632D02*
X157784476Y-115226156D01*
X157881238Y-115201965D01*
X157929619Y-115135442D01*
X157929619Y-115026584D01*
X157881238Y-114947965D01*
X157832857Y-114905632D01*
X157397428Y-114234346D02*
X157397428Y-114488346D01*
X157929619Y-114554870D02*
X156913619Y-114427870D01*
X156913619Y-114065013D01*
%TO.C,C4*%
D15*
X137592857Y-81209333D02*
X137641238Y-81257714D01*
X137689619Y-81402857D01*
X137689619Y-81499619D01*
X137641238Y-81644761D01*
X137544476Y-81741523D01*
X137447714Y-81789904D01*
X137254190Y-81838285D01*
X137109047Y-81838285D01*
X136915523Y-81789904D01*
X136818761Y-81741523D01*
X136722000Y-81644761D01*
X136673619Y-81499619D01*
X136673619Y-81402857D01*
X136722000Y-81257714D01*
X136770380Y-81209333D01*
X137012285Y-80338476D02*
X137689619Y-80338476D01*
X136625238Y-80580380D02*
X137350952Y-80822285D01*
X137350952Y-80193333D01*
D16*
X136613619Y-87076442D02*
X136613619Y-87003870D01*
X136662000Y-86937346D01*
X136710380Y-86907108D01*
X136807142Y-86882918D01*
X137000666Y-86870822D01*
X137242571Y-86901061D01*
X137436095Y-86961537D01*
X137532857Y-87009918D01*
X137581238Y-87052251D01*
X137629619Y-87130870D01*
X137629619Y-87203442D01*
X137581238Y-87269965D01*
X137532857Y-87300203D01*
X137436095Y-87324394D01*
X137242571Y-87336489D01*
X137000666Y-87306251D01*
X136807142Y-87245775D01*
X136710380Y-87197394D01*
X136662000Y-87155061D01*
X136613619Y-87076442D01*
X137532857Y-86610775D02*
X137581238Y-86580537D01*
X137629619Y-86622870D01*
X137581238Y-86653108D01*
X137532857Y-86610775D01*
X137629619Y-86622870D01*
X137629619Y-85860870D02*
X137629619Y-86296299D01*
X137629619Y-86078584D02*
X136613619Y-85951584D01*
X136758761Y-86042299D01*
X136855523Y-86126965D01*
X136903904Y-86205584D01*
X136952285Y-85123061D02*
X137629619Y-85207727D01*
X136952285Y-85449632D02*
X137484476Y-85516156D01*
X137581238Y-85491965D01*
X137629619Y-85425442D01*
X137629619Y-85316584D01*
X137581238Y-85237965D01*
X137532857Y-85195632D01*
X137097428Y-84524346D02*
X137097428Y-84778346D01*
X137629619Y-84844870D02*
X136613619Y-84717870D01*
X136613619Y-84355013D01*
%TO.C,C16*%
D15*
X144832857Y-68703142D02*
X144881238Y-68751523D01*
X144929619Y-68896666D01*
X144929619Y-68993428D01*
X144881238Y-69138571D01*
X144784476Y-69235333D01*
X144687714Y-69283714D01*
X144494190Y-69332095D01*
X144349047Y-69332095D01*
X144155523Y-69283714D01*
X144058761Y-69235333D01*
X143962000Y-69138571D01*
X143913619Y-68993428D01*
X143913619Y-68896666D01*
X143962000Y-68751523D01*
X144010380Y-68703142D01*
X144929619Y-67735523D02*
X144929619Y-68316095D01*
X144929619Y-68025809D02*
X143913619Y-68025809D01*
X144058761Y-68122571D01*
X144155523Y-68219333D01*
X144203904Y-68316095D01*
X143913619Y-66864666D02*
X143913619Y-67058190D01*
X143962000Y-67154952D01*
X144010380Y-67203333D01*
X144155523Y-67300095D01*
X144349047Y-67348476D01*
X144736095Y-67348476D01*
X144832857Y-67300095D01*
X144881238Y-67251714D01*
X144929619Y-67154952D01*
X144929619Y-66961428D01*
X144881238Y-66864666D01*
X144832857Y-66816285D01*
X144736095Y-66767904D01*
X144494190Y-66767904D01*
X144397428Y-66816285D01*
X144349047Y-66864666D01*
X144300666Y-66961428D01*
X144300666Y-67154952D01*
X144349047Y-67251714D01*
X144397428Y-67300095D01*
X144494190Y-67348476D01*
D16*
X141780380Y-69183537D02*
X141732000Y-69141203D01*
X141683619Y-69062584D01*
X141683619Y-68881156D01*
X141732000Y-68814632D01*
X141780380Y-68784394D01*
X141877142Y-68760203D01*
X141973904Y-68772299D01*
X142119047Y-68826727D01*
X142699619Y-69334727D01*
X142699619Y-68863013D01*
X141780380Y-68457822D02*
X141732000Y-68415489D01*
X141683619Y-68336870D01*
X141683619Y-68155442D01*
X141732000Y-68088918D01*
X141780380Y-68058680D01*
X141877142Y-68034489D01*
X141973904Y-68046584D01*
X142119047Y-68101013D01*
X142699619Y-68609013D01*
X142699619Y-68137299D01*
X142022285Y-67726061D02*
X143038285Y-67853061D01*
X142070666Y-67732108D02*
X142022285Y-67653489D01*
X142022285Y-67508346D01*
X142070666Y-67441822D01*
X142119047Y-67411584D01*
X142215809Y-67387394D01*
X142506095Y-67423680D01*
X142602857Y-67472061D01*
X142651238Y-67514394D01*
X142699619Y-67593013D01*
X142699619Y-67738156D01*
X142651238Y-67804680D01*
X142167428Y-66800775D02*
X142167428Y-67054775D01*
X142699619Y-67121299D02*
X141683619Y-66994299D01*
X141683619Y-66631442D01*
%TO.C,C15*%
D15*
X150002857Y-68513142D02*
X150051238Y-68561523D01*
X150099619Y-68706666D01*
X150099619Y-68803428D01*
X150051238Y-68948571D01*
X149954476Y-69045333D01*
X149857714Y-69093714D01*
X149664190Y-69142095D01*
X149519047Y-69142095D01*
X149325523Y-69093714D01*
X149228761Y-69045333D01*
X149132000Y-68948571D01*
X149083619Y-68803428D01*
X149083619Y-68706666D01*
X149132000Y-68561523D01*
X149180380Y-68513142D01*
X150099619Y-67545523D02*
X150099619Y-68126095D01*
X150099619Y-67835809D02*
X149083619Y-67835809D01*
X149228761Y-67932571D01*
X149325523Y-68029333D01*
X149373904Y-68126095D01*
X149083619Y-66626285D02*
X149083619Y-67110095D01*
X149567428Y-67158476D01*
X149519047Y-67110095D01*
X149470666Y-67013333D01*
X149470666Y-66771428D01*
X149519047Y-66674666D01*
X149567428Y-66626285D01*
X149664190Y-66577904D01*
X149906095Y-66577904D01*
X150002857Y-66626285D01*
X150051238Y-66674666D01*
X150099619Y-66771428D01*
X150099619Y-67013333D01*
X150051238Y-67110095D01*
X150002857Y-67158476D01*
D16*
X146860380Y-69183537D02*
X146812000Y-69141203D01*
X146763619Y-69062584D01*
X146763619Y-68881156D01*
X146812000Y-68814632D01*
X146860380Y-68784394D01*
X146957142Y-68760203D01*
X147053904Y-68772299D01*
X147199047Y-68826727D01*
X147779619Y-69334727D01*
X147779619Y-68863013D01*
X146860380Y-68457822D02*
X146812000Y-68415489D01*
X146763619Y-68336870D01*
X146763619Y-68155442D01*
X146812000Y-68088918D01*
X146860380Y-68058680D01*
X146957142Y-68034489D01*
X147053904Y-68046584D01*
X147199047Y-68101013D01*
X147779619Y-68609013D01*
X147779619Y-68137299D01*
X147102285Y-67726061D02*
X148118285Y-67853061D01*
X147150666Y-67732108D02*
X147102285Y-67653489D01*
X147102285Y-67508346D01*
X147150666Y-67441822D01*
X147199047Y-67411584D01*
X147295809Y-67387394D01*
X147586095Y-67423680D01*
X147682857Y-67472061D01*
X147731238Y-67514394D01*
X147779619Y-67593013D01*
X147779619Y-67738156D01*
X147731238Y-67804680D01*
X147247428Y-66800775D02*
X147247428Y-67054775D01*
X147779619Y-67121299D02*
X146763619Y-66994299D01*
X146763619Y-66631442D01*
%TO.C,U4*%
D11*
X142542380Y-95824523D02*
X142542380Y-96852619D01*
X142602857Y-96973571D01*
X142663333Y-97034047D01*
X142784285Y-97094523D01*
X143026190Y-97094523D01*
X143147142Y-97034047D01*
X143207619Y-96973571D01*
X143268095Y-96852619D01*
X143268095Y-95824523D01*
X144417142Y-96247857D02*
X144417142Y-97094523D01*
X144114761Y-95764047D02*
X143812380Y-96671190D01*
X144598571Y-96671190D01*
D15*
X170485903Y-95945476D02*
X170541844Y-95885000D01*
X170646165Y-95824523D01*
X170888070Y-95824523D01*
X170977272Y-95885000D01*
X171018094Y-95945476D01*
X171051356Y-96066428D01*
X171036237Y-96187380D01*
X170965177Y-96368809D01*
X170293891Y-97094523D01*
X170922844Y-97094523D01*
X171594129Y-96368809D02*
X171504927Y-96308333D01*
X171464106Y-96247857D01*
X171430844Y-96126904D01*
X171438403Y-96066428D01*
X171501903Y-95945476D01*
X171557844Y-95885000D01*
X171662165Y-95824523D01*
X171855689Y-95824523D01*
X171944891Y-95885000D01*
X171985713Y-95945476D01*
X172018975Y-96066428D01*
X172011415Y-96126904D01*
X171947915Y-96247857D01*
X171891975Y-96308333D01*
X171787653Y-96368809D01*
X171594129Y-96368809D01*
X171489808Y-96429285D01*
X171433867Y-96489761D01*
X171370367Y-96610714D01*
X171340129Y-96852619D01*
X171373391Y-96973571D01*
X171414213Y-97034047D01*
X171503415Y-97094523D01*
X171696939Y-97094523D01*
X171801260Y-97034047D01*
X171857201Y-96973571D01*
X171920701Y-96852619D01*
X171950939Y-96610714D01*
X171917677Y-96489761D01*
X171876856Y-96429285D01*
X171787653Y-96368809D01*
X172921582Y-96973571D02*
X172865641Y-97034047D01*
X172712939Y-97094523D01*
X172616177Y-97094523D01*
X172478594Y-97034047D01*
X172396951Y-96913095D01*
X172363689Y-96792142D01*
X172345546Y-96550238D01*
X172368225Y-96368809D01*
X172446844Y-96126904D01*
X172510344Y-96005952D01*
X172622225Y-95885000D01*
X172774927Y-95824523D01*
X172871689Y-95824523D01*
X173009272Y-95885000D01*
X173050094Y-95945476D01*
X173936070Y-95824523D02*
X173742546Y-95824523D01*
X173638225Y-95885000D01*
X173582284Y-95945476D01*
X173462844Y-96126904D01*
X173384225Y-96368809D01*
X173323748Y-96852619D01*
X173357010Y-96973571D01*
X173397832Y-97034047D01*
X173487034Y-97094523D01*
X173680558Y-97094523D01*
X173784879Y-97034047D01*
X173840820Y-96973571D01*
X173904320Y-96852619D01*
X173942117Y-96550238D01*
X173908856Y-96429285D01*
X173868034Y-96368809D01*
X173778832Y-96308333D01*
X173585308Y-96308333D01*
X173480987Y-96368809D01*
X173425046Y-96429285D01*
X173361546Y-96550238D01*
X174850772Y-96247857D02*
X174744939Y-97094523D01*
X174669344Y-95764047D02*
X174314046Y-96671190D01*
X174942998Y-96671190D01*
%TO.C,C17*%
X139427857Y-68598142D02*
X139476238Y-68646523D01*
X139524619Y-68791666D01*
X139524619Y-68888428D01*
X139476238Y-69033571D01*
X139379476Y-69130333D01*
X139282714Y-69178714D01*
X139089190Y-69227095D01*
X138944047Y-69227095D01*
X138750523Y-69178714D01*
X138653761Y-69130333D01*
X138557000Y-69033571D01*
X138508619Y-68888428D01*
X138508619Y-68791666D01*
X138557000Y-68646523D01*
X138605380Y-68598142D01*
X139524619Y-67630523D02*
X139524619Y-68211095D01*
X139524619Y-67920809D02*
X138508619Y-67920809D01*
X138653761Y-68017571D01*
X138750523Y-68114333D01*
X138798904Y-68211095D01*
X138508619Y-67291857D02*
X138508619Y-66614523D01*
X139524619Y-67049952D01*
D16*
X136942285Y-69032346D02*
X137619619Y-69117013D01*
X136555238Y-69165394D02*
X137280952Y-69437537D01*
X137280952Y-68965822D01*
X137522857Y-68705775D02*
X137571238Y-68675537D01*
X137619619Y-68717870D01*
X137571238Y-68748108D01*
X137522857Y-68705775D01*
X137619619Y-68717870D01*
X136603619Y-68300584D02*
X136603619Y-67792584D01*
X137619619Y-68246156D01*
X136942285Y-67544632D02*
X137619619Y-67629299D01*
X137039047Y-67556727D02*
X136990666Y-67514394D01*
X136942285Y-67435775D01*
X136942285Y-67326918D01*
X136990666Y-67260394D01*
X137087428Y-67236203D01*
X137619619Y-67302727D01*
X137087428Y-66619346D02*
X137087428Y-66873346D01*
X137619619Y-66939870D02*
X136603619Y-66812870D01*
X136603619Y-66450013D01*
%TO.C,U1*%
D11*
X137854523Y-78657619D02*
X138882619Y-78657619D01*
X139003571Y-78597142D01*
X139064047Y-78536666D01*
X139124523Y-78415714D01*
X139124523Y-78173809D01*
X139064047Y-78052857D01*
X139003571Y-77992380D01*
X138882619Y-77931904D01*
X137854523Y-77931904D01*
X139124523Y-76661904D02*
X139124523Y-77387619D01*
X139124523Y-77024761D02*
X137854523Y-77024761D01*
X138035952Y-77145714D01*
X138156904Y-77266666D01*
X138217380Y-77387619D01*
D15*
X136373809Y-78505155D02*
X136313333Y-78594358D01*
X136252857Y-78635179D01*
X136131904Y-78668441D01*
X136071428Y-78660882D01*
X135950476Y-78597382D01*
X135890000Y-78541441D01*
X135829523Y-78437120D01*
X135829523Y-78243596D01*
X135890000Y-78154393D01*
X135950476Y-78113572D01*
X136071428Y-78080310D01*
X136131904Y-78087870D01*
X136252857Y-78151370D01*
X136313333Y-78207310D01*
X136373809Y-78311632D01*
X136373809Y-78505155D01*
X136434285Y-78609477D01*
X136494761Y-78665417D01*
X136615714Y-78728917D01*
X136857619Y-78759155D01*
X136978571Y-78725893D01*
X137039047Y-78685072D01*
X137099523Y-78595870D01*
X137099523Y-78402346D01*
X137039047Y-78298024D01*
X136978571Y-78242084D01*
X136857619Y-78178584D01*
X136615714Y-78148346D01*
X136494761Y-78181608D01*
X136434285Y-78222429D01*
X136373809Y-78311632D01*
X135950476Y-77678143D02*
X135890000Y-77622203D01*
X135829523Y-77517882D01*
X135829523Y-77275977D01*
X135890000Y-77186774D01*
X135950476Y-77145953D01*
X136071428Y-77112691D01*
X136192380Y-77127810D01*
X136373809Y-77198870D01*
X137099523Y-77870155D01*
X137099523Y-77241203D01*
X135829523Y-76453501D02*
X135829523Y-76356739D01*
X135890000Y-76267536D01*
X135950476Y-76226715D01*
X136071428Y-76193453D01*
X136313333Y-76175310D01*
X136615714Y-76213108D01*
X136857619Y-76291727D01*
X136978571Y-76355227D01*
X137039047Y-76411167D01*
X137099523Y-76515489D01*
X137099523Y-76612251D01*
X137039047Y-76701453D01*
X136978571Y-76742274D01*
X136857619Y-76775536D01*
X136615714Y-76793679D01*
X136313333Y-76755882D01*
X136071428Y-76677262D01*
X135950476Y-76613762D01*
X135890000Y-76557822D01*
X135829523Y-76453501D01*
X135829523Y-75776167D02*
X135829523Y-75098834D01*
X137099523Y-75693012D01*
X135829523Y-74808548D02*
X135829523Y-74131215D01*
X137099523Y-74725393D01*
X136736666Y-73905941D02*
X136736666Y-73422132D01*
X137099523Y-74048060D02*
X135829523Y-73550643D01*
X137099523Y-73370727D01*
X136736666Y-73035084D02*
X136736666Y-72551274D01*
X137099523Y-73177203D02*
X135829523Y-72679786D01*
X137099523Y-72499870D01*
%TO.C,P1*%
X147830095Y-61109619D02*
X147830095Y-60093619D01*
X148217142Y-60093619D01*
X148313904Y-60142000D01*
X148362285Y-60190380D01*
X148410666Y-60287142D01*
X148410666Y-60432285D01*
X148362285Y-60529047D01*
X148313904Y-60577428D01*
X148217142Y-60625809D01*
X147830095Y-60625809D01*
X149378285Y-61109619D02*
X148797714Y-61109619D01*
X149088000Y-61109619D02*
X149088000Y-60093619D01*
X148991238Y-60238761D01*
X148894476Y-60335523D01*
X148797714Y-60383904D01*
D16*
X146857653Y-62164928D02*
X146603653Y-62164928D01*
X146537129Y-62697119D02*
X146664129Y-61681119D01*
X147026986Y-61681119D01*
X147553129Y-62697119D02*
X147190272Y-62697119D01*
X147317272Y-61681119D01*
X148079272Y-61681119D02*
X148224415Y-61681119D01*
X148290938Y-61729500D01*
X148351415Y-61826261D01*
X148363510Y-62019785D01*
X148321177Y-62358452D01*
X148260700Y-62551976D01*
X148176034Y-62648738D01*
X148097415Y-62697119D01*
X147952272Y-62697119D01*
X147885748Y-62648738D01*
X147825272Y-62551976D01*
X147813177Y-62358452D01*
X147855510Y-62019785D01*
X147915986Y-61826261D01*
X148000653Y-61729500D01*
X148079272Y-61681119D01*
X148605415Y-62697119D02*
X148732415Y-61681119D01*
X149022700Y-61681119D01*
X149089224Y-61729500D01*
X149119462Y-61777880D01*
X149143653Y-61874642D01*
X149125510Y-62019785D01*
X149077129Y-62116547D01*
X149034796Y-62164928D01*
X148956177Y-62213309D01*
X148665891Y-62213309D01*
X149367415Y-62697119D02*
X149494415Y-61681119D01*
X149784700Y-61681119D01*
X149851224Y-61729500D01*
X149881462Y-61777880D01*
X149905653Y-61874642D01*
X149887510Y-62019785D01*
X149839129Y-62116547D01*
X149796796Y-62164928D01*
X149718177Y-62213309D01*
X149427891Y-62213309D01*
X150335034Y-62213309D02*
X150274557Y-62697119D01*
X150147557Y-61681119D02*
X150335034Y-62213309D01*
X150655557Y-61681119D01*
%TO.C,RR1*%
D15*
X153627666Y-109044619D02*
X153289000Y-108560809D01*
X153047095Y-109044619D02*
X153047095Y-108028619D01*
X153434142Y-108028619D01*
X153530904Y-108077000D01*
X153579285Y-108125380D01*
X153627666Y-108222142D01*
X153627666Y-108367285D01*
X153579285Y-108464047D01*
X153530904Y-108512428D01*
X153434142Y-108560809D01*
X153047095Y-108560809D01*
X154643666Y-109044619D02*
X154305000Y-108560809D01*
X154063095Y-109044619D02*
X154063095Y-108028619D01*
X154450142Y-108028619D01*
X154546904Y-108077000D01*
X154595285Y-108125380D01*
X154643666Y-108222142D01*
X154643666Y-108367285D01*
X154595285Y-108464047D01*
X154546904Y-108512428D01*
X154450142Y-108560809D01*
X154063095Y-108560809D01*
X155611285Y-109044619D02*
X155030714Y-109044619D01*
X155321000Y-109044619D02*
X155321000Y-108028619D01*
X155224238Y-108173761D01*
X155127476Y-108270523D01*
X155030714Y-108318904D01*
D16*
X153749843Y-110632119D02*
X153314415Y-110632119D01*
X153532129Y-110632119D02*
X153659129Y-109616119D01*
X153568415Y-109761261D01*
X153483748Y-109858023D01*
X153405129Y-109906404D01*
X154348557Y-109616119D02*
X154421129Y-109616119D01*
X154487653Y-109664500D01*
X154517891Y-109712880D01*
X154542081Y-109809642D01*
X154554177Y-110003166D01*
X154523938Y-110245071D01*
X154463462Y-110438595D01*
X154415081Y-110535357D01*
X154372748Y-110583738D01*
X154294129Y-110632119D01*
X154221557Y-110632119D01*
X154155034Y-110583738D01*
X154124796Y-110535357D01*
X154100605Y-110438595D01*
X154088510Y-110245071D01*
X154118748Y-110003166D01*
X154179224Y-109809642D01*
X154227605Y-109712880D01*
X154269938Y-109664500D01*
X154348557Y-109616119D01*
X154802129Y-110632119D02*
X154929129Y-109616119D01*
X154923081Y-110245071D02*
X155092415Y-110632119D01*
X155177081Y-109954785D02*
X154838415Y-110341833D01*
%TO.C,RR2*%
D15*
X128227666Y-62689619D02*
X127889000Y-62205809D01*
X127647095Y-62689619D02*
X127647095Y-61673619D01*
X128034142Y-61673619D01*
X128130904Y-61722000D01*
X128179285Y-61770380D01*
X128227666Y-61867142D01*
X128227666Y-62012285D01*
X128179285Y-62109047D01*
X128130904Y-62157428D01*
X128034142Y-62205809D01*
X127647095Y-62205809D01*
X129243666Y-62689619D02*
X128905000Y-62205809D01*
X128663095Y-62689619D02*
X128663095Y-61673619D01*
X129050142Y-61673619D01*
X129146904Y-61722000D01*
X129195285Y-61770380D01*
X129243666Y-61867142D01*
X129243666Y-62012285D01*
X129195285Y-62109047D01*
X129146904Y-62157428D01*
X129050142Y-62205809D01*
X128663095Y-62205809D01*
X129630714Y-61770380D02*
X129679095Y-61722000D01*
X129775857Y-61673619D01*
X130017761Y-61673619D01*
X130114523Y-61722000D01*
X130162904Y-61770380D01*
X130211285Y-61867142D01*
X130211285Y-61963904D01*
X130162904Y-62109047D01*
X129582333Y-62689619D01*
X130211285Y-62689619D01*
D16*
X128712700Y-64277119D02*
X128277272Y-64277119D01*
X128494986Y-64277119D02*
X128621986Y-63261119D01*
X128531272Y-63406261D01*
X128446605Y-63503023D01*
X128367986Y-63551404D01*
X129039272Y-64277119D02*
X129166272Y-63261119D01*
X129160224Y-63890071D02*
X129329557Y-64277119D01*
X129414224Y-63599785D02*
X129075557Y-63986833D01*
%TO.C,X1*%
D15*
X152212523Y-73103619D02*
X152889857Y-74119619D01*
X152889857Y-73103619D02*
X152212523Y-74119619D01*
X153809095Y-74119619D02*
X153228523Y-74119619D01*
X153518809Y-74119619D02*
X153518809Y-73103619D01*
X153422047Y-73248761D01*
X153325285Y-73345523D01*
X153228523Y-73393904D01*
D16*
X151324748Y-74787880D02*
X151367081Y-74739500D01*
X151445700Y-74691119D01*
X151627129Y-74691119D01*
X151693653Y-74739500D01*
X151723891Y-74787880D01*
X151748081Y-74884642D01*
X151735986Y-74981404D01*
X151681557Y-75126547D01*
X151173557Y-75707119D01*
X151645272Y-75707119D01*
X152383081Y-75029785D02*
X152298415Y-75707119D01*
X152250034Y-74642738D02*
X151977891Y-75368452D01*
X152449605Y-75368452D01*
X152697557Y-75707119D02*
X152824557Y-74691119D01*
X152987843Y-75416833D01*
X153332557Y-74691119D01*
X153205557Y-75707119D01*
X153568415Y-75707119D02*
X153695415Y-74691119D01*
X153634938Y-75174928D02*
X154070367Y-75174928D01*
X154003843Y-75707119D02*
X154130843Y-74691119D01*
X154378796Y-75029785D02*
X154777938Y-75029785D01*
X154294129Y-75707119D01*
X154693272Y-75707119D01*
%TO.C,RR3*%
D14*
X141333333Y-114172380D02*
X141000000Y-113696190D01*
X140761904Y-114172380D02*
X140761904Y-113172380D01*
X141142857Y-113172380D01*
X141238095Y-113220000D01*
X141285714Y-113267619D01*
X141333333Y-113362857D01*
X141333333Y-113505714D01*
X141285714Y-113600952D01*
X141238095Y-113648571D01*
X141142857Y-113696190D01*
X140761904Y-113696190D01*
X142333333Y-114172380D02*
X142000000Y-113696190D01*
X141761904Y-114172380D02*
X141761904Y-113172380D01*
X142142857Y-113172380D01*
X142238095Y-113220000D01*
X142285714Y-113267619D01*
X142333333Y-113362857D01*
X142333333Y-113505714D01*
X142285714Y-113600952D01*
X142238095Y-113648571D01*
X142142857Y-113696190D01*
X141761904Y-113696190D01*
X142666666Y-113172380D02*
X143285714Y-113172380D01*
X142952380Y-113553333D01*
X143095238Y-113553333D01*
X143190476Y-113600952D01*
X143238095Y-113648571D01*
X143285714Y-113743809D01*
X143285714Y-113981904D01*
X143238095Y-114077142D01*
X143190476Y-114124761D01*
X143095238Y-114172380D01*
X142809523Y-114172380D01*
X142714285Y-114124761D01*
X142666666Y-114077142D01*
%TD*%
M02*
