M48
; DRILL file {KiCad (5.1.6-0)} date Sunday, August 23, 2020 at 05:16:27 PM
; FORMAT={-:-/ absolute / inch / decimal}
; #@! TF.CreationDate,2020-08-23T17:16:27-05:00
; #@! TF.GenerationSoftware,Kicad,Pcbnew,(5.1.6-0)
FMAT,2
INCH
T1C0.0250
T2C0.0276
T3C0.0315
T4C0.0320
T5C0.0394
T6C0.0400
T7C0.1260
%
G90
G05
T1
X3.9632Y-1.9616
X4.0071Y-3.3083
X4.0299Y-2.1618
X4.0343Y-1.965
X4.0354Y-2.2343
X4.0354Y-3.2004
X4.05Y-4.9
X4.0612Y-2.1965
X4.0862Y-2.0059
X4.0917Y-1.9075
X4.1061Y-2.1994
X4.1327Y-3.2358
X4.1405Y-2.1593
X4.1492Y-4.5799
X4.15Y-4.75
X4.15Y-4.8
X4.161Y-2.8492
X4.3496Y-4.6224
X4.3933Y-3.0
X4.4075Y-4.5335
X4.4217Y-4.0122
X4.4411Y-4.6039
X4.4912Y-4.5332
X4.5Y-3.4
X4.5008Y-4.7638
X4.5071Y-4.8661
X4.5143Y-4.5718
X4.5543Y-4.1252
X4.5965Y-4.5087
X4.6Y-2.9
X4.6017Y-4.7864
X4.6024Y-4.6012
X4.6492Y-3.7402
X4.65Y-4.15
X4.6696Y-4.5046
X4.7Y-4.3094
X4.7346Y-4.5201
X4.7496Y-3.7378
X4.7837Y-2.9163
X4.8Y-3.4125
X4.8504Y-4.9155
X4.8531Y-3.198
X4.8625Y-3.35
X4.8736Y-3.9657
X4.8917Y-4.5126
X4.9Y-2.95
X4.9138Y-3.0465
X4.924Y-3.9555
X4.9512Y-3.0961
X4.9886Y-4.1197
X5.0Y-2.0201
X5.0125Y-3.2
X5.0646Y-4.5256
X5.075Y-2.6
X5.0958Y-2.0027
X5.0996Y-3.8886
X5.1025Y-4.5655
X5.1082Y-2.3668
X5.1238Y-4.8289
X5.1516Y-4.522
X5.2Y-4.5646
X5.2125Y-4.3044
X5.2316Y-2.5434
X5.2555Y-4.6702
X5.275Y-3.65
X5.2892Y-4.3176
X5.2957Y-4.7539
X5.2965Y-3.9504
X5.3142Y-4.6874
X5.3291Y-3.863
X5.3531Y-4.0
X5.389Y-2.6976
X5.389Y-4.4091
X5.4047Y-4.3075
X5.435Y-4.5185
X5.4557Y-2.525
X5.498Y-2.7165
X5.5204Y-4.6404
X5.5327Y-2.7571
X5.5327Y-2.8874
X5.5382Y-2.5898
X5.5453Y-3.3142
X5.5636Y-4.6276
X5.5719Y-4.8937
X5.575Y-3.25
X5.5772Y-3.1886
X5.5823Y-4.2926
X5.6Y-3.3
X5.6462Y-2.0479
X5.6484Y-3.161
X5.6488Y-4.6843
X5.65Y-3.25
X5.6506Y-4.9144
X5.6866Y-4.1409
X5.6952Y-4.6825
X5.7102Y-2.6299
X5.7167Y-2.0479
X5.7583Y-2.4713
X5.809Y-4.4884
X5.8469Y-2.5232
X5.875Y-2.75
X5.881Y-4.7689
X5.8854Y-4.8139
X5.8921Y-4.1264
X5.898Y-2.3124
X5.905Y-4.3124
X5.9065Y-4.3736
X5.948Y-2.3624
X5.9606Y-4.5909
X5.9763Y-4.5196
X5.9867Y-4.8814
X5.9976Y-4.7287
X5.9996Y-2.3098
X6.0224Y-2.4819
X6.0343Y-1.9055
X6.0375Y-2.4037
X6.05Y-2.85
X6.05Y-3.05
X6.05Y-3.375
X6.0512Y-4.1799
X6.0654Y-4.3965
X6.0811Y-4.5638
X6.0835Y-4.1476
X6.0955Y-4.6353
X6.0988Y-2.2567
X6.0988Y-4.3083
X6.135Y-4.2618
X6.139Y-4.9098
X6.1413Y-4.6382
X6.152Y-2.7988
X6.1661Y-4.0783
X6.1937Y-3.9004
X6.2016Y-4.113
X6.2022Y-4.7457
X6.2071Y-4.1925
X6.2496Y-4.0839
X6.2529Y-4.7473
X6.275Y-4.6
X6.3Y-4.075
X6.35Y-4.55
X6.352Y-4.0264
X6.45Y-3.425
X6.452Y-3.6276
X6.5047Y-4.0827
X6.55Y-3.425
X6.6Y-4.6
X6.675Y-3.325
X6.8Y-3.25
X6.9Y-4.6
X7.0425Y-2.9079
X7.05Y-3.95
X7.0772Y-2.8055
X7.1Y-4.5
X7.2543Y-3.2217
X7.2677Y-2.3268
X7.2681Y-2.226
X7.2709Y-2.4272
X7.276Y-3.6252
X7.3179Y-4.0372
X7.4465Y-4.5016
X7.4626Y-4.3579
X7.5Y-4.95
X7.5004Y-4.4035
X7.5024Y-4.7638
X7.5134Y-4.5417
X7.5268Y-2.3181
X7.5516Y-2.4228
X7.5539Y-4.9268
X7.6146Y-2.624
X7.6146Y-2.7154
X7.648Y-2.8669
X7.6913Y-2.0276
X7.7669Y-1.9539
X7.8504Y-1.9551
X7.9075Y-4.365
X7.9398Y-1.9559
T2
X5.1184Y-3.9513
X5.1713Y-3.8984
X4.7016Y-4.7866
X5.0016Y-4.7866
X5.1453Y-4.1386
X5.1453Y-4.2134
T3
X5.389Y-3.9091
X5.389Y-4.2091
X5.489Y-3.9091
X5.489Y-4.2091
X5.589Y-3.9091
X5.589Y-4.2091
X5.689Y-3.9091
X5.689Y-4.2091
X5.789Y-3.9091
X5.789Y-4.2091
X5.889Y-3.9091
X5.889Y-4.2091
X5.989Y-3.9091
X5.989Y-4.2091
X5.4906Y-4.3827
X5.5906Y-4.3827
X5.6906Y-4.3827
X5.7906Y-4.3827
T4
X4.15Y-4.45
X4.15Y-4.65
X5.6Y-3.1
X5.6Y-3.7
X5.7Y-3.1
X5.7Y-3.7
X5.8Y-3.1
X5.8Y-3.7
X5.9Y-3.1
X5.9Y-3.7
X6.0Y-3.1
X6.0Y-3.7
X6.1Y-3.1
X6.1Y-3.7
X6.2Y-3.1
X6.2Y-3.7
X6.3Y-3.1
X6.3Y-3.7
X6.4Y-3.1
X6.4Y-3.7
X6.5Y-3.1
X6.5Y-3.7
X6.6Y-3.1
X6.6Y-3.7
X6.7Y-3.1
X6.7Y-3.7
X6.8Y-3.1
X6.8Y-3.7
X6.9Y-3.1
X6.9Y-3.7
X6.3Y-4.4
X6.3Y-4.7
X6.4Y-4.4
X6.4Y-4.7
X6.5Y-4.4
X6.5Y-4.7
X6.6Y-4.4
X6.6Y-4.7
X6.7Y-4.4
X6.7Y-4.7
X6.8Y-4.4
X6.8Y-4.7
X6.9Y-4.4
X6.9Y-4.7
X7.0Y-4.4
X7.0Y-4.7
X7.1Y-4.4
X7.1Y-4.7
X7.2Y-4.4
X7.2Y-4.7
X4.15Y-3.95
X4.15Y-4.15
X4.6988Y-2.4543
X4.8988Y-2.4543
X4.3Y-3.9
X4.3Y-4.2
X4.4Y-3.9
X4.4Y-4.2
X4.5Y-3.9
X4.5Y-4.2
X4.6Y-3.9
X4.6Y-4.2
X4.7Y-3.9
X4.7Y-4.2
X4.8Y-3.9
X4.8Y-4.2
X4.9Y-3.9
X4.9Y-4.2
X5.0Y-3.9
X5.0Y-4.2
X7.5154Y-4.674
X7.5154Y-4.874
X6.3Y-3.9
X6.3Y-4.2
X6.4Y-3.9
X6.4Y-4.2
X6.5Y-3.9
X6.5Y-4.2
X6.6Y-3.9
X6.6Y-4.2
X6.7Y-3.9
X6.7Y-4.2
X6.8Y-3.9
X6.8Y-4.2
X6.9Y-3.9
X6.9Y-4.2
X7.0Y-3.9
X7.0Y-4.2
X6.2Y-4.3
X6.3Y-4.3
X6.4Y-4.3
X6.5Y-4.3
X6.6Y-4.3
X6.7Y-4.3
X6.8Y-4.3
X6.9Y-4.3
X7.0Y-4.3
X7.1Y-4.3
X5.8Y-2.575
X5.8Y-2.775
X5.228Y-3.9638
X5.228Y-4.1638
X5.2Y-2.475
X5.3Y-2.475
X5.4Y-2.475
X5.5Y-2.475
X5.6Y-2.475
X5.7Y-2.475
X5.6Y-2.575
X5.6Y-2.775
X4.3Y-4.398
X4.3Y-4.698
X4.4Y-4.398
X4.4Y-4.698
X4.5Y-4.398
X4.5Y-4.698
X4.6Y-4.398
X4.6Y-4.698
X4.7Y-4.398
X4.7Y-4.698
X4.8Y-4.398
X4.8Y-4.698
X4.9Y-4.398
X4.9Y-4.698
X5.0Y-4.398
X5.0Y-4.698
X5.1Y-4.398
X5.1Y-4.698
X5.2Y-4.398
X5.2Y-4.698
X5.6039Y-2.925
X5.7961Y-2.925
X5.4Y-2.575
X5.4Y-2.775
X4.2Y-2.8
X4.2Y-2.9
X4.2Y-3.0
X4.2Y-3.1
X4.2Y-3.2
X4.2Y-3.3
X4.2Y-3.4
X4.2Y-3.5
X4.2Y-3.6
X4.3Y-2.7
X4.3Y-2.8
X4.3Y-2.9
X4.3Y-3.0
X4.3Y-3.1
X4.3Y-3.2
X4.3Y-3.3
X4.3Y-3.4
X4.3Y-3.5
X4.3Y-3.6
X4.3Y-3.7
X4.4Y-2.7
X4.4Y-2.8
X4.4Y-3.6
X4.4Y-3.7
X4.5Y-2.7
X4.5Y-2.8
X4.5Y-3.6
X4.5Y-3.7
X4.6Y-2.7
X4.6Y-2.8
X4.6Y-3.6
X4.6Y-3.7
X4.7Y-2.7
X4.7Y-2.8
X4.7Y-3.6
X4.7Y-3.7
X4.8Y-2.7
X4.8Y-2.8
X4.8Y-3.6
X4.8Y-3.7
X4.9Y-2.7
X4.9Y-2.8
X4.9Y-3.6
X4.9Y-3.7
X5.0Y-2.7
X5.0Y-2.8
X5.0Y-3.6
X5.0Y-3.7
X5.1Y-2.7
X5.1Y-2.8
X5.1Y-2.9
X5.1Y-3.0
X5.1Y-3.1
X5.1Y-3.2
X5.1Y-3.3
X5.1Y-3.4
X5.1Y-3.5
X5.1Y-3.6
X5.1Y-3.7
X5.2Y-2.8
X5.2Y-2.9
X5.2Y-3.0
X5.2Y-3.1
X5.2Y-3.2
X5.2Y-3.3
X5.2Y-3.4
X5.2Y-3.5
X5.2Y-3.6
X5.4004Y-3.2799
X5.4004Y-3.4799
X6.1996Y-4.4496
X6.1996Y-4.6496
T5
X7.7255Y-2.6209
X7.7255Y-2.7299
X7.7255Y-2.839
X7.7255Y-2.948
X7.7255Y-3.0571
X7.7255Y-3.1661
X7.7255Y-3.2752
X7.7255Y-3.3843
X7.7255Y-3.4933
X7.7255Y-3.6024
X7.7255Y-3.7114
X7.7255Y-3.8205
X7.7255Y-3.9295
X7.7255Y-4.0386
X7.7255Y-4.1476
X7.7255Y-4.2567
X7.7255Y-4.3657
X7.7255Y-4.4748
X7.7255Y-4.5839
X7.8373Y-2.6754
X7.8373Y-2.7844
X7.8373Y-2.8935
X7.8373Y-3.0026
X7.8373Y-3.1116
X7.8373Y-3.2207
X7.8373Y-3.3297
X7.8373Y-3.4388
X7.8373Y-3.5478
X7.8373Y-3.6569
X7.8373Y-3.7659
X7.8373Y-3.875
X7.8373Y-3.9841
X7.8373Y-4.0931
X7.8373Y-4.2022
X7.8373Y-4.3112
X7.8373Y-4.4203
X7.8373Y-4.5293
T6
X4.1996Y-2.1378
X4.1996Y-2.2378
X4.2996Y-2.1378
X4.2996Y-2.2378
X4.3996Y-2.1378
X4.3996Y-2.2378
X4.4996Y-2.1378
X4.4996Y-2.2378
X4.5996Y-2.1378
X4.5996Y-2.2378
X4.6996Y-2.1378
X4.6996Y-2.2378
X4.7996Y-2.1378
X4.7996Y-2.2378
X4.8996Y-2.1378
X4.8996Y-2.2378
X4.9996Y-2.1378
X4.9996Y-2.2378
X5.0996Y-2.1378
X5.0996Y-2.2378
X5.1996Y-2.1378
X5.1996Y-2.2378
X5.2996Y-2.1378
X5.2996Y-2.2378
X5.3996Y-2.1378
X5.3996Y-2.2378
X5.4996Y-2.1378
X5.4996Y-2.2378
X5.5996Y-2.1378
X5.5996Y-2.2378
X5.6996Y-2.1378
X5.6996Y-2.2378
X5.7996Y-2.1378
X5.7996Y-2.2378
X7.3413Y-2.1744
X7.3413Y-2.2744
X7.3413Y-2.3744
X7.3413Y-2.4744
X7.3413Y-2.5744
X7.3413Y-2.6744
X7.3413Y-2.7744
X7.3413Y-2.8744
X7.3413Y-2.9744
X7.3413Y-3.0744
X7.3413Y-3.1744
X7.3413Y-3.2744
X7.3413Y-3.3744
X7.3413Y-3.4744
X7.3413Y-3.5744
X7.3413Y-3.6744
X7.3413Y-3.7744
X7.4413Y-2.1744
X7.4413Y-2.2744
X7.4413Y-2.3744
X7.4413Y-2.4744
X7.4413Y-2.5744
X7.4413Y-2.6744
X7.4413Y-2.7744
X7.4413Y-2.8744
X7.4413Y-2.9744
X7.4413Y-3.0744
X7.4413Y-3.1744
X7.4413Y-3.2744
X7.4413Y-3.3744
X7.4413Y-3.4744
X7.4413Y-3.5744
X7.4413Y-3.6744
X7.4413Y-3.7744
T7
X7.7814Y-2.3524
X7.7814Y-4.8524
T0
M30
